<mxfile host="app.diagrams.net" modified="2021-10-25T15:33:49.290Z" agent="5.0 (Windows NT 10.0; Win64; x64) AppleWebKit/537.36 (KHTML, like Gecko) Chrome/95.0.4638.54 Safari/537.36 Edg/95.0.1020.30" etag="PeyYMtKQu4p3i1r8yBH4" version="15.5.9" type="github" pages="7">
  <diagram id="Cqt8GcUjEeKIvYjrr4BV" name="Rev-Flowchart Penjual">
    <mxGraphModel dx="782" dy="514" grid="1" gridSize="10" guides="1" tooltips="1" connect="1" arrows="1" fold="1" page="1" pageScale="1" pageWidth="850" pageHeight="1100" math="0" shadow="0">
      <root>
        <mxCell id="rY8muTHWtvHjuAhrDxVb-0" />
        <mxCell id="rY8muTHWtvHjuAhrDxVb-1" parent="rY8muTHWtvHjuAhrDxVb-0" />
        <mxCell id="rY8muTHWtvHjuAhrDxVb-2" value="" style="group;fontStyle=4" parent="rY8muTHWtvHjuAhrDxVb-1" vertex="1" connectable="0">
          <mxGeometry x="300" y="310" width="350" height="800" as="geometry" />
        </mxCell>
        <mxCell id="rY8muTHWtvHjuAhrDxVb-3" value="Login" style="rounded=1;whiteSpace=wrap;html=1;fontSize=12;glass=0;strokeWidth=1;shadow=0;" parent="rY8muTHWtvHjuAhrDxVb-2" vertex="1">
          <mxGeometry x="50" y="100" width="120" height="40" as="geometry" />
        </mxCell>
        <mxCell id="rY8muTHWtvHjuAhrDxVb-4" value="Start" style="strokeWidth=2;html=1;shape=mxgraph.flowchart.start_1;whiteSpace=wrap;" parent="rY8muTHWtvHjuAhrDxVb-2" vertex="1">
          <mxGeometry x="60" width="100" height="60" as="geometry" />
        </mxCell>
        <mxCell id="rY8muTHWtvHjuAhrDxVb-5" value="" style="endArrow=classic;html=1;exitX=0.5;exitY=1;exitDx=0;exitDy=0;" parent="rY8muTHWtvHjuAhrDxVb-2" edge="1">
          <mxGeometry width="50" height="50" relative="1" as="geometry">
            <mxPoint x="110" y="362" as="sourcePoint" />
            <mxPoint x="110" y="410" as="targetPoint" />
          </mxGeometry>
        </mxCell>
        <mxCell id="rY8muTHWtvHjuAhrDxVb-6" value="Pilih Menu" style="rounded=1;whiteSpace=wrap;html=1;fontSize=12;glass=0;strokeWidth=1;shadow=0;fontColor=#330000;strokeColor=#330000;" parent="rY8muTHWtvHjuAhrDxVb-2" vertex="1">
          <mxGeometry x="50" y="190" width="120" height="40" as="geometry" />
        </mxCell>
        <mxCell id="rY8muTHWtvHjuAhrDxVb-7" value="Kelola&lt;br&gt;Produk" style="strokeWidth=2;html=1;shape=mxgraph.flowchart.decision;whiteSpace=wrap;fillColor=#FFFFFF;strokeColor=#330000;" parent="rY8muTHWtvHjuAhrDxVb-2" vertex="1">
          <mxGeometry x="60" y="270" width="100" height="100" as="geometry" />
        </mxCell>
        <mxCell id="rY8muTHWtvHjuAhrDxVb-8" value="Kelola &lt;br&gt;Invoice" style="strokeWidth=2;html=1;shape=mxgraph.flowchart.decision;whiteSpace=wrap;fillColor=#FFFFFF;strokeColor=#330000;" parent="rY8muTHWtvHjuAhrDxVb-2" vertex="1">
          <mxGeometry x="60" y="410" width="100" height="100" as="geometry" />
        </mxCell>
        <mxCell id="rY8muTHWtvHjuAhrDxVb-9" value="Kelola&lt;br&gt;Kain" style="strokeWidth=2;html=1;shape=mxgraph.flowchart.decision;whiteSpace=wrap;fillColor=#FFFFFF;strokeColor=#330000;" parent="rY8muTHWtvHjuAhrDxVb-2" vertex="1">
          <mxGeometry x="60" y="560" width="100" height="100" as="geometry" />
        </mxCell>
        <mxCell id="rY8muTHWtvHjuAhrDxVb-10" value="Kelola&lt;br&gt;Ukuran" style="strokeWidth=2;html=1;shape=mxgraph.flowchart.decision;whiteSpace=wrap;fillColor=#FFFFFF;strokeColor=#330000;" parent="rY8muTHWtvHjuAhrDxVb-2" vertex="1">
          <mxGeometry x="60" y="700" width="100" height="100" as="geometry" />
        </mxCell>
        <mxCell id="rY8muTHWtvHjuAhrDxVb-11" value="Tampil Data Produk" style="shape=parallelogram;html=1;strokeWidth=2;perimeter=parallelogramPerimeter;whiteSpace=wrap;rounded=1;arcSize=12;size=0.23;" parent="rY8muTHWtvHjuAhrDxVb-2" vertex="1">
          <mxGeometry x="194" y="290" width="100" height="60" as="geometry" />
        </mxCell>
        <mxCell id="rY8muTHWtvHjuAhrDxVb-12" value="" style="endArrow=classic;html=1;exitX=1;exitY=0.5;exitDx=0;exitDy=0;exitPerimeter=0;" parent="rY8muTHWtvHjuAhrDxVb-2" source="rY8muTHWtvHjuAhrDxVb-7" target="rY8muTHWtvHjuAhrDxVb-11" edge="1">
          <mxGeometry width="50" height="50" relative="1" as="geometry">
            <mxPoint x="250" y="320" as="sourcePoint" />
            <mxPoint x="240" y="320" as="targetPoint" />
          </mxGeometry>
        </mxCell>
        <mxCell id="rY8muTHWtvHjuAhrDxVb-13" value="Tampil Data Invoice" style="shape=parallelogram;html=1;strokeWidth=2;perimeter=parallelogramPerimeter;whiteSpace=wrap;rounded=1;arcSize=12;size=0.23;" parent="rY8muTHWtvHjuAhrDxVb-2" vertex="1">
          <mxGeometry x="194" y="430" width="100" height="60" as="geometry" />
        </mxCell>
        <mxCell id="rY8muTHWtvHjuAhrDxVb-14" value="" style="endArrow=classic;html=1;exitX=1;exitY=0.5;exitDx=0;exitDy=0;exitPerimeter=0;" parent="rY8muTHWtvHjuAhrDxVb-2" target="rY8muTHWtvHjuAhrDxVb-13" edge="1">
          <mxGeometry width="50" height="50" relative="1" as="geometry">
            <mxPoint x="160" y="460" as="sourcePoint" />
            <mxPoint x="120" y="210" as="targetPoint" />
          </mxGeometry>
        </mxCell>
        <mxCell id="rY8muTHWtvHjuAhrDxVb-15" value="Tampil Data &lt;br&gt;Kain" style="shape=parallelogram;html=1;strokeWidth=2;perimeter=parallelogramPerimeter;whiteSpace=wrap;rounded=1;arcSize=12;size=0.23;" parent="rY8muTHWtvHjuAhrDxVb-2" vertex="1">
          <mxGeometry x="194" y="580" width="100" height="60" as="geometry" />
        </mxCell>
        <mxCell id="rY8muTHWtvHjuAhrDxVb-16" value="" style="endArrow=classic;html=1;exitX=1;exitY=0.5;exitDx=0;exitDy=0;exitPerimeter=0;" parent="rY8muTHWtvHjuAhrDxVb-2" target="rY8muTHWtvHjuAhrDxVb-15" edge="1">
          <mxGeometry width="50" height="50" relative="1" as="geometry">
            <mxPoint x="160" y="610" as="sourcePoint" />
            <mxPoint x="120" y="360" as="targetPoint" />
          </mxGeometry>
        </mxCell>
        <mxCell id="rY8muTHWtvHjuAhrDxVb-17" value="Tampil Data&lt;br&gt;Ukuran" style="shape=parallelogram;html=1;strokeWidth=2;perimeter=parallelogramPerimeter;whiteSpace=wrap;rounded=1;arcSize=12;size=0.23;" parent="rY8muTHWtvHjuAhrDxVb-2" vertex="1">
          <mxGeometry x="194" y="720" width="100" height="60" as="geometry" />
        </mxCell>
        <mxCell id="rY8muTHWtvHjuAhrDxVb-18" value="" style="endArrow=classic;html=1;exitX=1;exitY=0.5;exitDx=0;exitDy=0;exitPerimeter=0;" parent="rY8muTHWtvHjuAhrDxVb-2" target="rY8muTHWtvHjuAhrDxVb-17" edge="1">
          <mxGeometry width="50" height="50" relative="1" as="geometry">
            <mxPoint x="160" y="750" as="sourcePoint" />
            <mxPoint x="120" y="500" as="targetPoint" />
          </mxGeometry>
        </mxCell>
        <mxCell id="rY8muTHWtvHjuAhrDxVb-19" value="" style="endArrow=classic;html=1;" parent="rY8muTHWtvHjuAhrDxVb-2" edge="1">
          <mxGeometry width="50" height="50" relative="1" as="geometry">
            <mxPoint x="280" y="459.5" as="sourcePoint" />
            <mxPoint x="337.5" y="459.5" as="targetPoint" />
          </mxGeometry>
        </mxCell>
        <mxCell id="rY8muTHWtvHjuAhrDxVb-20" value="" style="endArrow=classic;html=1;" parent="rY8muTHWtvHjuAhrDxVb-2" edge="1">
          <mxGeometry width="50" height="50" relative="1" as="geometry">
            <mxPoint x="281" y="609.5" as="sourcePoint" />
            <mxPoint x="338.5" y="609.5" as="targetPoint" />
          </mxGeometry>
        </mxCell>
        <mxCell id="rY8muTHWtvHjuAhrDxVb-21" value="" style="endArrow=classic;html=1;" parent="rY8muTHWtvHjuAhrDxVb-2" edge="1">
          <mxGeometry width="50" height="50" relative="1" as="geometry">
            <mxPoint x="281" y="749.5" as="sourcePoint" />
            <mxPoint x="338.5" y="749.5" as="targetPoint" />
          </mxGeometry>
        </mxCell>
        <mxCell id="rY8muTHWtvHjuAhrDxVb-22" value="&lt;font style=&quot;font-size: 17px&quot; color=&quot;#f0aa69&quot;&gt;Flowchart Penjual&lt;/font&gt;" style="text;html=1;align=center;verticalAlign=middle;whiteSpace=wrap;rounded=0;fontColor=#333333;strokeColor=#330000;fillColor=#33001A;" parent="rY8muTHWtvHjuAhrDxVb-1" vertex="1">
          <mxGeometry x="230" y="270" width="190" height="20" as="geometry" />
        </mxCell>
        <mxCell id="rY8muTHWtvHjuAhrDxVb-23" value="" style="endArrow=classic;html=1;exitX=0.5;exitY=1;exitDx=0;exitDy=0;" parent="rY8muTHWtvHjuAhrDxVb-1" source="rY8muTHWtvHjuAhrDxVb-3" edge="1">
          <mxGeometry width="50" height="50" relative="1" as="geometry">
            <mxPoint x="720" y="610" as="sourcePoint" />
            <mxPoint x="410" y="490" as="targetPoint" />
          </mxGeometry>
        </mxCell>
        <mxCell id="rY8muTHWtvHjuAhrDxVb-24" value="" style="endArrow=classic;html=1;entryX=0.425;entryY=0;entryDx=0;entryDy=0;entryPerimeter=0;" parent="rY8muTHWtvHjuAhrDxVb-1" edge="1">
          <mxGeometry width="50" height="50" relative="1" as="geometry">
            <mxPoint x="409" y="371" as="sourcePoint" />
            <mxPoint x="410" y="411" as="targetPoint" />
          </mxGeometry>
        </mxCell>
        <mxCell id="rY8muTHWtvHjuAhrDxVb-25" value="" style="endArrow=classic;html=1;" parent="rY8muTHWtvHjuAhrDxVb-1" source="rY8muTHWtvHjuAhrDxVb-6" edge="1">
          <mxGeometry width="50" height="50" relative="1" as="geometry">
            <mxPoint x="590" y="610" as="sourcePoint" />
            <mxPoint x="410" y="580" as="targetPoint" />
          </mxGeometry>
        </mxCell>
        <mxCell id="rY8muTHWtvHjuAhrDxVb-26" value="" style="endArrow=classic;html=1;exitX=0.5;exitY=1;exitDx=0;exitDy=0;exitPerimeter=0;" parent="rY8muTHWtvHjuAhrDxVb-1" source="rY8muTHWtvHjuAhrDxVb-8" edge="1">
          <mxGeometry width="50" height="50" relative="1" as="geometry">
            <mxPoint x="550" y="810" as="sourcePoint" />
            <mxPoint x="410" y="870" as="targetPoint" />
          </mxGeometry>
        </mxCell>
        <mxCell id="rY8muTHWtvHjuAhrDxVb-27" value="" style="endArrow=classic;html=1;exitX=0.5;exitY=1;exitDx=0;exitDy=0;exitPerimeter=0;" parent="rY8muTHWtvHjuAhrDxVb-1" source="rY8muTHWtvHjuAhrDxVb-9" edge="1">
          <mxGeometry width="50" height="50" relative="1" as="geometry">
            <mxPoint x="550" y="810" as="sourcePoint" />
            <mxPoint x="410" y="1010" as="targetPoint" />
          </mxGeometry>
        </mxCell>
        <mxCell id="rY8muTHWtvHjuAhrDxVb-28" value="" style="endArrow=classic;html=1;exitX=0.5;exitY=1;exitDx=0;exitDy=0;exitPerimeter=0;" parent="rY8muTHWtvHjuAhrDxVb-1" source="rY8muTHWtvHjuAhrDxVb-10" edge="1">
          <mxGeometry width="50" height="50" relative="1" as="geometry">
            <mxPoint x="550" y="1010" as="sourcePoint" />
            <mxPoint x="410" y="1150" as="targetPoint" />
          </mxGeometry>
        </mxCell>
        <mxCell id="rY8muTHWtvHjuAhrDxVb-29" value="Kelola&lt;br&gt;Pengiriman" style="strokeWidth=2;html=1;shape=mxgraph.flowchart.decision;whiteSpace=wrap;fillColor=#FFFFFF;strokeColor=#330000;" parent="rY8muTHWtvHjuAhrDxVb-1" vertex="1">
          <mxGeometry x="360" y="1150" width="100" height="100" as="geometry" />
        </mxCell>
        <mxCell id="rY8muTHWtvHjuAhrDxVb-30" value="" style="endArrow=classic;html=1;exitX=0.5;exitY=1;exitDx=0;exitDy=0;exitPerimeter=0;" parent="rY8muTHWtvHjuAhrDxVb-1" source="rY8muTHWtvHjuAhrDxVb-29" edge="1">
          <mxGeometry width="50" height="50" relative="1" as="geometry">
            <mxPoint x="550" y="1010" as="sourcePoint" />
            <mxPoint x="410" y="1290" as="targetPoint" />
          </mxGeometry>
        </mxCell>
        <mxCell id="rY8muTHWtvHjuAhrDxVb-31" value="Data&lt;br&gt;Pembayaran" style="strokeWidth=2;html=1;shape=mxgraph.flowchart.decision;whiteSpace=wrap;fillColor=#FFFFFF;strokeColor=#330000;" parent="rY8muTHWtvHjuAhrDxVb-1" vertex="1">
          <mxGeometry x="360" y="1290" width="100" height="100" as="geometry" />
        </mxCell>
        <mxCell id="rY8muTHWtvHjuAhrDxVb-32" value="" style="endArrow=classic;html=1;exitX=0.5;exitY=1;exitDx=0;exitDy=0;exitPerimeter=0;" parent="rY8muTHWtvHjuAhrDxVb-1" source="rY8muTHWtvHjuAhrDxVb-31" edge="1">
          <mxGeometry width="50" height="50" relative="1" as="geometry">
            <mxPoint x="550" y="1370" as="sourcePoint" />
            <mxPoint x="410" y="1440" as="targetPoint" />
          </mxGeometry>
        </mxCell>
        <mxCell id="rY8muTHWtvHjuAhrDxVb-33" value="Laporan" style="strokeWidth=2;html=1;shape=mxgraph.flowchart.decision;whiteSpace=wrap;fillColor=#FFFFFF;strokeColor=#330000;" parent="rY8muTHWtvHjuAhrDxVb-1" vertex="1">
          <mxGeometry x="360" y="1440" width="100" height="100" as="geometry" />
        </mxCell>
        <mxCell id="rY8muTHWtvHjuAhrDxVb-34" value="" style="endArrow=classic;html=1;exitX=0.5;exitY=1;exitDx=0;exitDy=0;exitPerimeter=0;" parent="rY8muTHWtvHjuAhrDxVb-1" source="rY8muTHWtvHjuAhrDxVb-33" edge="1">
          <mxGeometry width="50" height="50" relative="1" as="geometry">
            <mxPoint x="550" y="1330" as="sourcePoint" />
            <mxPoint x="410" y="1580" as="targetPoint" />
          </mxGeometry>
        </mxCell>
        <mxCell id="rY8muTHWtvHjuAhrDxVb-35" value="Tampil Data&lt;br&gt;Pengiriman&lt;span style=&quot;color: rgba(0 , 0 , 0 , 0) ; font-family: monospace ; font-size: 0px&quot;&gt;%3CmxGraphModel%3E%3Croot%3E%3CmxCell%20id%3D%220%22%2F%3E%3CmxCell%20id%3D%221%22%20parent%3D%220%22%2F%3E%3CmxCell%20id%3D%222%22%20value%3D%22Tampil%20Data%20Produk%22%20style%3D%22shape%3Dparallelogram%3Bhtml%3D1%3BstrokeWidth%3D2%3Bperimeter%3DparallelogramPerimeter%3BwhiteSpace%3Dwrap%3Brounded%3D1%3BarcSize%3D12%3Bsize%3D0.23%3B%22%20vertex%3D%221%22%20parent%3D%221%22%3E%3CmxGeometry%20x%3D%22314%22%20y%3D%22540%22%20width%3D%22100%22%20height%3D%2260%22%20as%3D%22geometry%22%2F%3E%3C%2FmxCell%3E%3CmxCell%20id%3D%223%22%20value%3D%22%22%20style%3D%22endArrow%3Dclassic%3Bhtml%3D1%3BexitX%3D1%3BexitY%3D0.5%3BexitDx%3D0%3BexitDy%3D0%3BexitPerimeter%3D0%3B%22%20edge%3D%221%22%20target%3D%222%22%20parent%3D%221%22%3E%3CmxGeometry%20width%3D%2250%22%20height%3D%2250%22%20relative%3D%221%22%20as%3D%22geometry%22%3E%3CmxPoint%20x%3D%22280%22%20y%3D%22570%22%20as%3D%22sourcePoint%22%2F%3E%3CmxPoint%20x%3D%22240%22%20y%3D%22320%22%20as%3D%22targetPoint%22%2F%3E%3C%2FmxGeometry%3E%3C%2FmxCell%3E%3C%2Froot%3E%3C%2FmxGraphModel%3E&lt;/span&gt;" style="shape=parallelogram;html=1;strokeWidth=2;perimeter=parallelogramPerimeter;whiteSpace=wrap;rounded=1;arcSize=12;size=0.23;" parent="rY8muTHWtvHjuAhrDxVb-1" vertex="1">
          <mxGeometry x="494" y="1170" width="100" height="60" as="geometry" />
        </mxCell>
        <mxCell id="rY8muTHWtvHjuAhrDxVb-36" value="" style="endArrow=classic;html=1;exitX=1;exitY=0.5;exitDx=0;exitDy=0;exitPerimeter=0;" parent="rY8muTHWtvHjuAhrDxVb-1" target="rY8muTHWtvHjuAhrDxVb-35" edge="1">
          <mxGeometry width="50" height="50" relative="1" as="geometry">
            <mxPoint x="460" y="1200" as="sourcePoint" />
            <mxPoint x="420" y="950" as="targetPoint" />
          </mxGeometry>
        </mxCell>
        <mxCell id="rY8muTHWtvHjuAhrDxVb-37" value="Tampil Data&lt;br&gt;Pembayaran" style="shape=parallelogram;html=1;strokeWidth=2;perimeter=parallelogramPerimeter;whiteSpace=wrap;rounded=1;arcSize=12;size=0.23;" parent="rY8muTHWtvHjuAhrDxVb-1" vertex="1">
          <mxGeometry x="494" y="1310" width="100" height="60" as="geometry" />
        </mxCell>
        <mxCell id="rY8muTHWtvHjuAhrDxVb-38" value="" style="endArrow=classic;html=1;" parent="rY8muTHWtvHjuAhrDxVb-1" target="rY8muTHWtvHjuAhrDxVb-37" edge="1">
          <mxGeometry width="50" height="50" relative="1" as="geometry">
            <mxPoint x="460" y="1340" as="sourcePoint" />
            <mxPoint x="410" y="1090" as="targetPoint" />
          </mxGeometry>
        </mxCell>
        <mxCell id="rY8muTHWtvHjuAhrDxVb-39" value="Tampil Data&lt;br&gt;Laporan" style="shape=parallelogram;html=1;strokeWidth=2;perimeter=parallelogramPerimeter;whiteSpace=wrap;rounded=1;arcSize=12;size=0.23;" parent="rY8muTHWtvHjuAhrDxVb-1" vertex="1">
          <mxGeometry x="494" y="1460" width="100" height="60" as="geometry" />
        </mxCell>
        <mxCell id="rY8muTHWtvHjuAhrDxVb-40" value="" style="endArrow=classic;html=1;exitX=1;exitY=0.5;exitDx=0;exitDy=0;exitPerimeter=0;" parent="rY8muTHWtvHjuAhrDxVb-1" target="rY8muTHWtvHjuAhrDxVb-39" edge="1">
          <mxGeometry width="50" height="50" relative="1" as="geometry">
            <mxPoint x="460" y="1490" as="sourcePoint" />
            <mxPoint x="420" y="1240" as="targetPoint" />
          </mxGeometry>
        </mxCell>
        <mxCell id="rY8muTHWtvHjuAhrDxVb-41" value="" style="endArrow=classic;html=1;" parent="rY8muTHWtvHjuAhrDxVb-1" source="rY8muTHWtvHjuAhrDxVb-11" edge="1">
          <mxGeometry width="50" height="50" relative="1" as="geometry">
            <mxPoint x="550" y="990" as="sourcePoint" />
            <mxPoint x="640" y="630" as="targetPoint" />
          </mxGeometry>
        </mxCell>
        <mxCell id="rY8muTHWtvHjuAhrDxVb-42" value="Data &lt;br&gt;Produk" style="strokeWidth=2;html=1;shape=mxgraph.flowchart.direct_data;whiteSpace=wrap;fillColor=#FFFFFF;fontColor=none;" parent="rY8muTHWtvHjuAhrDxVb-1" vertex="1">
          <mxGeometry x="640" y="600" width="100" height="60" as="geometry" />
        </mxCell>
        <mxCell id="rY8muTHWtvHjuAhrDxVb-43" value="Data&amp;nbsp;&lt;br&gt;Invoice" style="strokeWidth=2;html=1;shape=mxgraph.flowchart.direct_data;whiteSpace=wrap;fillColor=#FFFFFF;fontColor=none;" parent="rY8muTHWtvHjuAhrDxVb-1" vertex="1">
          <mxGeometry x="638" y="740" width="100" height="60" as="geometry" />
        </mxCell>
        <mxCell id="rY8muTHWtvHjuAhrDxVb-44" value="Data&lt;br&gt;Kain" style="strokeWidth=2;html=1;shape=mxgraph.flowchart.direct_data;whiteSpace=wrap;fillColor=#FFFFFF;fontColor=none;" parent="rY8muTHWtvHjuAhrDxVb-1" vertex="1">
          <mxGeometry x="639" y="890" width="100" height="60" as="geometry" />
        </mxCell>
        <mxCell id="rY8muTHWtvHjuAhrDxVb-45" value="Data&lt;br&gt;Ukuran" style="strokeWidth=2;html=1;shape=mxgraph.flowchart.direct_data;whiteSpace=wrap;fillColor=#FFFFFF;fontColor=none;" parent="rY8muTHWtvHjuAhrDxVb-1" vertex="1">
          <mxGeometry x="640" y="1030" width="100" height="60" as="geometry" />
        </mxCell>
        <mxCell id="rY8muTHWtvHjuAhrDxVb-46" value="" style="endArrow=classic;html=1;" parent="rY8muTHWtvHjuAhrDxVb-1" edge="1">
          <mxGeometry width="50" height="50" relative="1" as="geometry">
            <mxPoint x="580.5" y="1199.5" as="sourcePoint" />
            <mxPoint x="638" y="1199.5" as="targetPoint" />
          </mxGeometry>
        </mxCell>
        <mxCell id="rY8muTHWtvHjuAhrDxVb-47" value="&lt;div&gt;&lt;span&gt;Data&lt;/span&gt;&lt;/div&gt;&lt;div&gt;&lt;span&gt;Pengiriman&lt;/span&gt;&lt;/div&gt;" style="strokeWidth=2;html=1;shape=mxgraph.flowchart.direct_data;whiteSpace=wrap;fillColor=#FFFFFF;fontColor=none;align=center;" parent="rY8muTHWtvHjuAhrDxVb-1" vertex="1">
          <mxGeometry x="639" y="1170" width="100" height="60" as="geometry" />
        </mxCell>
        <mxCell id="rY8muTHWtvHjuAhrDxVb-48" value="" style="endArrow=classic;html=1;" parent="rY8muTHWtvHjuAhrDxVb-1" edge="1">
          <mxGeometry width="50" height="50" relative="1" as="geometry">
            <mxPoint x="582.5" y="1340" as="sourcePoint" />
            <mxPoint x="640" y="1340" as="targetPoint" />
          </mxGeometry>
        </mxCell>
        <mxCell id="rY8muTHWtvHjuAhrDxVb-49" value="Data &lt;br&gt;Pembayaran" style="strokeWidth=2;html=1;shape=mxgraph.flowchart.direct_data;whiteSpace=wrap;fillColor=#FFFFFF;fontColor=none;" parent="rY8muTHWtvHjuAhrDxVb-1" vertex="1">
          <mxGeometry x="640" y="1310" width="100" height="60" as="geometry" />
        </mxCell>
        <mxCell id="rY8muTHWtvHjuAhrDxVb-50" value="" style="endArrow=classic;html=1;" parent="rY8muTHWtvHjuAhrDxVb-1" edge="1">
          <mxGeometry width="50" height="50" relative="1" as="geometry">
            <mxPoint x="582.5" y="1489.5" as="sourcePoint" />
            <mxPoint x="640" y="1489.5" as="targetPoint" />
          </mxGeometry>
        </mxCell>
        <mxCell id="rY8muTHWtvHjuAhrDxVb-51" value="Data Laporan" style="strokeWidth=2;html=1;shape=mxgraph.flowchart.direct_data;whiteSpace=wrap;fillColor=#FFFFFF;fontColor=none;" parent="rY8muTHWtvHjuAhrDxVb-1" vertex="1">
          <mxGeometry x="640" y="1460" width="100" height="60" as="geometry" />
        </mxCell>
        <mxCell id="rY8muTHWtvHjuAhrDxVb-52" value="" style="strokeWidth=2;html=1;shape=mxgraph.flowchart.annotation_1;align=left;pointerEvents=1;fillColor=#FFFFFF;fontColor=none;direction=west;" parent="rY8muTHWtvHjuAhrDxVb-1" vertex="1">
          <mxGeometry x="740" y="630" width="120" height="860" as="geometry" />
        </mxCell>
        <mxCell id="rY8muTHWtvHjuAhrDxVb-53" value="" style="line;strokeWidth=2;direction=west;html=1;fillColor=#FFFFFF;fontColor=none;flipV=1;" parent="rY8muTHWtvHjuAhrDxVb-1" vertex="1">
          <mxGeometry x="738" y="765" width="122" height="10" as="geometry" />
        </mxCell>
        <mxCell id="rY8muTHWtvHjuAhrDxVb-54" value="" style="line;strokeWidth=2;direction=west;html=1;fillColor=#FFFFFF;fontColor=none;flipV=1;" parent="rY8muTHWtvHjuAhrDxVb-1" vertex="1">
          <mxGeometry x="738" y="1055" width="122" height="10" as="geometry" />
        </mxCell>
        <mxCell id="rY8muTHWtvHjuAhrDxVb-55" value="" style="line;strokeWidth=2;direction=west;html=1;fillColor=#FFFFFF;fontColor=none;flipV=1;" parent="rY8muTHWtvHjuAhrDxVb-1" vertex="1">
          <mxGeometry x="740" y="1335" width="122" height="10" as="geometry" />
        </mxCell>
        <mxCell id="rY8muTHWtvHjuAhrDxVb-56" value="" style="line;strokeWidth=2;direction=west;html=1;fillColor=#FFFFFF;fontColor=none;flipV=1;" parent="rY8muTHWtvHjuAhrDxVb-1" vertex="1">
          <mxGeometry x="740" y="1195" width="122" height="10" as="geometry" />
        </mxCell>
        <mxCell id="rY8muTHWtvHjuAhrDxVb-57" value="" style="line;strokeWidth=2;direction=west;html=1;fillColor=#FFFFFF;fontColor=none;flipV=1;" parent="rY8muTHWtvHjuAhrDxVb-1" vertex="1">
          <mxGeometry x="740" y="920" width="122" height="10" as="geometry" />
        </mxCell>
        <mxCell id="rY8muTHWtvHjuAhrDxVb-58" value="Log Out" style="verticalLabelPosition=middle;verticalAlign=middle;html=1;shape=process;whiteSpace=wrap;rounded=1;size=0.14;arcSize=6;strokeColor=#33001A;strokeWidth=2;fillColor=#FFFFFF;fontColor=none;labelPosition=center;align=center;" parent="rY8muTHWtvHjuAhrDxVb-1" vertex="1">
          <mxGeometry x="360" y="1580" width="100" height="60" as="geometry" />
        </mxCell>
        <mxCell id="rY8muTHWtvHjuAhrDxVb-59" value="" style="endArrow=classic;html=1;fontColor=none;exitX=0.5;exitY=1;exitDx=0;exitDy=0;" parent="rY8muTHWtvHjuAhrDxVb-1" edge="1">
          <mxGeometry width="50" height="50" relative="1" as="geometry">
            <mxPoint x="409" y="1640" as="sourcePoint" />
            <mxPoint x="409" y="1670" as="targetPoint" />
          </mxGeometry>
        </mxCell>
        <mxCell id="rY8muTHWtvHjuAhrDxVb-60" value="End" style="strokeWidth=2;html=1;shape=mxgraph.flowchart.start_2;whiteSpace=wrap;fillColor=#FFFFFF;fontColor=none;" parent="rY8muTHWtvHjuAhrDxVb-1" vertex="1">
          <mxGeometry x="365" y="1670" width="90" height="50" as="geometry" />
        </mxCell>
      </root>
    </mxGraphModel>
  </diagram>
  <diagram id="aQbcwNLAtntBmrh6W2RR" name="Flowchart Admin">
    <mxGraphModel dx="782" dy="514" grid="1" gridSize="10" guides="1" tooltips="1" connect="1" arrows="1" fold="1" page="1" pageScale="1" pageWidth="850" pageHeight="1100" math="0" shadow="0">
      <root>
        <mxCell id="mSpxo83AfzKPzWcdPctY-0" />
        <mxCell id="mSpxo83AfzKPzWcdPctY-1" parent="mSpxo83AfzKPzWcdPctY-0" />
        <mxCell id="1LlhtynBCK85CpFQ7kyY-0" value="" style="group;fontStyle=4" parent="mSpxo83AfzKPzWcdPctY-1" vertex="1" connectable="0">
          <mxGeometry x="260" y="320" width="350" height="800" as="geometry" />
        </mxCell>
        <mxCell id="1LlhtynBCK85CpFQ7kyY-1" value="Login" style="rounded=1;whiteSpace=wrap;html=1;fontSize=12;glass=0;strokeWidth=1;shadow=0;" parent="1LlhtynBCK85CpFQ7kyY-0" vertex="1">
          <mxGeometry x="50" y="100" width="120" height="40" as="geometry" />
        </mxCell>
        <mxCell id="1LlhtynBCK85CpFQ7kyY-2" value="Start" style="strokeWidth=2;html=1;shape=mxgraph.flowchart.start_1;whiteSpace=wrap;" parent="1LlhtynBCK85CpFQ7kyY-0" vertex="1">
          <mxGeometry x="60" width="100" height="60" as="geometry" />
        </mxCell>
        <mxCell id="1LlhtynBCK85CpFQ7kyY-3" value="" style="endArrow=classic;html=1;exitX=0.5;exitY=1;exitDx=0;exitDy=0;" parent="1LlhtynBCK85CpFQ7kyY-0" edge="1">
          <mxGeometry width="50" height="50" relative="1" as="geometry">
            <mxPoint x="110" y="362" as="sourcePoint" />
            <mxPoint x="110" y="410" as="targetPoint" />
          </mxGeometry>
        </mxCell>
        <mxCell id="1LlhtynBCK85CpFQ7kyY-4" value="Dashboard" style="rounded=1;whiteSpace=wrap;html=1;fontSize=12;glass=0;strokeWidth=1;shadow=0;fontColor=#330000;strokeColor=#330000;" parent="1LlhtynBCK85CpFQ7kyY-0" vertex="1">
          <mxGeometry x="50" y="190" width="120" height="40" as="geometry" />
        </mxCell>
        <mxCell id="1LlhtynBCK85CpFQ7kyY-5" value="Kelola&lt;br&gt;Produk" style="strokeWidth=2;html=1;shape=mxgraph.flowchart.decision;whiteSpace=wrap;fillColor=#FFFFFF;strokeColor=#330000;" parent="1LlhtynBCK85CpFQ7kyY-0" vertex="1">
          <mxGeometry x="60" y="270" width="100" height="100" as="geometry" />
        </mxCell>
        <mxCell id="1LlhtynBCK85CpFQ7kyY-6" value="Kelola &lt;br&gt;Invoice" style="strokeWidth=2;html=1;shape=mxgraph.flowchart.decision;whiteSpace=wrap;fillColor=#FFFFFF;strokeColor=#330000;" parent="1LlhtynBCK85CpFQ7kyY-0" vertex="1">
          <mxGeometry x="60" y="410" width="100" height="100" as="geometry" />
        </mxCell>
        <mxCell id="1LlhtynBCK85CpFQ7kyY-7" value="Kelola&lt;br&gt;Kain" style="strokeWidth=2;html=1;shape=mxgraph.flowchart.decision;whiteSpace=wrap;fillColor=#FFFFFF;strokeColor=#330000;" parent="1LlhtynBCK85CpFQ7kyY-0" vertex="1">
          <mxGeometry x="60" y="560" width="100" height="100" as="geometry" />
        </mxCell>
        <mxCell id="1LlhtynBCK85CpFQ7kyY-8" value="Kelola&lt;br&gt;Ukuran" style="strokeWidth=2;html=1;shape=mxgraph.flowchart.decision;whiteSpace=wrap;fillColor=#FFFFFF;strokeColor=#330000;" parent="1LlhtynBCK85CpFQ7kyY-0" vertex="1">
          <mxGeometry x="60" y="700" width="100" height="100" as="geometry" />
        </mxCell>
        <mxCell id="1LlhtynBCK85CpFQ7kyY-9" value="Tampil Data Produk" style="shape=parallelogram;html=1;strokeWidth=2;perimeter=parallelogramPerimeter;whiteSpace=wrap;rounded=1;arcSize=12;size=0.23;" parent="1LlhtynBCK85CpFQ7kyY-0" vertex="1">
          <mxGeometry x="194" y="290" width="100" height="60" as="geometry" />
        </mxCell>
        <mxCell id="1LlhtynBCK85CpFQ7kyY-10" value="" style="endArrow=classic;html=1;exitX=1;exitY=0.5;exitDx=0;exitDy=0;exitPerimeter=0;" parent="1LlhtynBCK85CpFQ7kyY-0" source="1LlhtynBCK85CpFQ7kyY-5" target="1LlhtynBCK85CpFQ7kyY-9" edge="1">
          <mxGeometry width="50" height="50" relative="1" as="geometry">
            <mxPoint x="250" y="320" as="sourcePoint" />
            <mxPoint x="240" y="320" as="targetPoint" />
          </mxGeometry>
        </mxCell>
        <mxCell id="1LlhtynBCK85CpFQ7kyY-11" value="Tampil Data Invoice" style="shape=parallelogram;html=1;strokeWidth=2;perimeter=parallelogramPerimeter;whiteSpace=wrap;rounded=1;arcSize=12;size=0.23;" parent="1LlhtynBCK85CpFQ7kyY-0" vertex="1">
          <mxGeometry x="194" y="430" width="100" height="60" as="geometry" />
        </mxCell>
        <mxCell id="1LlhtynBCK85CpFQ7kyY-12" value="" style="endArrow=classic;html=1;exitX=1;exitY=0.5;exitDx=0;exitDy=0;exitPerimeter=0;" parent="1LlhtynBCK85CpFQ7kyY-0" target="1LlhtynBCK85CpFQ7kyY-11" edge="1">
          <mxGeometry width="50" height="50" relative="1" as="geometry">
            <mxPoint x="160" y="460" as="sourcePoint" />
            <mxPoint x="120" y="210" as="targetPoint" />
          </mxGeometry>
        </mxCell>
        <mxCell id="1LlhtynBCK85CpFQ7kyY-13" value="Tampil Data &lt;br&gt;Kain" style="shape=parallelogram;html=1;strokeWidth=2;perimeter=parallelogramPerimeter;whiteSpace=wrap;rounded=1;arcSize=12;size=0.23;" parent="1LlhtynBCK85CpFQ7kyY-0" vertex="1">
          <mxGeometry x="194" y="580" width="100" height="60" as="geometry" />
        </mxCell>
        <mxCell id="1LlhtynBCK85CpFQ7kyY-14" value="" style="endArrow=classic;html=1;exitX=1;exitY=0.5;exitDx=0;exitDy=0;exitPerimeter=0;" parent="1LlhtynBCK85CpFQ7kyY-0" target="1LlhtynBCK85CpFQ7kyY-13" edge="1">
          <mxGeometry width="50" height="50" relative="1" as="geometry">
            <mxPoint x="160" y="610" as="sourcePoint" />
            <mxPoint x="120" y="360" as="targetPoint" />
          </mxGeometry>
        </mxCell>
        <mxCell id="1LlhtynBCK85CpFQ7kyY-15" value="Tampil Data&lt;br&gt;Ukuran" style="shape=parallelogram;html=1;strokeWidth=2;perimeter=parallelogramPerimeter;whiteSpace=wrap;rounded=1;arcSize=12;size=0.23;" parent="1LlhtynBCK85CpFQ7kyY-0" vertex="1">
          <mxGeometry x="194" y="720" width="100" height="60" as="geometry" />
        </mxCell>
        <mxCell id="1LlhtynBCK85CpFQ7kyY-16" value="" style="endArrow=classic;html=1;exitX=1;exitY=0.5;exitDx=0;exitDy=0;exitPerimeter=0;" parent="1LlhtynBCK85CpFQ7kyY-0" target="1LlhtynBCK85CpFQ7kyY-15" edge="1">
          <mxGeometry width="50" height="50" relative="1" as="geometry">
            <mxPoint x="160" y="750" as="sourcePoint" />
            <mxPoint x="120" y="500" as="targetPoint" />
          </mxGeometry>
        </mxCell>
        <mxCell id="1LlhtynBCK85CpFQ7kyY-17" value="" style="endArrow=classic;html=1;" parent="1LlhtynBCK85CpFQ7kyY-0" edge="1">
          <mxGeometry width="50" height="50" relative="1" as="geometry">
            <mxPoint x="280" y="459.5" as="sourcePoint" />
            <mxPoint x="337.5" y="459.5" as="targetPoint" />
          </mxGeometry>
        </mxCell>
        <mxCell id="1LlhtynBCK85CpFQ7kyY-18" value="" style="endArrow=classic;html=1;" parent="1LlhtynBCK85CpFQ7kyY-0" edge="1">
          <mxGeometry width="50" height="50" relative="1" as="geometry">
            <mxPoint x="281" y="609.5" as="sourcePoint" />
            <mxPoint x="338.5" y="609.5" as="targetPoint" />
          </mxGeometry>
        </mxCell>
        <mxCell id="1LlhtynBCK85CpFQ7kyY-19" value="" style="endArrow=classic;html=1;" parent="1LlhtynBCK85CpFQ7kyY-0" edge="1">
          <mxGeometry width="50" height="50" relative="1" as="geometry">
            <mxPoint x="281" y="749.5" as="sourcePoint" />
            <mxPoint x="338.5" y="749.5" as="targetPoint" />
          </mxGeometry>
        </mxCell>
        <mxCell id="1LlhtynBCK85CpFQ7kyY-20" value="&lt;font style=&quot;font-size: 17px&quot; color=&quot;#f0aa69&quot;&gt;Flowchart Admin&lt;/font&gt;" style="text;html=1;align=center;verticalAlign=middle;whiteSpace=wrap;rounded=0;fontColor=#333333;strokeColor=#330000;fillColor=#33001A;" parent="mSpxo83AfzKPzWcdPctY-1" vertex="1">
          <mxGeometry x="190" y="280" width="190" height="20" as="geometry" />
        </mxCell>
        <mxCell id="1LlhtynBCK85CpFQ7kyY-21" value="" style="endArrow=classic;html=1;exitX=0.5;exitY=1;exitDx=0;exitDy=0;" parent="mSpxo83AfzKPzWcdPctY-1" source="1LlhtynBCK85CpFQ7kyY-1" edge="1">
          <mxGeometry width="50" height="50" relative="1" as="geometry">
            <mxPoint x="680" y="620" as="sourcePoint" />
            <mxPoint x="370" y="500" as="targetPoint" />
          </mxGeometry>
        </mxCell>
        <mxCell id="1LlhtynBCK85CpFQ7kyY-22" value="" style="endArrow=classic;html=1;entryX=0.425;entryY=0;entryDx=0;entryDy=0;entryPerimeter=0;" parent="mSpxo83AfzKPzWcdPctY-1" edge="1">
          <mxGeometry width="50" height="50" relative="1" as="geometry">
            <mxPoint x="369" y="381" as="sourcePoint" />
            <mxPoint x="370" y="421" as="targetPoint" />
          </mxGeometry>
        </mxCell>
        <mxCell id="1LlhtynBCK85CpFQ7kyY-23" value="" style="endArrow=classic;html=1;" parent="mSpxo83AfzKPzWcdPctY-1" source="1LlhtynBCK85CpFQ7kyY-4" edge="1">
          <mxGeometry width="50" height="50" relative="1" as="geometry">
            <mxPoint x="550" y="620" as="sourcePoint" />
            <mxPoint x="370" y="590" as="targetPoint" />
          </mxGeometry>
        </mxCell>
        <mxCell id="1LlhtynBCK85CpFQ7kyY-24" value="" style="endArrow=classic;html=1;exitX=0.5;exitY=1;exitDx=0;exitDy=0;exitPerimeter=0;" parent="mSpxo83AfzKPzWcdPctY-1" source="1LlhtynBCK85CpFQ7kyY-6" edge="1">
          <mxGeometry width="50" height="50" relative="1" as="geometry">
            <mxPoint x="510" y="820" as="sourcePoint" />
            <mxPoint x="370" y="880" as="targetPoint" />
          </mxGeometry>
        </mxCell>
        <mxCell id="1LlhtynBCK85CpFQ7kyY-25" value="" style="endArrow=classic;html=1;exitX=0.5;exitY=1;exitDx=0;exitDy=0;exitPerimeter=0;" parent="mSpxo83AfzKPzWcdPctY-1" source="1LlhtynBCK85CpFQ7kyY-7" edge="1">
          <mxGeometry width="50" height="50" relative="1" as="geometry">
            <mxPoint x="510" y="820" as="sourcePoint" />
            <mxPoint x="370" y="1020" as="targetPoint" />
          </mxGeometry>
        </mxCell>
        <mxCell id="1LlhtynBCK85CpFQ7kyY-26" value="" style="endArrow=classic;html=1;exitX=0.5;exitY=1;exitDx=0;exitDy=0;exitPerimeter=0;" parent="mSpxo83AfzKPzWcdPctY-1" source="1LlhtynBCK85CpFQ7kyY-8" edge="1">
          <mxGeometry width="50" height="50" relative="1" as="geometry">
            <mxPoint x="510" y="1020" as="sourcePoint" />
            <mxPoint x="370" y="1160" as="targetPoint" />
          </mxGeometry>
        </mxCell>
        <mxCell id="1LlhtynBCK85CpFQ7kyY-27" value="Kelola&lt;br&gt;Pengiriman" style="strokeWidth=2;html=1;shape=mxgraph.flowchart.decision;whiteSpace=wrap;fillColor=#FFFFFF;strokeColor=#330000;" parent="mSpxo83AfzKPzWcdPctY-1" vertex="1">
          <mxGeometry x="320" y="1160" width="100" height="100" as="geometry" />
        </mxCell>
        <mxCell id="1LlhtynBCK85CpFQ7kyY-28" value="" style="endArrow=classic;html=1;exitX=0.5;exitY=1;exitDx=0;exitDy=0;exitPerimeter=0;" parent="mSpxo83AfzKPzWcdPctY-1" source="1LlhtynBCK85CpFQ7kyY-27" edge="1">
          <mxGeometry width="50" height="50" relative="1" as="geometry">
            <mxPoint x="510" y="1020" as="sourcePoint" />
            <mxPoint x="370" y="1300" as="targetPoint" />
          </mxGeometry>
        </mxCell>
        <mxCell id="1LlhtynBCK85CpFQ7kyY-29" value="Data&lt;br&gt;Pembayaran" style="strokeWidth=2;html=1;shape=mxgraph.flowchart.decision;whiteSpace=wrap;fillColor=#FFFFFF;strokeColor=#330000;" parent="mSpxo83AfzKPzWcdPctY-1" vertex="1">
          <mxGeometry x="320" y="1300" width="100" height="100" as="geometry" />
        </mxCell>
        <mxCell id="1LlhtynBCK85CpFQ7kyY-30" value="" style="endArrow=classic;html=1;exitX=0.5;exitY=1;exitDx=0;exitDy=0;exitPerimeter=0;" parent="mSpxo83AfzKPzWcdPctY-1" source="1LlhtynBCK85CpFQ7kyY-29" edge="1">
          <mxGeometry width="50" height="50" relative="1" as="geometry">
            <mxPoint x="510" y="1380" as="sourcePoint" />
            <mxPoint x="370" y="1450" as="targetPoint" />
          </mxGeometry>
        </mxCell>
        <mxCell id="1LlhtynBCK85CpFQ7kyY-31" value="Laporan" style="strokeWidth=2;html=1;shape=mxgraph.flowchart.decision;whiteSpace=wrap;fillColor=#FFFFFF;strokeColor=#330000;" parent="mSpxo83AfzKPzWcdPctY-1" vertex="1">
          <mxGeometry x="320" y="1450" width="100" height="100" as="geometry" />
        </mxCell>
        <mxCell id="1LlhtynBCK85CpFQ7kyY-32" value="" style="endArrow=classic;html=1;exitX=0.5;exitY=1;exitDx=0;exitDy=0;exitPerimeter=0;" parent="mSpxo83AfzKPzWcdPctY-1" source="1LlhtynBCK85CpFQ7kyY-31" edge="1">
          <mxGeometry width="50" height="50" relative="1" as="geometry">
            <mxPoint x="510" y="1340" as="sourcePoint" />
            <mxPoint x="370" y="1590" as="targetPoint" />
          </mxGeometry>
        </mxCell>
        <mxCell id="1LlhtynBCK85CpFQ7kyY-33" value="Tampil Data&lt;br&gt;Pengiriman&lt;span style=&quot;color: rgba(0 , 0 , 0 , 0) ; font-family: monospace ; font-size: 0px&quot;&gt;%3CmxGraphModel%3E%3Croot%3E%3CmxCell%20id%3D%220%22%2F%3E%3CmxCell%20id%3D%221%22%20parent%3D%220%22%2F%3E%3CmxCell%20id%3D%222%22%20value%3D%22Tampil%20Data%20Produk%22%20style%3D%22shape%3Dparallelogram%3Bhtml%3D1%3BstrokeWidth%3D2%3Bperimeter%3DparallelogramPerimeter%3BwhiteSpace%3Dwrap%3Brounded%3D1%3BarcSize%3D12%3Bsize%3D0.23%3B%22%20vertex%3D%221%22%20parent%3D%221%22%3E%3CmxGeometry%20x%3D%22314%22%20y%3D%22540%22%20width%3D%22100%22%20height%3D%2260%22%20as%3D%22geometry%22%2F%3E%3C%2FmxCell%3E%3CmxCell%20id%3D%223%22%20value%3D%22%22%20style%3D%22endArrow%3Dclassic%3Bhtml%3D1%3BexitX%3D1%3BexitY%3D0.5%3BexitDx%3D0%3BexitDy%3D0%3BexitPerimeter%3D0%3B%22%20edge%3D%221%22%20target%3D%222%22%20parent%3D%221%22%3E%3CmxGeometry%20width%3D%2250%22%20height%3D%2250%22%20relative%3D%221%22%20as%3D%22geometry%22%3E%3CmxPoint%20x%3D%22280%22%20y%3D%22570%22%20as%3D%22sourcePoint%22%2F%3E%3CmxPoint%20x%3D%22240%22%20y%3D%22320%22%20as%3D%22targetPoint%22%2F%3E%3C%2FmxGeometry%3E%3C%2FmxCell%3E%3C%2Froot%3E%3C%2FmxGraphModel%3E&lt;/span&gt;" style="shape=parallelogram;html=1;strokeWidth=2;perimeter=parallelogramPerimeter;whiteSpace=wrap;rounded=1;arcSize=12;size=0.23;" parent="mSpxo83AfzKPzWcdPctY-1" vertex="1">
          <mxGeometry x="454" y="1180" width="100" height="60" as="geometry" />
        </mxCell>
        <mxCell id="1LlhtynBCK85CpFQ7kyY-34" value="" style="endArrow=classic;html=1;exitX=1;exitY=0.5;exitDx=0;exitDy=0;exitPerimeter=0;" parent="mSpxo83AfzKPzWcdPctY-1" target="1LlhtynBCK85CpFQ7kyY-33" edge="1">
          <mxGeometry width="50" height="50" relative="1" as="geometry">
            <mxPoint x="420" y="1210" as="sourcePoint" />
            <mxPoint x="380" y="960" as="targetPoint" />
          </mxGeometry>
        </mxCell>
        <mxCell id="1LlhtynBCK85CpFQ7kyY-35" value="Tampil Data&lt;br&gt;Pembayaran" style="shape=parallelogram;html=1;strokeWidth=2;perimeter=parallelogramPerimeter;whiteSpace=wrap;rounded=1;arcSize=12;size=0.23;" parent="mSpxo83AfzKPzWcdPctY-1" vertex="1">
          <mxGeometry x="454" y="1320" width="100" height="60" as="geometry" />
        </mxCell>
        <mxCell id="1LlhtynBCK85CpFQ7kyY-36" value="" style="endArrow=classic;html=1;" parent="mSpxo83AfzKPzWcdPctY-1" target="1LlhtynBCK85CpFQ7kyY-35" edge="1">
          <mxGeometry width="50" height="50" relative="1" as="geometry">
            <mxPoint x="420" y="1350" as="sourcePoint" />
            <mxPoint x="370" y="1100" as="targetPoint" />
          </mxGeometry>
        </mxCell>
        <mxCell id="1LlhtynBCK85CpFQ7kyY-37" value="Tampil Data&lt;br&gt;Laporan" style="shape=parallelogram;html=1;strokeWidth=2;perimeter=parallelogramPerimeter;whiteSpace=wrap;rounded=1;arcSize=12;size=0.23;" parent="mSpxo83AfzKPzWcdPctY-1" vertex="1">
          <mxGeometry x="454" y="1470" width="100" height="60" as="geometry" />
        </mxCell>
        <mxCell id="1LlhtynBCK85CpFQ7kyY-38" value="" style="endArrow=classic;html=1;exitX=1;exitY=0.5;exitDx=0;exitDy=0;exitPerimeter=0;" parent="mSpxo83AfzKPzWcdPctY-1" target="1LlhtynBCK85CpFQ7kyY-37" edge="1">
          <mxGeometry width="50" height="50" relative="1" as="geometry">
            <mxPoint x="420" y="1500" as="sourcePoint" />
            <mxPoint x="380" y="1250" as="targetPoint" />
          </mxGeometry>
        </mxCell>
        <mxCell id="1LlhtynBCK85CpFQ7kyY-39" value="" style="endArrow=classic;html=1;" parent="mSpxo83AfzKPzWcdPctY-1" source="1LlhtynBCK85CpFQ7kyY-9" edge="1">
          <mxGeometry width="50" height="50" relative="1" as="geometry">
            <mxPoint x="510" y="1000" as="sourcePoint" />
            <mxPoint x="600" y="640" as="targetPoint" />
          </mxGeometry>
        </mxCell>
        <mxCell id="1LlhtynBCK85CpFQ7kyY-40" value="Data &lt;br&gt;Produk" style="strokeWidth=2;html=1;shape=mxgraph.flowchart.direct_data;whiteSpace=wrap;fillColor=#FFFFFF;fontColor=none;" parent="mSpxo83AfzKPzWcdPctY-1" vertex="1">
          <mxGeometry x="600" y="610" width="100" height="60" as="geometry" />
        </mxCell>
        <mxCell id="1LlhtynBCK85CpFQ7kyY-41" value="Data&amp;nbsp;&lt;br&gt;Invoice" style="strokeWidth=2;html=1;shape=mxgraph.flowchart.direct_data;whiteSpace=wrap;fillColor=#FFFFFF;fontColor=none;" parent="mSpxo83AfzKPzWcdPctY-1" vertex="1">
          <mxGeometry x="598" y="750" width="100" height="60" as="geometry" />
        </mxCell>
        <mxCell id="1LlhtynBCK85CpFQ7kyY-42" value="Data&lt;br&gt;Kain" style="strokeWidth=2;html=1;shape=mxgraph.flowchart.direct_data;whiteSpace=wrap;fillColor=#FFFFFF;fontColor=none;" parent="mSpxo83AfzKPzWcdPctY-1" vertex="1">
          <mxGeometry x="599" y="900" width="100" height="60" as="geometry" />
        </mxCell>
        <mxCell id="1LlhtynBCK85CpFQ7kyY-43" value="Data&lt;br&gt;Ukuran" style="strokeWidth=2;html=1;shape=mxgraph.flowchart.direct_data;whiteSpace=wrap;fillColor=#FFFFFF;fontColor=none;" parent="mSpxo83AfzKPzWcdPctY-1" vertex="1">
          <mxGeometry x="600" y="1040" width="100" height="60" as="geometry" />
        </mxCell>
        <mxCell id="1LlhtynBCK85CpFQ7kyY-44" value="" style="endArrow=classic;html=1;" parent="mSpxo83AfzKPzWcdPctY-1" edge="1">
          <mxGeometry width="50" height="50" relative="1" as="geometry">
            <mxPoint x="540.5" y="1209.5" as="sourcePoint" />
            <mxPoint x="598" y="1209.5" as="targetPoint" />
          </mxGeometry>
        </mxCell>
        <mxCell id="1LlhtynBCK85CpFQ7kyY-45" value="&lt;div&gt;&lt;span&gt;Data&lt;/span&gt;&lt;/div&gt;&lt;div&gt;&lt;span&gt;Pengiriman&lt;/span&gt;&lt;/div&gt;" style="strokeWidth=2;html=1;shape=mxgraph.flowchart.direct_data;whiteSpace=wrap;fillColor=#FFFFFF;fontColor=none;align=center;" parent="mSpxo83AfzKPzWcdPctY-1" vertex="1">
          <mxGeometry x="599" y="1180" width="100" height="60" as="geometry" />
        </mxCell>
        <mxCell id="1LlhtynBCK85CpFQ7kyY-46" value="" style="endArrow=classic;html=1;" parent="mSpxo83AfzKPzWcdPctY-1" edge="1">
          <mxGeometry width="50" height="50" relative="1" as="geometry">
            <mxPoint x="542.5" y="1350" as="sourcePoint" />
            <mxPoint x="600" y="1350" as="targetPoint" />
          </mxGeometry>
        </mxCell>
        <mxCell id="1LlhtynBCK85CpFQ7kyY-47" value="Data &lt;br&gt;Pembayaran" style="strokeWidth=2;html=1;shape=mxgraph.flowchart.direct_data;whiteSpace=wrap;fillColor=#FFFFFF;fontColor=none;" parent="mSpxo83AfzKPzWcdPctY-1" vertex="1">
          <mxGeometry x="600" y="1320" width="100" height="60" as="geometry" />
        </mxCell>
        <mxCell id="1LlhtynBCK85CpFQ7kyY-48" value="" style="endArrow=classic;html=1;" parent="mSpxo83AfzKPzWcdPctY-1" edge="1">
          <mxGeometry width="50" height="50" relative="1" as="geometry">
            <mxPoint x="542.5" y="1499.5" as="sourcePoint" />
            <mxPoint x="600" y="1499.5" as="targetPoint" />
          </mxGeometry>
        </mxCell>
        <mxCell id="1LlhtynBCK85CpFQ7kyY-49" value="Data Laporan" style="strokeWidth=2;html=1;shape=mxgraph.flowchart.direct_data;whiteSpace=wrap;fillColor=#FFFFFF;fontColor=none;" parent="mSpxo83AfzKPzWcdPctY-1" vertex="1">
          <mxGeometry x="600" y="1470" width="100" height="60" as="geometry" />
        </mxCell>
        <mxCell id="1LlhtynBCK85CpFQ7kyY-50" value="" style="strokeWidth=2;html=1;shape=mxgraph.flowchart.annotation_1;align=left;pointerEvents=1;fillColor=#FFFFFF;fontColor=none;direction=west;" parent="mSpxo83AfzKPzWcdPctY-1" vertex="1">
          <mxGeometry x="700" y="640" width="120" height="860" as="geometry" />
        </mxCell>
        <mxCell id="1LlhtynBCK85CpFQ7kyY-51" value="" style="line;strokeWidth=2;direction=west;html=1;fillColor=#FFFFFF;fontColor=none;flipV=1;" parent="mSpxo83AfzKPzWcdPctY-1" vertex="1">
          <mxGeometry x="698" y="775" width="122" height="10" as="geometry" />
        </mxCell>
        <mxCell id="1LlhtynBCK85CpFQ7kyY-52" value="" style="line;strokeWidth=2;direction=west;html=1;fillColor=#FFFFFF;fontColor=none;flipV=1;" parent="mSpxo83AfzKPzWcdPctY-1" vertex="1">
          <mxGeometry x="698" y="1065" width="122" height="10" as="geometry" />
        </mxCell>
        <mxCell id="1LlhtynBCK85CpFQ7kyY-53" value="" style="line;strokeWidth=2;direction=west;html=1;fillColor=#FFFFFF;fontColor=none;flipV=1;" parent="mSpxo83AfzKPzWcdPctY-1" vertex="1">
          <mxGeometry x="700" y="1345" width="122" height="10" as="geometry" />
        </mxCell>
        <mxCell id="1LlhtynBCK85CpFQ7kyY-54" value="" style="line;strokeWidth=2;direction=west;html=1;fillColor=#FFFFFF;fontColor=none;flipV=1;" parent="mSpxo83AfzKPzWcdPctY-1" vertex="1">
          <mxGeometry x="700" y="1205" width="122" height="10" as="geometry" />
        </mxCell>
        <mxCell id="1LlhtynBCK85CpFQ7kyY-55" value="" style="line;strokeWidth=2;direction=west;html=1;fillColor=#FFFFFF;fontColor=none;flipV=1;" parent="mSpxo83AfzKPzWcdPctY-1" vertex="1">
          <mxGeometry x="700" y="930" width="122" height="10" as="geometry" />
        </mxCell>
        <mxCell id="1LlhtynBCK85CpFQ7kyY-56" value="Log Out" style="verticalLabelPosition=middle;verticalAlign=middle;html=1;shape=process;whiteSpace=wrap;rounded=1;size=0.14;arcSize=6;strokeColor=#33001A;strokeWidth=2;fillColor=#FFFFFF;fontColor=none;labelPosition=center;align=center;" parent="mSpxo83AfzKPzWcdPctY-1" vertex="1">
          <mxGeometry x="320" y="1590" width="100" height="60" as="geometry" />
        </mxCell>
        <mxCell id="1LlhtynBCK85CpFQ7kyY-57" value="" style="endArrow=classic;html=1;fontColor=none;exitX=0.5;exitY=1;exitDx=0;exitDy=0;" parent="mSpxo83AfzKPzWcdPctY-1" edge="1">
          <mxGeometry width="50" height="50" relative="1" as="geometry">
            <mxPoint x="369" y="1650" as="sourcePoint" />
            <mxPoint x="369" y="1680" as="targetPoint" />
          </mxGeometry>
        </mxCell>
        <mxCell id="1LlhtynBCK85CpFQ7kyY-58" value="End" style="strokeWidth=2;html=1;shape=mxgraph.flowchart.start_2;whiteSpace=wrap;fillColor=#FFFFFF;fontColor=none;" parent="mSpxo83AfzKPzWcdPctY-1" vertex="1">
          <mxGeometry x="325" y="1680" width="90" height="50" as="geometry" />
        </mxCell>
      </root>
    </mxGraphModel>
  </diagram>
  <diagram id="5qqlvW0JU_H86WeKdr7x" name="Rev-Flowchart Pelanggan">
    <mxGraphModel dx="782" dy="514" grid="1" gridSize="10" guides="1" tooltips="1" connect="1" arrows="1" fold="1" page="1" pageScale="1" pageWidth="850" pageHeight="1100" math="0" shadow="0">
      <root>
        <mxCell id="lbqvEXlQA2vBiY7xVLAV-0" />
        <mxCell id="lbqvEXlQA2vBiY7xVLAV-1" parent="lbqvEXlQA2vBiY7xVLAV-0" />
        <mxCell id="uGhXFhTw-lrbboWo2I-7-1" value="" style="shape=image;verticalLabelPosition=bottom;labelBackgroundColor=#ffffff;verticalAlign=top;aspect=fixed;imageAspect=0;image=data:image/png,iVBORw0KGgoAAAANSUhEUgAAARMAAAIICAYAAABNUAp9AAAAAXNSR0IArs4c6QAAIABJREFUeF7tnQm4TeX3xxcyD0nmKUNCxqJklpIyp8GUKQ2GQhopVBo1kVREISFSKGUIyTyGUDLPRIQQGv7PZ/3+RxLu2ffufc7Z+6z3ec5zuXfvd/iuvb9nTe96k5W7ovjf8vufYi3ACCQTaX9Py9vueeqpvwK8SltalBFIVi735X/LrmNRnoYN7ykCyUQ6Pf+AtO3e3dNhrPP4RsDIJB7kb2QSD1KO+hoTTSbp010kIsn+tYA///xLTp76S1KkSCanTrmrUadNc5Ec//0PTwBjvtkuTSt//fW3/Lz/uCdjRLVTI5Oowh8vgyeaTD54o6akTpXiXzitWLNfPvr0JylXOrtMmrbZNQxTpUohfR69Vh5/fkGi+syYPqU0vLmgjBz/03/uv6pkNuncrpRkyZxG/vr7b9m5+6j0enWRHDh4wvFYVSvkljmLdjm+z/MbjEw8h9gGEEk0mUz+sK70eHGRrFy7/1845s+TQSpfk0tGT1jvGr6Q1sAXqsk9j8xKVJ8F8mWSe5oVk6f6Lv7P/aPfriUD3v9e5i/do3+7v2UJyZU9nTz92hJHY2XJnFpq18jv6rodTeBCFxuZuAaldXR+BDwlk0svSSMj3rxBjh//U37adFD69Fsmg/vWkM+mbJJPv9wkt9TML8UKXyJvvLdSZzj4lRrS4fHZ0vrOYlK/VgH93SdfbJRPJm9UMpn6zTa5s0ERSZfmImnaYaocOXpKatfIJx1alZRTf/wtf/zxl7Ts/LX+7PdsFcmdI72kSZ1CzZc0aS6SjydukA8+/uE0Gr0eKi9rfzqo/YfaRRcl13t+O3pKpo1uIB2e+EY2bj2sf37ovjLS772V0vqOYtKgdkHtd8KUTfLVzG3yZp+qcnGmVLJp62F55Nl50u2+slKuTHZJl/Yi6dJzjmzYckg6tikpG7cclnbNikv6dCmlTdcZ0rNrebksX0b5aPw6Gfv5RkmVMrm8/3pNSZP6ItWUHnl2vmzbeURmjG0oO3b9puZYqy4zZP8BB+aYkYlxQAQQSBKZbNl+RI78dur0NJ94YYGENJPp326XIa9eL116zZVtO3+Tu5sWk1zZ08tbH6ySRrcUkmEf/6jEwovLy9GodkEpXSKrvPDmUn0RBw77XuRvUVJ44Mk5Sib87rvV+6XXQ9dIxgwp5dE+82X8kJul7UMz5fCRk0pC+XOnV9Li5Xvq5UWyYfOvcnGm1NK2aTHp1Xex/PnX36fnO/GDOkouE6ac2yQ7F5l88PGP8sHrNaV5p+ly4uSfct9dV8qQUWvVTKpVLZ98PHG9PPFAOTl56k/p+/Z3ikf/Z6vq9cyhXKns0qnHbGlcp5DcVrew3P/YNwKBDe9/g9zc/HN5oft1MnPuTvl6znYpWjizPNbxarm720xdz8eTNiih7tpzVE794cAnZWQSgVfJhkgSmYyZsEEglFCbs3jXaTKZt2S3vNi9orR4YLr+OXkykYEvVpfOT82RjwbW0m/ld16qLlNmbdOXpM9jFWTKrK1yY9W8snTlPvl8+pbT/Z5t5jza4SrJlSOddHt6nuTJmV6uKJRZr725Zn4pkCejNOkwTYb1u0HaP/6N/H7iTzmfmTP+vZvlw/HrHJHJwGGrBY0mR7Z0MurTn2TPvmPyw/qDEjJzxkxcL289X02efm2x7Pvld53Xg3eXVtJqdUdRJT18NzdWyycdW5eUxu2+kuTJksnkkfWkQevJ8vnwuvLOiNV6XfLkyfQezLspH9WX5/ovlVnzdjp/ao1MnGNmdzhGIElkciGfCWTyQveKctf/kwkzG/RyDXngqW+lY6uS8sWMrdKwdgHZuv03qXZdLsmQPpW0e3im9HumisyYuyNsMpk6qr68NHC5zFu8W2pfn1/uuvUKJROIqnPPORpVOh+Z1LuxgGTKmFJGffaPfweNZ+hrNaVJ+6kydVQD6dh9tpooITPnjcEr9SVPeVEyaX5rUWl2axF5+Jm56rjFZxIikydfXiS/HvqfExfzZsS4dUoMe34+pibemWSSLJnIlyPrK5l88t7Nqq0c+PV/REQjQoZmAkHNWbTbsZAJulmeiXPY7A5nCHhGJl/O2CqD+taQnn0Xy/rNv0rThkWkRNEs0rPvIrm7aXGpcm1Oef7N5XLs+Cn58M1a8skXG+TdD9eoj+H5J66Th3rP1ZW8+3IN9Tmc6YA9UzPp+1Qleey5+Xrty09WlBJXZJF6rSf/h0ye6nK13PPIN/9BZ1i/murzGDtpgxA1evj+snL0+B/Sf8hK9Zk833+pzF64Szq3K60hb8yz/s9WkbbdZsqff/6tPo8Va/fLzLk7pGnDK2To6LXy3OMVZMv2wzJk1A+C3+jtF6urJoaZkxCZPPHA1fL9jwfUF3NxxlTyxjNVTps5RibOHm67OrIIJJpMXulZSQaNXCMbNv/vWzvUcmRNJ6WKZ5Gv5+yQ6yvmljsaFBFyUg4eOiFde/2PIHhpX+5RUfq+s1x27z2mL+fgj9bKmnUH9O8QD+YODsiJUzbLtG+3qx/l5YHL9e/NGhWRrFnSaBTmpR7XSa4c6dV3s2P3b5I1S1p1gD7Svqz0G7JKnbGYJE91KSdoS2MmbvjXfAvmzyQP3VtGMmVIqU7cn/cf00gOPonL8mSUHl3KyUUpksu4zzeogxWTrFObUlLmykt1Hbt/PirdX1iofb79YjXZu++4PPP6EoHkcmRLK0eP/aH+D7SRW28ppBrH7AW7pHyZ7Pr/J19aKGgmr/SsLE88v0AyX5xKIEvmfOz4H/Lm0FXy44aDitH7Y378T/QsrMfFNJOwYLKLkoZAoskk3GH5NsfnQcLZ3//4PhO8nXv+/vtvVfEv1HgRSWjDN0J05XwtBU6bZKLaxNmNPoie4Jw9efLf+5RSpkyuPg2crWc2fg/JnJlIx1ppoTHQsrjvXGMmBABrwombmHv/u0AzcxLC2/6edAQ8J5OkT9F6SDICyUQeeOFBafPEE0nuyjowBM6HQLJBbw90oC8YkH5FoFmz5pIx8/+iXtYMAS8QSPY3toQ1Q8AQMASSiICRSRIBtNsNAUPgfwgYmdiTYAgYAq4gYGTiCozWiSFgCBiZ2DNgCBgCriBgZOIKjNaJIWAIGJnYM2AIGAKuIGBk4gqM1okhYAgYmdgzYAgYAq4gYGTiCozWiSFgCBiZ+OwZIGGZzx9//CF//slGwD/133/99Zf+O1myZJIiRQr9XHTRRad/Jk+eXFfK360ZAl4gYGTiBaou9BkijFOnTsnJkydl+/btsmLFCvn+++9l06ZN8vvvvwt/O/sDaaRMmVJSpUqlP0OfSy+9VEqWLCllypSRK6+8UjJmzHj6byGicWHa1kUcI2BkEkPCR7tAy9i5c6esWbNGFi9eLMuWLZPVq1fL8ePHJWvWrJI9e3aBGDJlyiQZMmSQiy++WH/ygSAgniNHjpz+HD58WH777Tc5ePCg7Nu3Tz/8v2DBglK2bFmpWLGi/ixatKikTZtWIBbTXmLoofDRVIxMoiwsNBBI5MSJEzJlyhQZOnSorFy5UiCBwoULS82aNaVatWqqVaRPn14/6dKl05c+3KZ1YU6elKNHj+pn//798u2338rs2bNl1qxZqqFAVHfeeae0atVK8ufPryaSkUq4CNt1akLbruHoPQi82JMmTZIvvvhC5s+fr6bJNddco9pC5cqV5fLLL9ffhXwgbs0UcsG/gol06NAhWbhwoY7Pz40bN0qRIkXk+uuvl2bNmum/jVTcQj7Y/RiZREG++DuWLl0qL774oixYsEBy5Mgh7du3l0aNGqmGgOYR6RcYcsEU+uGHH+Sll16SJUuWqAnVtWtXueOOOyRbtmwRn1MURGNDJgEBI5MkgJeYW3Givv766zJjxgzJkyePdOjQQU0Z/o1pEe2GyQXZ4av56KOP5NNPP1Vzq02bNtKyZUslOmuGwLkQMDKJ0HOB45OXc9iwYZIlSxb1T9StW1dy5coVEyRyLhgwgSC/UaNGyZw5c+Tqq6+Wzp07y7XXXhsh1GwYPyFgZOKxtPBPrF+/Xp544gn9tm/btq3ce++9qon4paGp4LB9/vnnNRrUrVs31VJSp07tlyXYPCOAgJGJhyBDJERLevXqpdGXxx57TE0aP5oKmD9bt26Vt99+W0aPHi133323PPLIIxqitmYIgICRiUfPAfkic+fOlUcffVSjMr1795YrrrjCUUjXo6klqdtff/1VxowZIwMGDJCbb75ZevbsKZmtUHWSMA3KzUYmHkgSjQSzgNAqfpEXXnhBoyFBaWgphLSJ9BCBIipFwpu1+EbAyMRl+Yd8JEQ/cK72799f8ubN6/Io0e8OzWvs2LHSpUsXNeOISsVCNCr6yMTvDIxMXJY9mas4Wffs2SPjx4/XHJJI54y4vKTzdkdWLVrJ+++/r8RCwp2TzNxIzdPGiQwCRiYu4oz6P3PmTLnrrrtkxIgRUqtWrcASSQg2Ij3NmzfXhLeJEyeaQ9bF58lvXRmZuCgxNtjxYuGQHDx4cNz4EdhThFmHdlK1atXAE6iLj0ygujIycVGc7G255ZZbZPLkybq/JqjmzdmQkYqPiUN056mnnvJl6NvFxyBuuzIycUn0OF5feeUVGTlypKbKexW9YXMepgVEFdrDw+/YEHi+FiptwO5grwhu+PDh8uabb+qmRRzP1uIPASMTl2TOC01mK3kYOF7Z6et2I72dvqlzAnnVqVNHKlWqpPtnGBuigDhoOEJDVdmoj4IpQgq/VzkhGzZs0DR7fEbUR7EWfwgYmbgkc6I4LVq0UHUfVd+LqAbp+PPmzVPiYLxBgwbpLuPnnntOhgwZokWT7rnnHv3J39CQyAeBQKhd8tZbb8ltt93m0or/3c3PP/8sVapUkTfeeENza6zFHwJGJi7JnIJDbNXnZe3UqZMn5gRaD1oIVdgwo/DPYFKwgZA8j0WLFmmWLSn8EMiPP/6om/Ny584tX375pUaZIB8v2i+//CI1atTQjF8KLFmLPwSMTFySOS8TZgROyIcfftgTzeTYsWNakQ1S2bVrlxYzgrwgivvvv1/GjRun4Vn+9uCDD8ru3bt1PmzI45qmTZt6ZuZAplSE6969u24CtBZ/CBiZuCRzzA7CwoUKFZJ+/fp5QiYUk16+fLmOQ1Ic4efWrVvLtGnTdOMdDmAS5nCGlihRQnbs2KHaC45Xr8kEAqtQoYK88847Uq9ePZdQtW78hICRiUvSwgFLtTTKHuLsTJMmjUs9/9MNWgnlFTFjcPDWrl1ba8Ni5hCKXrdunX5KlSqlNVMguHLlyulciDJxDf/3ouHPIUnvm2++kdKlS3sxhPUZ4wgYmbgoIPbhsJuWiAZFmeOp9enTR7766iv57LPPdAuBtfhDwMjERZlTVZ5vZyIpDRs29MTUcXG6rnV14MABDVGTBctOYi+0Mtcmax15hoCRiYvQcrYNkRwOzKKAkFeRExennOSuyGXheI6nn35aw9BEj6zFJwJGJi7KnRcL7YQ8ix49ekjHjh09CRG7OOUkd4Vfpnr16lK+fHnNY7FSjkmG1LcdGJm4LDqcpFQfw39AVIVsUC8S2FyedqK6I0T9+OOPa0YuIel8+fIFnjwTBVSc3GRk4oGgeckI0RKaJTOV6ErQCIUd0mgiZLy+99570qBBAyMSD54lP3VpZOKRtCi+TBIb1cfIvYBQvNpk59ESztstvqG+fftqcWk2991+++2e7EWK9LpsvKQhYGSSNPwuePe2bdt0rwyFg6gDS4aon30K+ITYNMheIHJpnnzySdXArFyjhw+Rj7o2MvFYWJg61EnlECsIhW9xjt30m5ZCUh5Hh7KJEScz5g3FpINmvnn8OAS6eyOTCIgXHwon+ZHQxkHgOGjZrk+ae6w3Shpw8BYmDVm0pOm//PLLuqHQizILsY6Hze/8CBiZROjpoJo7h4FzzjC7ezmMiw1xJHvF4jERmDSbN2/WjFbS9Skefd999+mOYK9qokRIFDaMRwgYmXgE7Pm6PXr0qIZS0U5Wr16tNVPxQbDHJha+6SERwttsDXj33Xflt99+00Q89h1lz57dzJoIPy9+Gs7IJArSwnQgBZ2DuvjWR2OpXLmybtzDSVugQIGIv7REaCi8xCZCMlkhNuqzNG7cWHdC+9lxHAURx+WQRiZRFDtaAHVQVqxYIRMmTNCfvNQFCxbUOiRXXXWVXHLJJeqw5eNG1AQioy4KJSD5kPo/depUdRDTKKRE2YLrr79e53Gh2rJRhM6GjkEEjExiQCiQChXeKTBEpIRt/NR63bt3r+TMmVNfcHbiFi9eXM0hfmJyhLP3B3KiH8LU1EOhShv/pnASNUggFGrJooGQC4ODGAKxKE0MPBg+m4KRSQwKDL8KNVV56amPQrHmTZs2ab4KPgyq0+MQhYQyZMigDlE0l0yZMqm/A4IggsRPQrpEjTBT0qdPr9dQ6pHD1AsXLqw/ISqvqunHILw2JY8QMDLxCFi3u0VzQcNAoyBUSzo7xBIyVyAaKq5RAAlygFwgmYwZM54mHEiEDwRkzRBwGwEjE7cRjWB/aCb4QCAaPkRdnn32WdUycKBiqpi5EkGBxPlQRiYBegDIA+EgcY66sGYIRBoBI5NII+7heEYmHoJrXSeIgJFJghD55wIjE//IKogzNTIJkFSNTAIkTB8uxcjEh0I735SNTAIkTB8uxcjEh0IzMgmQ0AK0FCOTAAnTNJMACdOHSzEy8aHQTDMJkNACtBQjkwAJ0zSTAAnTh0sxMvGh0EwzCZDQArQUI5MACdM0kwAJ04dLMTLxodBMMwmQ0AK0FCOTAAnTNJMACdOHSzEy8aHQTDMJkNACtBQjkwAJ0zSTAAnTh0sxMvGh0EwzCZDQArQUIxOfC5PyjJy0xwmBnP97//33a5U1ClFTkjEWjs/wOcQ2/TARMDIJE6hYvIxKawsWLNAzeCjXSL1XKthTRJpDv1566SVJly5dLE7d5hRABIxMfC5UasBydOejjz6qREIZx3feeUeP76xVq5bPV2fT9xMCRiZ+ktZ55sqhWdSAbdiwoVa154RAPnaMZwCE66MlGJn4SFjnmypHX1SpUkW+/vprPSUwT548Uq5cuQCszJbgJwSMTPwkrfPMFdNm2bJlsnbtWv1JUWnOyLFmCEQSASOTJKCNA5QPLfQzCd0l6Va0kyeffFJuuukm/RDdiWYLjW9HbURTCpEd28gkkXgTOZk/f76MGjVK9uzZIzt37kxkT+7cBplxEBcn9rlxJnFSZgWBcMxo2bJlhUQ6QtXWgo+AkUkiZHz48GHB6clLU6FCBT33F1PD2j8IcEwpx5oSuiaqVLp0aYMn4AgYmTgUMFGT0aNHS5YsWfTAb2sXRgDife+996Rt27aKmbXgImBk4lC2nO87aNAgadmypWok1hJGAC0O3Jo3b57wxXaFbxEwMnEoOpLERowYIR07drRU9TCxW7JkiSxcuFAefPDBMO+wy/yIgJGJQ6kdOHBABgwYIL1793Z4Z/xejqP6yy+/1EQ6a8FFwMjEoWyNTBwCJqJRLyMT57j57Q4jE4cSMzJxCJiRiXPAfHqHkYlDwRmZOATMyMQ5YD69w8jEoeCMTBwCZmTiHDCf3hFXZLJ7927NdUiVKlWi083dJhPyVlauXCkrVqzQJLi8efPqpr00adJc8JH65ZdfZPv27VKmTBldC0lzq1atkmLFiiV474U6Pnr0qM7nqquukrRp07ryWJvPxBUYY76TuCKTW2+9VXLnzi2dOnXSKmSQitPmNpmQKTps2DCdz2WXXSaLFi3S0gHsr9m3b58Qis6aNatky5ZN0/b5f86cOWXbtm0yefJkYU0QJCnrb731ltx8881KApASJLNjxw4lmnz58ilZ7dq1S3M+yJEh9X7v3r36d3Dhb/x/7Nix8thjj+mYbjQjEzdQjP0+fE8m7Ek5efKk1vPgpbhQWjsvLUWEcuTIIXfeeae0atVKSpQo4ShfxAsyIW+lWrVqUrRoUa1HQlJcvXr1ZNq0aXLs2DHVNEiSGzNmjEA+BQoUUPIZPHiw/uR3vPyPP/64kgh9NG3aVElj5syZwibA6tWra2kCEsjA69JLL5UmTZpI165dpX79+rotgP4gqs2bN8szzzzjKpl89tlnWhHOmj8Q4IuID2U/+YTzxetrMqE8IdvuCTv+9NNP+uJt3LjxvNIitZsXhQY4vGC8QLyc4TavyYTNev3791ftiX9DCNQpQeOgvAAvPYSxadMm+fTTT+Xhhx+WcePGyR133CGvvvqqdOjQQcll1qxZwlwpmATRosXcdddd2h8az9y5c5VQKVfw2muv6f8p8Vi8eHEdnwQzNzWTxo0bK1FZ8wcClLBAI86VK5c+Ew0aNFDt9kKbSH1LJvg/IAJ8BmgXqOyYBxdaLC/bs88+qxoA38iYEmgpTrbre0kmlFrEfPnwww91XRAlRMfPzp07qwnCvzF18I2QVdq+fXvVWG6//XZ5/fXXtaA0c5wzZ45AnphBaGuQCQ8DZJo/f37dhNemTRsZMmSIli6YMWOGZMiQQa688kpPyOSLL76QPn36+ONNslkqAmi0FCw/cuSIFt3iy5vnLXXq1OdEyJdkEqp7iikAkYRbM4Nve1i2WbNmWr093PvORM4LMhk6dKgWgOZbAB/Hddddp0SA/6Rw4cKyZs0aadSokTpp+caA/DBv0CYgj48//lhuu+02NeGqVq2qvg/MJua6bt06fSgKFiyomgfOVcoD8Hs2333wwQdKJphG77//vmojaHk9evTQbyY3mvlM3EAxun3wfPKFxLPEF9S5zB5fkgkvHw86qpcTrQL1PymRHMTpNpmgNWDOEJ2hoR1gDiA8iIVvARyqGTNm1GswUyAdNDDMOhyvfHNwH98irJGGxoU/CQ0OMwd/CT/RbrgXPwx9Qlr4T0LXMi6EBdm6dUyGkUl0icCt0anh06VLF/2g3Z/dfEkm2PRs/+cbNtLNbTKJ9PyjMZ6RSTRQ92bMiRMn6hcdmnAgyOSVV15Re98tB6ET2I1MnKD1v2uNTJxjFqt3fP/99+o/wWUQCDLB8Yq9nzJlyohjbmTiHHIjE+eYxeodmNb42QJDJoQyCYlGoxmZOEfdyMQ5ZrF8BxHRXr16BUMz4djLJ554Iip4QyZkmp4LzKhMyAeDUgeWXCALDftAWGFM8amnnjpnbRpfOmCjSSahSmvE26NhZoUh65i7hHyY5cuXa3U6a/5HwMjEJRmyEY4CyWR0kvxlLWEEyNAlvE1ekDX/I2Bk4pIMyccgmxNSYf+LtQsjwM7mTz75RLWS82VOGob+QsDIxEV5kQXIfhlS0jnTlx24JPRY+wcBchHYP7RlyxbNSWBHtLVgIGBk4rIcyVwl7ZxduThlQxmsLg/jqDsIrnLlyq7VIXE0+BkXk5XMZkS2AtSuXTtJ9VUSOwe7zzsEjEy8wzZmeuYoTnYBkx5vzRDwCgEjE6+QjaF+jUxiSBgBnoqRSYCFG1qakUkcCDkGlmhkEgNC8HoKRiZeI2z9g4CRSRw8B0YmcSDkGFiikUkMCMHrKRiZeI2w9W+aSZw8A0YmcSLoKC/TNJMoCyASwxuZRAJlG8PIJA6eASOTOBByDCzRyCQGhOD1FMIlE/YVURaAlHeO0LBmCDhBwMjECVo+vfZCZMIGRUhk8eLFWimLsgA8FK1bt/bpam3a0ULAyCRayEdw3AuRyfr167WgDUWK2EdEhXuKFYVzUlsElxD4oThNgKr/HOnKmUh+PJjMyCTwj6nIhciEHbwU4ubsk507d+pD/Pzzz+tZOtYihwDHi7AxlCNL0BSpiXP99df7aj+VkUnknpeojRSOzwTz5o033pDvvvtOD98yMydq4tKzijg6glMWOffaLxs0jUyi98xEbORwyITJUI9l9erV+u1Yo0aNiM3PBvovAhyMRrEtjt70S7EtI5M4eJLDJZM4gMJXS0RD4Zzo5s2bqy8r1puRSaxLyIX5GZm4AGKUuvjoo4/UzPFDqN7IJEoPidfDnjx5Ug8dp3H8x+OPP67nBONY5aeTs5i9nqv1f34EiLLt2bNH7r777piHycgk5kXkfIKUjuSoxh49esjll1+uPhBIhN8TeuRIEA40txb7CHAUyLJly+Tee++N+ckamcS8iBI3QXJG3n77benevftpLWTMmDFKKrfeemviOrW7Io7A3LlzZfbs2Rphi/VmZBLrEkrk/HDeffzxx5InTx6pUqWKHDx4UM0dckiicbB7IpcR97cZmUTpEYjmiX5RWvIFh4VAGjRoIF999ZXuuSGrtWrVqpI8efJYnK7N6RwIzJkzR01W00wi/HgYmfwbcHwkU6dO1VyFefPmSc+ePSVz5swRlooNlxQEjEySgl4S7jUy+S94x44dk969e+uhYE2aNLEoThKer2jcamQSDdRFNEqBX8DaPwiQSfnaa6/p6XkcfmXNXwgYmURJXkYm/wZ+165dmpJdpEgRWbdunZQoUUIqVqwoF110UZQkZMM6RcDIxCliLl1vZPI/INFGtm3bpjuBy5cvLxUqVJBDhw7pQeGkZbMb1XYFu/TQedwNZMKHnKFYbxYajnUJOZwfB6WzA3jWrFlyzz33SO7cuU/3QFbs559/rpmxmD0crG4tthEwMomSfOJdM6EOxowZM+TXX3+Vxo0bnzfLFbJZtWqVVKtWTYoVKxYladmw4SAAmZBrQvJhrDfTTGJdQmHMjwS1ffv2yYQJEzQhLZwMV2plcH3lypWlbNmyVlktDJyjcYmRSTRQj+Nozg8//CBTpkyR2rVrS9GiRbX8XziNpLZPP/1Ud6XedNNN5kcJB7QIX2NkEmHAQ8PFm5lDFXkKQa9cuVJuueUWrR3qtJHYhh8FYrn99tslffr0loviFEQPryf7lYRDM3M8BPlcXccTmZw4cUKjM0RtunbtKmnTpk002phJK1as0H07lG7Mly9fovuyG91FwMjEXTzD7i1WYzvHAAAgAElEQVReyOTw4cMycuRIzR+54YYbXNlrA6Hs3btXzR6csoSPreZJ2I+eZxdCJvPnz/dFMqY5YD17DNzvmBd+48aNSiQ4WUuVKuUKkZw5U/JRxo4dqyFliCpNmjTuL8R6DBsBI5OwoXL3wiBrJhAJdS2WLl0qbdq0UaepV5oDJhRV6qdNm6a7VcN16LorTesNBIxMovQcBJVMcLRSm4RWv359yZQpk+cIQ14QysyZM9UxmxjnrueTjIMB+AKhfIQf9pyZmRPDDyQvNAlob731llSqVElrkUT6pL3du3erUxaz6tprrw2klgLOW7ZskfHjx8v+/ftlw4YNet5yLDTMTj4cyhWtljVrVi1dQeoBz+D5TF8jk2hJKIxxyR8hbFu3bl11ikbL3KCG7KRJk3TPD1pKUiJHYSw7opewJjSwJUuWaEYwviKKR0EwsdDAnk80jwvFnCZ1gDOVtm/fLi1btjxndrWRSSw8MWfNgT00qLaQCfkjl112WdRnSYEl9vuQaUuCGw+3Vz6bSC6W0Dpn0zzzzDPCeb/Wzo8AxIsPhxo5HL1x9pebkUmMPT0hLYDT9e68886YqyK/aNEifaAaNWqkle+9JhSS6tASQg8u/2dMt8blGE7UeLYVWEsYATQUDrrnc7aGamSSMH4RuwL/BBEUvvU5njN16tQRG9vJQPgXpk+frqn7mAZeNsiLs2MefPBB4XBv6rPgP3LrhLvRo0dLnTp1TCsJU4j4kpDFq6++qtnSZzYjkzBB9PIyBPTTTz/pC0rxIhydsd5wVPKS44zDMeeVicCO2aFDh2rJSYiLl5/8F8wu/EloFfzt7Ac7XPw4DoRQu9V3CQ8xTB2c8Zw0CLkHlkzefPNN6dy5c3ioxNBVhP84bAnHlpf5I24vGRIkdLx161Zp2LChJ/VR8B1xoh3ZuTfeeKPm2lDwiYr71atX1wpyaHKJPT7TyMTZUxFXZMLJZ36JNpAWTzU0oge1atXS0/b81vBhcOIcHzQUQphuRp0gE/xIKVOm1H1IR44c0eLY33zzjR6Zye+IxiT2xDsjE2dPXNyQCXZcixYtXLOnncHs7Gq+bXH+YfsTseFlSUxDuDQnLzAaBde75cRkfLQT8lEwOdAcErueszEIkQmm37vvvquhSSrIUQQK8sI8BIM77rgjMfDpqYdm5oQPXdyQyYABA1QVLl68ePjoROHKnTt36v4aslmZa1JeaiIrVFiDkMJpPAz4Onjh3XJihsYlAoVPA8cxpOKE4M43d8w/QpH4ksBt1KhRctddd8mOHTs0pIsmxHlAifXZGJmE89T8c03ckAkvCXkQzZo1i3imaDgioT4rtSnYBYp/xI2t/vgOUP0JI9MYg3ICfKNfd911cs0112h2J+YUL94VV1yhGZV58+bVPBa+6SEzyjy6kaZPjgwHf61fv15atWoVMz4gTEqctvikzqzO7zWZIA+cyJAiJiGkh38pR44cF3xk0B7Xrl2rSXQ4mUMN2aEFsskzKV9C4Tyv57ombsgEYaFqly5dWj3/pJ5HA/BzCYFvbcok8lC3a9fOlW9txjmbTFD7MQc6dOigHvcuXbrIO++8o1m0HFyOucA3PCRDuYGmTZtq9fOSJUtKzZo1E/uM/es+8kJYJ3ulOnXqpOcdR1sOmEX333+/4oHWRHlL5uQ1mUBgAwcOVGK/6qqrhFA3KQB84XG4PNslwAc/H/8mSgap8+FeomVgiXYGEaKRQdbt27dXzJElBMXfDhw4cDpb1iu/YdyQCeDirENDofoYLwzfxoUKFYrqVnqIBBOMfQ0kR7nlTzgXmVB57euvv5Zu3bppKQHqu1LSkZca0oBwN23apNiQQo6GRISE0CohVzcbDzr7XVgzZ/ZEs2EKkh/BfKgDwxnMEAv/99JnEiITzLSrr75ad32jDfJ/Nm9Cat9//70eZTFkyBAlljVr1ujpAaSvo5XwBYEmQ/iayBW+NuQ5fPhwfb5DWiD9sSET89krZ35ckQkPLCoi7I96SeFkHiQe7Gg1XlTMCxyHic2HON/c0Uz45uLblsYDiMbBi8PDVq9ePX34MDkgFTZsoSZDJhAuDmvCuzyobpMJ82EM/CgcrwGRRbNRlZ8Xk8YxH/ha0E68JhMCA5g5of0+pDBAGGgpmCtokGgabDC877771C/E8wLJQDZoI5zGiMYNhkSyqlSpIo899phqlvTF2Uj8RONx2xd2pszijkxCi4+VzVoIAD8J5Pbwww+7mtkKmZB5yFrRwDhXmD00mDQ8WB07dtSs2ldeeUW/DVG3I0UmOIchKnJ/LrnkkmjyiH65YF5i7hD56dWrl36LkxDnNZlgSqGVMh4mD0lfkCv+vSuvvFJTA3hG0BT5wkF2kAdkgrzQTtA+kBuZ0SEyoa/mzZuryQyBUMYTmXuJddySSVSf3rMGRwh8S/Mg4IDjxXfDj4DDE9OObyweKrIS0czQxtCCMKl4yHDKQjht27ZV1Zjfcx2RF5yEzMUt8wv7/oMPPtCHGl9NYiMtbsqP9aMhoalhboQ0xEj4TBgDHx75MeTjoCGRwo9ZwnOBHCD9YcOGqe+EBD1MlZBmgiMWpzE7x9Eo8QtCjJjzON+RX0jDNDJx86mJ4b54mTG3sI3ZeYsz1OtzfxkT1R7nHqo9O5D5JvSq8SJ89tlnGvJGE4p0/ZXzrYsXDizOno/XZALJgwkknyFDBoH8+T++D7Ql8o34YoFwSb5D++ATOkQNByzX8OXAdZijmEMhpzYROfwjaD04dM+OVrktZ9NM3EY0if3xYBDZQRvA5vXy5U7iVB3dDlGiBaGKY9+7oXk5mkAiLvaaTMKdEs8EPi1MH0wbfClu5OmEO3641xmZhItUBK/j4SGKwgtIwhl5H35t1IwlrwWHIv4IvkH90mKFTPyCl5FJDEsKpxsfIil48P3wbX4mnIQ+KQtA+Jsws9+akYkziRmZOMMr4ldzfAW5IdQHoVZHrPgZEgKCfAmcgAULFtRohVeJUgnNIyl/NzJxhp6RiTO8onI1zrNQ1S8OwDq7VkRUJnWeQXmgcPwR7iZzlhyHWLTvw8Fs8ODButfH6pmEg5Zo9ImcJiJPOJTPbIEqjhQeHLF7FdEG9tCwl4YkMzf2ynixWkiEDzkO7B3xcyPBD62K5DBrCSNANIpzj/v06fMfAjYySRi/iF5BCHPVqlVq9lBnFdMnVhr5LEShCHeSB+FlclSk1kyCH6FXomp+81dFCqMzxwErEv0eeeSR/yRfGplEQyJhjEmIEFWSb03KBXidj5LQlMiNwAwjT4U6IkFp7MJlXwwvB7u43a7zEhSc+AIJOdspJE7i39nka2QSw9JGE2CfBunUZG5GwzGL6cVO1v79+0vr1q01zTsoeTEh0VNx/YUXXtAkQjJMIe5Y2YoRC48npEGQAGc7mbvsCzqXj8zIJBakdYE5kGpN4eRdu3apKk62Y6TUccbGN0L6N/6RWCgl4JW42ALArmoc4WSmRntTolfrTEy/BAPI0MXRTuTufM+fkUli0I3wPXxLkkJNdTb2ZKCOe00o+G5Ii4fEqI0Sq8duRFgUNtwFEDAy8cnjAaHwjYkfhfogfLzyo/DtzPZ8NCHyXrwaxyfQ2zTDRMDIJEygYuEyCAUn2IgRI3TTHo5Qt+ujUBODSl5sNGN3cdD8I7Egx6DOwcjEh5LFnid0zBb1hx56yJUXHqJi1yr9coTEmXVHfQiRTTkKCBiZRAF0N4bEORrKR+EAKnbpJrZRqQ0nL4RC/ZEg5I8kFgu7L/EIGJkkHruYuJNdx4Ts2CRITopTs4SKXxAJJg3HhHjt2I0J0GwSniBgZOIJrJHtlDwJyjeSl8LO3XA33FF9jB2/ZLNSP8MpEUV2lTZarCNgZBLrEgpzftRHocYs6c6UM7hQfRTCvtRnZdcv15I/YkQSJtB22XkRMDIJ2MPBUQokmpExSym/s0mC5CzMGnZ/xkp91oCJIG6XY2QSMNET6QkdP0oN1urVq5/2g4TOsaE+K/4V6otaMwTcQsDIxC0kY6wfNBAOmIIwKAtJkWJ2yLKvgoO5rBkCbiNgZOI2ojHUX+iQcjQSojYczGVh3xgSUMCmYmQSMIGevRzMHk6L43AuHK3WDAGvEDAy8QrZGOqXIydffPFFPVPFmiHgFQJGJl4hG0P9GpnEkDACPBUjkwALN7Q0I5M4EHIMLNHIJAaE4PUUjEy8Rtj6BwEjkzh4DoxM4kDIMbBEI5MYEILXU3jyySe1YLKFhb1GOr77NzKJA/mbZhIHQo6BJRqZxIAQvJ6CkYnXCFv/5jOJk2fAyCROBB3lZZpmEmUBRGJ4I5NIoGxjGJnEwTNgZBIHQo6BJRqZxIAQvJ6CkYnXCFv/5jOJk2fAyCROBB3lZZpmEmUBRGJ4I5NIoGxjGJnEwTMwaNAgPSuYM2OtGQJeIWBk4hWyUeiXYkhHjhyRTJkyaalGTv/jLBy3T/2LwtJsSB8gYGTiAyGFO0Uq1FOq8eqrr5bLL79cJkyYINR75UwdGiUcIZyTJ0/q+cEpU6a0c3LCBdeuSxABI5MEIfLXBbt27dJDua655hpZv3691KxZU00ctJRRo0bJggULtOoav+/Tp49kzpzZXwu02cYsAkYmMSuaxE2MY0MXLlwoy5Yt0wO5hg4dKhx/gUbCMaKcmcPh5ByFce2110qWLFkSN5DdZQichYCRSQAfiY0bN54+gLxfv35SoUIFyZcvn6RIkUJXu27dOhk8eLD06NFDrrrqqgAiYEuKBgJGJtFA3eMxN23aJNOnTxdCwhxx0a1bN6GwdN++fYW/9e/fX4oWLapkkj17do9nY93HCwJGJgGUdMjJypnDRHMOHDigq6SeCWbQoUOHJHXq1BoqtoPKA/gARGlJRiZRAj6Sw0IeEIedJxxJ1ONvLCOTOJD5Qw89JD179jRnaxzIOppLNDKJJvoRGtvS6SMEdJwPY2QSBw+AkUkcCDkGlmhkEgNC8HoKRiZeI2z9g4CRSRw8B0YmcSDkGFiikUkMCMHrKRiZeI2w9W+aSZw8A0YmcSLoKC/TNJMoCyASwxuZRAJlG8PIJA6eASOTOBByDCzRyCQGhODVFKhbQtZrx44d5YUXXpAMGTJIqlSpLBPWK8DjvF8jk4A+AL///rvWLSlUqJDMnj1b2rVrpxv73nnnHS2eZM0QcBsBIxO3EY2h/qi61qZNGzlx4oRqJFWrVpXRo0dbQaQYklGQpmJkEiRpnrWW3377TSuuUb+EOrBTp06VihUr2k7hAMs8mkszMokm+h6PTfmB77//Xgnluuuuk6+++krSpUvn8ajWfbwiYGQScMlj4tx///3SpEkTLdto9UsCLvAoLs/IxGXwDx8+rDVYFy1apMdO/Pzzzy6P4Ly7PXv2SNasWbUifTQbRJY3b179QGyUkrQaK9GUiLtjG5m4iOevv/4qkyZNkosvvljKlCkjl156qZZLtPYPAoSrt23bJvPnz5dKlSpJuXLlDJ6AIGBk4pIgKYf4ySefaGnE2rVru9RrcLuhlCSRpdtuu01y5swZ3IXG0cqMTFwSNiYNFd9bt26tJoW1hBGYPHmyoM21aNEi4YvtiphHwMjEJRFRZ3XEiBHSqVMn8wOEiSnn+WDudO7cOcw77LJYRsDIxCXpoLYPGDBAs06thYcARMLpg88991x4N9hVMY2AkYlL4jEycQ6kkYlzzGL5DiMTl6RjZOIcSCMT55jF8h1GJi5Jx8jEOZBGJs4xi+U7jExcko6RiXMgjUycYxbLdxiZuCQdJ2RCItu8efP00HBqjES67dq1S8aOHStsBCQD9ZZbbpGyZcsmmGpPaj4RGBLN0qRJc3ralDtYs2aNJuo5ybI1Mom05L0dz8jEJXydkMmpU6ekX79+0qpVK8mRI4fO4Pjx47Jjxw59ufPkyaP/h2j4/7Fjx/Tl3b59u3COcO7cufXn0aNH9dxgDh8nWY457Nu3T3cIcw1/ox9edlLYOV+YtnLlSq1xcueddwpzId+jUaNGQnYqpQqyZMmiWaoQAynvpMGTkk8uDRm+zJtzjBmH35GwN3HiRM0XYTzu4zjShJqRSUII+evvTz/9tPA5uyX7my2n1sJGIClkwgtI9iwvNv0ULlxY/50/f359mVesWKEv7/r16/XFhVggmrVr1yppcA+ZpPQBEW3atEmT54YOHSrFixeXH374QXcN16tXT4kBMmH/0F133aWENGrUKClRooR8+OGH0r59e2F/EWOmTJlSiytBVrNmzZIrrrhC80IYa/fu3XLjjTcqibArmb1I1Ev57rvv9CfzSqgZmSSEkH/+zhcXz1u3bt2MTJIqtqSQCbwNUfDSQwSZMmWS8uXL6+/QFEIv9OLFi1Vj4GWHZCgnULNmTU1LR7Pgel5yTA52CU+bNk1atmyp/0erad68uZIJL/yzzz6r2gyE0bZtWx0HrYNziSGIatWqKSTkgEBI1EHBjBk5cqT+H1OpVq1aMmHCBLn22mv1HkiuQYMGUqRIkQRNJvo2MknqUxc79y9fvlx4PvkyMs0kiXJJCpnA6kOGDJGiRYvK/v37dXNg/fr15bPPPlPyeOyxx9QUwUxBM9m6dat+8+fKlUtfZDSLUqVKaQJY9erVVauoU6eOLFiwQJo1a6b/37x582kyQTNBk4Bo0Hho1D3B9KEyGwRRo0YNgeSwg0uXLq3aBj8/+ugjJQvIhLE+/vhjueGGG2TmzJm6cQ/SgtjC2Q1sZJLEhy6GbufLhOf21ltvNTJJqlyckgkaQLZs2dS3ACHwckMU+BvwRWCmjBs3Tv+PbwOtARJg38/BgwelYMGCatKEyASn6LBhw5SQ2O+ChrBkyRLHZEIle0wgxoNo0EgKFCigc4G80HwgOkgFQmMs5se30h133KH34VjGbEqoOSWTX375RUtOpkiRIqGu7e8RRABNuW/fvqrhYqKbZpJE8J2QCd/4q1atUl8HLWQWoIXgn0AD4UWG7dmBDGmgvaxevVr/jmnCNZgVmER79+5Vk2Xjxo3qbOWl5/dEa7gevwh+mZCzl9/zALBbN6RB8DvGgCBwxC5btkzHCEV5fvzxR3X64pyltALmGNEd/s2H/ugfcuEbKpzNjuGQCQSLtoN5hRn41ltv6RysxQYCIac8ZTeoUXOuaJ45YB3KygmZJNQ1ZLNhwwat3Yq5Eo7JkFCfsfj3hMgE0wxtCzMOjQj/Dcd24N+xFj0E+NKB4JEJ2m+xYsXUuX8+uRiZOJSVm2TicGjfXn4hMoFQu3fvLgMHDlQNC9MGe5yIkrXoIYC2iuMfzRkzHT/a5ZdffsH8IiMTh/IyMnEIWBjRHMw+kuuGDx+uTmecwV27djXNxDnUUb3DyMQh/EYmDgELg0zoET8NdXQxdXBAk+xnPhPnWEfzDiMTh+gTYUEl59vTWngIEDWaMmXKObMmz9UDGONYtmhOePjGylVGJg4lQTSDb0+O4STaYi1hBNjnQwLdvffem/DFdoVvETAycSg69s+QeEbCFmnw1hJGgPR/HHl169ZN+GK7wrcIGJk4FB3RB07MQ0Np3LixereDGtJ1CM2/Lgcn8lBwqJLVywFhFupNCqKxf6+RSSJkRIIVKe34AdhZSxgTB6K1fxAgyWnOnDmagPfII4+cTqQzjIKLgJFJImULefCtS+SBFwdNJdqN8CqmBGn60WxsMiQzlsxbdhpj4thxpdGUSGTGNjKJDM4RGYX9Ni+++KKmvVszBCKNgJFJpBH3cDwjEw/Bta4TRMDIJEGI/HOBkYl/ZBXEmRqZBEiqRiYBEqYPl2Jk4kOhnW/KRiYBEqYPl2Jk4kOhGZkESGgBWoqRSYCEaZpJgITpw6UYmfhQaKaZBEhoAVqKkUmAhGmaSYCE6cOlGJn4UGimmQRIaAFaipFJgIRpmkmAhOnDpRiZ+FBoppkESGgBWoqRSYCEaZpJgITpw6UYmfhQaKaZBEhoAVqKkUmAhGmaSYCE6cOlGJn4UGimmQRIaAFaipFJgIRpmkmAhOnDpRiZ+FBoppkESGgBWoqRSYCEaZpJgITpw6UYmfhQaKaZBEhoAVqKkUmAhGmaSYCE6cOlGJn4UGimmQRIaAFaipFJgIRpmkmAhOnDpRiZ+FBoppkESGgBWoqRic+FyemCHL958cUX6xnIXbp0kZkzZ0rz5s0lX758Pl+dTd9PCBiZ+Ela55grZ/q+88470qtXL/n9998lY8aM+pk7d65kz57d56uz6fsJASMTP0nrPHPduXOnXHXVVbJv3z5JnTq1DB8+XG677TY9VN2aIRApBIxMIoW0h+Nw7vGHH34o999/v5QsWVIPVM+WLZuHI1rXhsB/ETAyCchT8dtvv8lNN92kvpJOnTrZQeEBkauflmFk4idpXWCu+E4WLVokpUuXlnTp0gVkVbYMPyFgZOInadlcDYEYRsDIJIaFY1MzBPyEgJGJn6RlczUEYhgBI5MYFo5NzRDwEwJGJn6Sls3VEIhhBIxMYlg4NjVDwE8IGJn4SVo2V0MghhEwMkmkcEhdnz9/vmzZskVOnTolBw4cSGRPwbstWbJkmoGbKVMmueaaa6R48eKW2h88Mf9nRUYmiRDyL7/8IpMmTdINdVWrVpUcOXIkopdg33Ls2DFZt26dzJgxQ6pXr66kYi3YCBiZOJQvW/7HjBkjOXPmlBtvvNHh3fF3+eHDh2XEiBFy6623Sp48eeIPgDhasZGJQ2EfOXJE64a0atVKLr30Uod3x+flX331laDN3XXXXfEJQJys2sjEoaAPHToko0aNkg4dOji8M34vX7FihdZXeeCBB+IXhDhYuZGJQyHjaB0wYID07t07rDvRZFKlSqV1RvAjnDx5Uqui4aQ8X2PTHuPwM02aNJI+ffok7wLGPGPs0CZA/o22wO9TpkypDtMUKVL8a0qUNqDgUtq0aSV58uR67YkTJ/T/R48elQwZMoQ1LxzVX375pTz33HNhYWYX+RMBIxOHcnNCJn/99Zf0799fKlSoIGXKlJHRo0dr5KdNmzanoxsUMII0uJYPLzTXPProo5IrVy4teoQDkxceAuLD9Xx4wXnh6YN/cx+/pw8+/I0P/yb6tHbtWu2L/69cuVI1BZzHkF3Xrl2lfPnyp+9nLrt27ZKpU6fKHXfcoYS2efNm+eabb6Rp06ZaGvLmm2/WexNqRiYJIRSMvxuZOJRjYsikbNmysmbNGilatKhcf/31+mL37NlT0FqeeeYZ2bNnj5YP+Pzzz4UK85DCa6+9ptdAIpdccomMHTtWihUrphEkwtF8qF8ybtw4eeKJJ+Tqq6+Wxx9/XJYsWaL1TBo1aiQffPCB/p2iSVWqVJFly5ZJgwYNlHy+//57NdcYn774d7NmzQSTBPKYOHGikhnzrlWrlnzxxReybds2mTZtmrz66quyfft2JRU0roSakUlCCAXj70YmDuXolExeeeUVWbp0qRQoUEC6d++uuRcff/yxmgiXXXaZfvNDMryot9xyiwwcOFCvgwTq1q0r3377rZpFaAW87MOGDVNC4no+NWrUkAULFkjjxo31BcdcGTp0qJLGd999Jw0bNlSywrxZuHChtGjRQslk1apVWjf22muvVfMFLSNUO/buu++WkSNHSqFChbQP5gpZoZ0wH8YiQgNJYYYl1IxMEkIoGH83MnEoR6dk8sILL0jmzJn1hYYEKlWqpCUWMXsKFy6sL36RIkVUC4BUMIswP8aPH6/kMnv2bMmaNascP35cbrjhBtVQIIjVq1cLYVeKIaEtNGnSRO69914lHTSYfv36qZ9i0KBB8tBDD6m5xEsdIhM0E4gJcyq0JrQiNJt27dopWVx++eWqkUBQjIl5BJkQ5uVeIxOHD0/ALzcycShgp2TCS823/5VXXqkkgs8CfwXf9gULFpSvv/5aSpQooWHmK6644pxkwssMmdSsWVM1Fl5syCBEJmg33Pvrr79qtul7772nYVju4f+QCqYWWsaZZIIPBzMHRyzaECRGMh7+k9dff13NqB9//FFKlSql/hZ8P5CNkYnDhyZOLjcycShoJ2SCMxTfAxoH2gLmDiQAoeCj4GXHpCDcDLnkzp1bX+Z69erJvHnz1CHK9Zg5RF/QZgix8lJv3bpVo0OYT5AEGab4MtBw8GPUr19fSWT58uWqtTCHH374Qc0iNIxNmzYpYeCfYWy0ETSl999/XzUViI7xqHwPGUKAzANNqXLlyuqcNQesw4cn4JcbmTgUsBMycdh1YC83n0lgRfuvhRmZOJSzkYlDwETUV2N5Js5x89sdRiYOJeYGmWD+7N+/Xw4ePKijE2nJmzdv2DMhd4SjLYgMXSj5LewOPb7QyMRjgGOkeyMTh4Jwg0zIIsVfAZlkyZJFE8vY6xPu2cA4TMlJ4YyccJLGHC7R9cuNTFyHNCY7NDJxKBa3yISQLaFfwq9EdNBWcMDisIVciLrgYCUUC+mwS5mxyQXBQYujFCKCmIjckGOCKYGjFmcqzlacsmhAOHrJLfn000/1+ttvv13zQ8glue6667TvCRMm6BwgKO6lv59//lnq1KmjDmMybBPbjEwSi5y/7jMycSgvt8ikb9++ur8FQoAAIA9ebhLViKCQJUt0hQgQURPOD0Z7mTVrloaIyU9p3769rF+/XkmH/TIcDUrGKsRB2Jj7ifoQ8WEsQsy7d+/WCBF5J0SO+vTpo0lvhJbJwqUvriGkTGSIv7Vt2zZJB3sZmTh8yHx6uZGJQ8G5RSZvvfWWhl7JgiU0C6l07txZQ7WEbitWrKjJbISNIQm0DsK9nCNMaJaiQ2ggkAfhX/qAaCADNJXs2bPLxo0bdb8P4WDCx5MnT1aSKVeunGokpNeTeEZiGv2iiaD1sEZS6OkTzYjQclJOCTQycfiQ+fRyIxOHgnOLTEJmDoRBI6WdOimkrUMoIbMilIh2Nplg5qCpkP+BJgIhPPzww5pcBjFBFm+++aYSFmYKfZOfQn/sxQBTjcsAAB29SURBVOHvEAybDrmO9Hu0EMZFK6pdu7YSiJGJwwckji83MnEofDfIBLOGl59ksDOjOKTc9+jRQ30mpOGjlbAZEO0FEwRthQxUNBWS2iAONgE++OCDqllQGgGtBPMGf0nIJ4LJgtYCoVBmkuQzMmLRXDCrQve2bt1aCQTtBuLBrwJZYVaFs6HvfFCaZuLwIfPp5UYmDgUHmbz99tvy1FNPObwzcpfjSMUMQgNhcyAb9KLZ2GBItTVS960FFwEjE4eyxedAKjxp8LEeloVUYiEPZfHixarhsBHRWnARMDJxKFtMAPwVbLYLNy/E4RCBu5wd0ESbCDNbCy4CRiYOZcu3PdXGduzYoSYEkZdY+PZ3uIyIXE4kCb8OPhP8MUnxu0RkwjZIkhAwMkkEfDhISTTDD0AolTwOIjDW/kGA2rGErCngRGkDclysBRsBI5NEyhdCIbmLYkRkmGL+RLsNHjxYtSWyZKPdiBgRoiYZjqiQaW/Rloj34xuZeI9xxEagUtqLL75o5/lEDHEb6EwEjEwC9DwYmQRImD5cipGJD4V2vikbmQRImD5cipGJD4VmZBIgoQVoKUYmARKmaSYBEqYPl2Jk4kOhmWYSIKEFaClGJgESpmkmARKmD5diZOJDoZlmEiChBWgpRiYBEqZpJgESpg+XYmTiQ6GZZhIgoQVoKUYmARKmaSYBEqYPl2Jk4kOhmWYSIKEFaClGJgESpmkmARKmD5diZOJDoZlmEiChBWgpRiYBEqZpJgESpg+XYmTiQ6GZZhIgoQVoKUYmARKmaSYBEqYPl2Jk4kOhmWYSIKEFaClGJgESpmkmARKmD5diZOJDoZlmEiChBWgpRiYBEqZpJgESpg+XYmTiQ6GZZhIgoQVoKUYmARKmaSYBEqYPl2Jk4kOhmWYSIKEFaClGJj4XJicJjhs3Ts/KGTFihHTu3FkmTpwoaCmcNGjNEIgUAkYmkULaw3EGDRok3bp10yNKU6VKJblz59bzfbNmzerhqNa1IfBvBIxMAvBE7Nu3T4/h/PXXXyVlypTy6aefyi233KKHqlszBCKFgJFJpJD2cBzOPf7kk0+kVatWUqZMGT1QHbPHmiEQSQSMTCKJtodj/fbbb6qNtGzZUu655x5Jnjy5h6NZ14bAfxEwMknkU4E2sHbtWvn666/lwIEDsn///kT25M5tf/31l86nYMGCki5dOkmWLJk7HSeiF8bOmzevXH755VKvXj2dj7XgI2BkkggZ//7772pKrFu3Tm644QbJkyeP/PHHH4noKbi3nDhxQlavXq0E16JFC4ssBVfUp1dmZOJQyH///bdMmDBByaNx48ZqTkRTC3A4/Yhejra0Z88eGT16tDzwwAOSOnXqiI5vg0UWASMTh3gfPXpU3nvvPbntttskX758Du+Oz8txDhOybtCgQXwCECerNjJxKOjDhw/Lhx9+qElhhGGtJYzA4sWLZdmyZdKhQ4eEL7YrfIuAkYlD0eFsHThwoPTs2dPhnfF7+YIFC9TH9Oyzz8YvCHGwciMTh0KGTAYMGCC9e/d2eOf/Lv/ll19k3rx5UqtWLUmbNq2jPn744Qc1FwoXLhzWfTiK58yZIwsXLlR/xY033iilS5eWiy666F/34weaMWOG5MyZU0qUKOG6D4hs3C+//FKee+65sOZtF/kTASMTh3JLKpns2rVLHbgNGzbUSMemTZskc+bM6k8gOlSqVCnZsmWLvtCEVD///HNNj4d8tm7dqqZV+vTpZfLkyZIhQwapX7++bN68WV/WcuXKSZUqVU5nvmJeQED4dyCWjz76SHNRQpGW4sWLS8aMGWXatGlCnkrFihWlUKFCOmaOHDmUfH788Uftv1ixYlKyZMlEEY2RicOHzKeXG5k4FJxbZFK9enUZMmSIksR3332nL/zUqVOladOm+tLXqFFDTYOrrrpKSYR0efw1aBX8zJYtmxw/flzzSsh14frx48dL69at9VryYIYOHSrVqlVTIiCyAonx+yNHjmg0irA2Wtatt94qs2fP1mshOLST5cuXS9GiRTW8mz17diW7Sy65xMjE4fMST5cbmTiUtptkMmnSJHXk8iKjJXz77bdKBIsWLZI777xT3n33XXnsscfkp59+Uq0FTYTNfGgK7du3lyxZssiGDRvkmWeekbJlyyoR3H333VK5cmUlj8GDByth0CemTEgDOXnypCaVoYWwSRD/D+YQvyfyAkHt3btXiYzoFRoPWktim2kmiUXOX/cZmTiUl5tkguZB6vvMmTNVG0Dj4GWuWbOmlC9fXl577TXp1KmTrFy5Un0t+FgghW3btknz5s3V5Nm9e7f6OyAlNJhcuXKp2USjX8wbtB9IaOzYsWqqQEaUJ+DzxhtvSPfu3VUrypQpk47FHp9jx45pDg0EdPXVVyuhJLYZmSQWOX/dZ2TiUF5JJROSuCCRSpUq6csOKcydO1dNEcwItIwHH3xQtYMpU6aoCQM5oHGsWbNGHan4PHj506RJoySCJoNTF82la9eu6u+gYc7g/8CMwnGLKYSGwbj58+dXAoO8pk+frr4a/C0QGv4XNJu77rpLfS44bfkkthmZJBY5f91nZOJQXkklkzOHQ8s4O3v27N+d6xr64Pe00P3nu+5c15695HONeWbfDiH6z+VGJklF0B/3G5k4lJObZOJwaN9ebmTiW9E5mriRiSO4RHcIJyXPJNzhiLpgatDwXTgpdISmwedCZQjoG62Gn076Dnf+Z15nZJIY1Px3j5GJQ5lFgkwgEmq54kuBEHCg9urVS30i4bQdO3Zo2UY2Ip6doMb99E/dWKI8RJJIc8f/4lUzMvEK2djq18jEoTwiRSavvvqqNGnSRJ2pRGuItLCxkNwR/o3jdePGjRoaXrJkibRp00YLStepU0ejNERuDh48qI7e2rVr679ff/11LZdABIm/41QlKe32229XB61XzcjEK2Rjq18jE4fyiBSZPP300xptofzi+vXrpWrVqpoWD1EQ2uX3JK2RfEa054svvlBCITLTrFkzzTGBjNgXQ97J0qVLNQ2fIk6YNYR+yW0h0Y0IkpcFjIxMHD5kPr3cyMSh4CJFJuz9IQOVxDTCxGglhIwxYSCRunXr6t/5G/km5IMQPn777bfVvOEFpigRGgjmEdmvO3fu1NUSHr7ssss0HGxk4vABsMvPi4CRicOHI1JkgklCngdJaDRySyAKksfIVCXfhEQ2SiOGslvPJBMq1GMKjRo1SkmHZLTrrrtOfTA4XTGRrrzySiMTh/K3y8+PgJGJw6cjEmTCy/7+++/rfhj2xYQaKe9s8CObFVMGPwgaBmRC0hq+j5EjR8pNN92kx12QCo9pQx1WUvJxupJFS6o+phN/IzGORDdzwDp8EOzy/yBgZOLwoYgEmTAltA/MlzOT2ojCYOLwO0gB0kHTgEz4G9eH7oNwQody4VzlWvwkod3I+Fq4l2vQcrwsPWk+E4cPmU8vNzJxKLhDhw7J8OHDdc+M1/kZDqcWs5dTCoGUf3w+1oKLgJGJQ9lS94NICc7N0B4Yh13E3eXsjkYroryCteAiYGTiULaYE0RACKXii7B2YQRwEuPHYScyGxmtBRcBI5NEyJbduDhC8VVQR4QDwiEZa/8ggC+GkggUkqakAmFoa8FGwMgkkfKFPPAF8K1LKcZQDkciu0vybaEzaggle+lMDWeiOHYJR1Nc6d5779Uyk9aCj4CRSUBkjC+nX79+0q1bN0+zWQMCly3DAwSMTDwANRpdGplEA3Ub80wEjEwC8jwYmQREkD5ehpGJj4V35tSNTAIiSB8vw8jEx8IzMgmI8AKyDCOTgAjSNJOACNLHyzAy8bHwTDMJiPACsgwjk4AI0jSTgAjSx8swMvGx8EwzCYjwArIMI5OACNI0k4AI0sfLMDLxsfBMMwmI8AKyDCOTgAjSNJOACNLHyzAy8bHwTDMJiPACsgwjk4AI0jSTgAjSx8swMvGx8EwzCYjwArIMI5OACNI0k4AI0sfLMDLxsfBMMwmI8AKyDCOTgAjSNJOACNLHyzAy8bHwTDMJiPACsgwjk4AI0jSTgAjSx8swMvGx8EwzCYjwArIMI5OACNI0k4AI0sfLMDLxsfBMMwmI8AKyDCOTAAiSw8COHj16+qgLDjWP9tk5AYDVluAQASMTh4DF2uWYN9OnT5eKFSvKkCFDpEmTJrJ8+XJp0KCBQCrWDIFIIWBkEimkPRrn4MGDcs8996hmwodWpkwZeemllyRDhgwejWrdGgL/RcDIJABPxfDhw+Xuu+8WjgjNkiWLzJo1S0qXLh2AldkS/ISAkYmfpHWeue7fv18qVKggW7ZskUaNGun5x2biBECwPluCkYnPBHau6aKRfPnll9KuXTsZP368VK5c2RywAZCr35ZgZOI3iZ1nvr///rtMmDBBbr31VkmdOnVAVmXL8BMCRiZ+kpbN1RCIYQSMTGJYODY1Q8BPCBiZ+ElaNldDIIYRMDKJYeHY1AwBPyFgZOInadlcDYEYRsDIJIaFY1MzBPyEgJGJn6RlczUEYhgBI5MYFo5NzRDwEwJGJn6Sls3VEIhhBIxMYlg4NjVDwE8IGJkkUlrsh9m2bZusWLFCjhw5IocPH05kT8G7jcJMWbNmldy5c8s111xj6f3BE/E5V2RkkghBnzx5UubNmyerVq2S/Pnzy8UXXyzHjh1LRE/BvSVlypSyd+9eOXHihNStW1eJxVqwETAycShfSiTOnj1btm7dKq1bt3Z4d/xd/v3338v8+fOlbdu2kipVqvgDII5WbGTiUNhoIJRHrF+/vhQsWNDh3fF5+ZgxY+TSSy+VWrVqxScAcbJqIxOHgsY38sEHH8j9998vadKkcXh3fF6OSbhy5Urp2LFjfAIQJ6s2MnEo6AMHDshbb70lvXr1cnhn/F6+YMECLd7Up0+f+AUhDlZuZOJQyJDJgAEDpHfv3g7vjN/L8ZlAJs8991z8ghAHKzcycShkIxOHgImoA9bIxDlufrvDyMShxIxMHAJmZOIcMJ/eYWTiUHBGJg4BMzJxDphP7zAycSi4SJMJoWgSwPi41Ui6o0Uq78PMHLckF9v9GJk4lE8kyeTPP/+Ud999V8qWLavHV7jR2AbAy82xojfffLMbXSbYh5FJghAF4gIjE4dijDSZEIa++uqrpWrVqjpTDtoiae6XX36RFi1aSMmSJWXgwIGyY8cOyZcvn7Rv316WLl0q48aNk8suu0zatGkjixcvlkqVKsmuXbvkp59+ktWrVwsHd3GEaObMmR0i4PxyIxPnmPnxDiMTh1KLJpmgVXA2DgSQM2dO+fDDDzWrlA2Ht912m/Tr109atmwpb775pnTu3Fk3IXKeDlpI7dq19TrIKE+ePPq7evXqOVx94i43Mkkcbn67y8jEocSiSSanTp2SUaNGqdkDmQwdOlQKFSqk/hTS+9FiIAjOHu7WrZts2rRJfvjhB91sh0mzYcOG0xoMh5yzAS8SzcgkEihHfwwjE4cyiDSZoGVgvpQvX17Sp0+vJgsmTrZs2WThwoXSoEED+fbbb6VOnToybNgwTVnv37+/ksq6deukQIECqo1g8vAzefLkUqxYMdm9e7fcfvvtkiJFCocIOL/cyMQ5Zn68w8jEodQiSSaYNdOnT5e5c+cKu5XRSKpUqaIJYGzvx2eSI0cONX1+/vln9YOgkfATDQatpWHDhrJ582b5/PPP5fLLL9fNidmzZ1cC4m+ZMmVyiIDzy41MnGPmxzuMTBxKLZJkktDUIJidO3fKyJEjBbOlevXqcv3110dE20hobmf+3cjECVr+vdbIxKHsYolMHE49apcbmUQN+ogObGTiEG4jE4eAWQasc8B8eoeRiUPBGZk4BMzIxDlgPr3DyMSh4IxMHAJmZOIcMJ/eYWTiUHCHDh3SZLFOnToJVditJYzA8uXLZc6cOdKlS5eEL7YrfIuAkYlD0XGsBftlKJDMcQ7WEkZg8uTJGq62AtwJY+XnK4xMHEqPzXfvv/++5nDccMMNDu+Ov8vB65VXXpF27dppop214CJgZJII2fIt+8UXX2jCF7t5SQKz9m8Ejh8/LuvXr5eZM2cqRhzGZWZhsJ8SI5NEyhdz55tvvpFp06Zpejvp6dFsJLBROR+Ci/ZLS8o+mluRIkWkSZMmkjdv3phLpIumrII6tpFJEiSLCs/mO15kUt+j2ciAZaMfu4XTpk0bzano2BAK+37YhBhtcos6GHEyASOTgAiakgKUIGBvTrp06QKyKluGnxAwMvGTtC4wVyOTgAjSx8swMvGx8M6cupFJQATp42UYmfhYeEYmARFeQJZhZBIQQZpmEhBB+ngZRiY+Fp5pJgERXkCWYWQSEEGaZhIQQfp4GUYmPhaeaSYBEV5AlmFkEhBBmmYSEEH6eBlGJj4WnmkmARFeQJZhZBIQQZpmEhBB+ngZRiY+Fp5pJgERXkCWYWQSEEGaZhIQQfp4GUYmPhaeaSYBEV5AlmFkEhBBmmYSEEH6eBlGJj4WnmkmARFeQJZhZBIQQZpmEhBB+ngZRiY+Fp5pJgERXkCWYWQSEEGaZhIQQfp4GUYmPhaeaSYBEV5AlmFkEhBBmmYSEEH6eBlGJj4WnmkmARFeQJZhZBIAQXLUBkddhKrTc9SFHS8RAMH6bAlGJj4T2NnTPXHihGzatEly5swpAwcOlHvvvVf27t0rxYsX1zNrrBkCkULAyCRSSHs0TuhAcI4o3bdvn6RKlUrPzXn77bf1dD9rhkCkEDAyiRTSHo2DiYNGwkl+/Bsi4dhSzva1ZghEEgEjk0ii7dFYe/bskaJFi+pZw9dff718/vnnkj59eo9Gs24NgXMjYGQSgCeDM48/+ugj6dSpk4wdO1Zuvvlmc8AGQK5+W4KRid8kdp75Hjt2TIYMGaIO2Fg4uDwgsNoyHCBgZOIArFi+FH/JH3/8IRdddJFpJbEsqADPzcgkwMK1pRkCkUTAyCSSaNtYhkCAETAy8aFw//rrLzl58qSQsHbmT/6dIkUKzTXhkzp1av3wb0tg86GgfTZlI5MYFRg+kFOnTilh/P7777Jz505Zs2aNrF27VrZt26a/4+8QCB/+zQcygTj4hEiFf2fJkkWKFSsmV155pVxxxRWa0Mbf06RJI8mTJ49RFGxafkLAyCTGpEWYl/T47777TpYtW6bksWHDBiWVbNmyCZmuWbNmlQwZMmguCUlqZ35wwrJPh+gOH/7N59dff5Wff/5ZP0eOHJF8+fJpbkrZsmWlfPnyUqZMGctNibFnwW/TMTKJssTQQA4dOiQknkEes2fPlh9//FFffvbboEnw0hcqVEj/zwcyQQMJt4U2AjIGn127dukYfNB20FDot1KlSlKtWjUpWLCgjsHvrRkC4SJgZBIuUi5fF3rBZ86cKZMmTZIpU6ZoSBdNoWrVqnLLLbcokTghDadTDBHZ9OnTZdq0aUpmmFClS5eWevXqScOGDZVYzAxyimx8Xm9kEgW5U8ho0aJF8s4778iCBQtUK2jevLnUrl1b8ubNKxdffHHEc0Uwj0J+maFDh8qSJUvk0ksvlbvvvltJhXkZqUThYfHRkEYmERQWDlLMihEjRsiECRPkkksukSZNmkjTpk0lf/78EZzJhYciWvTVV1/JyJEjddMgmkrbtm2V7DJnzhxxoosZYGwiF0TAyCRCDwjayKhRo+S5557TSMqDDz4oLVu21NT3WC1kBPnhAH7hhRdk1qxZUr16df13kSJFIoSaDeMnBIxMPJYW3/I//fST9O7dW5YuXarmzH333afRFL+048ePK5n07dtXDh48KF27dpVmzZppWNmaIRBCwMjEw2cBBycE0qFDB+GFfO2116RWrVqeOlW9Wg5rofjSM888I6NHj5ZHH31UtStC1NYMARAwMvHoOeDlI1ekRYsWUqJECXnllVfUL+JldMajpfyrW3JU8Pf07NlTGjRoIC+//LLtUo4E8D4Yw8jEAyFBJN9++636RKgt8uyzz0qOHDli1jfiFAIS6yZOnKjaSf369dWPQuKctfhGwMjEA/mTGHbTTTdJrly5tGgRCWBBa/iC0FDatGmjZIIp53etK2gyivR6jExcRpzSiYRR8S8QvcmTJ09gNJKzoWJ/0IABA/Qzbtw4ufbaawO7Vpcfk0B2Z2Tiolj5tp4xY4a0bt1aq56RxRqrYV+3ls3+HyJU/IRQSLizFp8IGJm4KHc21N1xxx1q1gwaNChuHJNTp06VVq1ayfjx46VKlSouImpd+QkBIxMXpTV//nxp3LixjBkzRhO8gq6VhKAj7H3jjTfqJkGiPOaMdfGh8lFXRiYuCoukrg8//FDYvEe5AC8akSJ2FKMF0XB6ogmdr/gRkRdMEPJBvCS3Dz74QM/v4ZgNHM/W4g8BIxOXZE6BIjJbedE/+eQTLezsRSMtn9wO6pKwT4aaJvfcc4/kzp37nMPt2LFDw7hs2POyav369evluuuuU58RO5+txR8CRiYuyZwoDglq5cqVk169enm2w5aksXfffVdLBHCeMI3CSe+//74ewsXfITU0FUgNE4TPY4895imZQG7UQ+nfv7/UrVvXJVStGz8hYGTikrR++eUXdb7iM+nYsaOnZPLSSy+pRoI2QuU1NIKnnnpKQ9K7d+9WIjlw4ICSB/VIcJB26dLFUzJh/TVq1NBENpyx1uIPASMTl2TOy3TnnXdqOPjhhx/2zD+B5tGvXz8pWbKkEgWkQnYt2hAv8vbt2wVTaOPGjWpucA3JZaEdyi4t9z/dcIA6Dtju3bvrWNbiDwEjE5dkjolBvgXlFXnZvSokBJng6KxZs6aWAmAcHKvsSn788cdly5YtSiY4XXHWkjRHTRKODvXSZ0IpyAoVKqgJZmaOSw+Vz7oxMnFJYNT+wFdB8WeckF7VTyWKw87dTz/9VGdObZTXX39d5s6dq+PzUnMNJR979OihFesrV67secmAlStXqs9k4cKFUqpUKZdQtW78hICRiYvSQiNBa4BMvKychsZxrnZ26PfM67wMCzMXij5NnjxZTSrMLmvxh4CRiYsy59v5hhtu0MgK0RavTB0Xp+xKV1TXJ4rVrl07eeihh6xokiuo+q8TIxMXZYafgt2z+C34lo6XwkGQJ47XL7/8UknFWnwiYGTiotxDBZEaNWqkzlBCxF6bFy5OP1Fd4Xhm6wDhaXw3Xjp5EzVBuyliCBiZuAw1mbAkiJHbgf+AoziDSig4eh944AE9tuPrr7/WNPqgrtXlxySQ3RmZeCBWci7QSojsDB8+PJDRDWqZkNb/xhtv6JEYderUiRsfkQePTCC6NDLxSIzr1q07XX2MSmT4EoLikCXXBRLh/J8nn3xStxF4FQr3SDzWrQcIGJl4AGqoSzbZUSiJ7Fj8CWSIerUB0MNl/KtrSlJCIBzSRTiY9Vm5xkihH9vjGJl4LB8OB8cc4BhQTB/Om/GqPIGXSyH5jYQ0cmnQuqhbwrGhdnaOl6j7q28jkwjICx/Ke++9J2PHjpVixYppyYBrrrlGs1djveFQ5jBzdiBTlpFkPCJVzN80kliXXmTnZ2QSIbw5GJyoBwdxcTAXlckwEQippk6dOkKzcDYM+TJEpCj4RBmDe++9V6vRc0ayNUPgbASMTCL8TOzdu1eP2qRy/ebNm/UbHgdm+fLlY6IYM+YMO4/Z+zNp0iTdNEik5vbbb9fDxM5X0S3CMNpwMYiAkUmUhEJEhApofOvjVyH9nrN2eGGpU4K2EgkzgkQ7TBlyRjikHK2JKA2hX0iEzYPsTrb8kSg9KD4a1sgkisIK1XNdtWqVFqFevHixVk3j5cW5ibZCacaMGTNqar4b5MJxHBAFGgeERsQJDWT69OmnSxaQwQuxcbi6aSJRfEB8NrSRSYwIDGIh7DpnzhytP4IpxAY6Xmicnnnz5tVaKQUKFJDLLrtMSYYzakL1TPjJh34gDD78G18HdWkpq4hZtWnTJtm6dauaMjhWqciG34b6KFWrVtWCSkYgMfJQ+GwaRiYxKDBIgA9FmgnHzps3T5YtW6b5KmwmhCDwbXANYWbS2PlQwhGNA1KifCM/0ULIbSGpjCMo0HIKFy6sNU6oPxJyAJsZE4MPgs+mZGQSwwIL1SPhJ0dWQCYcO4o2gY8D4uDfod8fPHhQN9pBMFmyZNEjMNBeQiTC7yEc/h8iDyORGH4AfDa1/wMJduJVIKHZXAAAAABJRU5ErkJggg==;" parent="lbqvEXlQA2vBiY7xVLAV-1" vertex="1">
          <mxGeometry x="200" y="150" width="275" height="520" as="geometry" />
        </mxCell>
      </root>
    </mxGraphModel>
  </diagram>
  <diagram id="7vPxdgq4436c-iyXZGG1" name="Sequence-Login">
    <mxGraphModel dx="782" dy="514" grid="0" gridSize="10" guides="1" tooltips="1" connect="1" arrows="1" fold="1" page="1" pageScale="1" pageWidth="827" pageHeight="1169" math="0" shadow="0">
      <root>
        <mxCell id="0" />
        <mxCell id="1" parent="0" />
        <mxCell id="ll3nkaPM4mtcTlWdIgNv-1" value="Users" style="shape=umlActor;verticalLabelPosition=bottom;verticalAlign=top;html=1;outlineConnect=0;" parent="1" vertex="1">
          <mxGeometry x="70" y="280" width="30" height="60" as="geometry" />
        </mxCell>
        <mxCell id="ll3nkaPM4mtcTlWdIgNv-4" value="" style="endArrow=classic;html=1;" parent="1" edge="1">
          <mxGeometry width="50" height="50" relative="1" as="geometry">
            <mxPoint x="87" y="438" as="sourcePoint" />
            <mxPoint x="207" y="438" as="targetPoint" />
          </mxGeometry>
        </mxCell>
        <mxCell id="ll3nkaPM4mtcTlWdIgNv-5" value="1. Input Username &amp;amp;&lt;br&gt;Password" style="text;html=1;strokeColor=none;fillColor=none;align=center;verticalAlign=middle;whiteSpace=wrap;rounded=0;" parent="1" vertex="1">
          <mxGeometry x="79" y="448" width="130" height="20" as="geometry" />
        </mxCell>
        <mxCell id="ll3nkaPM4mtcTlWdIgNv-30" style="endArrow=none;dashed=1;html=1;" parent="1" source="ll3nkaPM4mtcTlWdIgNv-15" target="ll3nkaPM4mtcTlWdIgNv-20" edge="1">
          <mxGeometry relative="1" as="geometry" />
        </mxCell>
        <mxCell id="ll3nkaPM4mtcTlWdIgNv-15" value="Form&amp;nbsp;&lt;br&gt;Login" style="rounded=0;whiteSpace=wrap;html=1;" parent="1" vertex="1">
          <mxGeometry x="151.5" y="297" width="115" height="40" as="geometry" />
        </mxCell>
        <mxCell id="ll3nkaPM4mtcTlWdIgNv-19" value="" style="endArrow=none;dashed=1;html=1;" parent="1" edge="1">
          <mxGeometry width="50" height="50" relative="1" as="geometry">
            <mxPoint x="84.5" y="523" as="sourcePoint" />
            <mxPoint x="84.5" y="363" as="targetPoint" />
          </mxGeometry>
        </mxCell>
        <mxCell id="ll3nkaPM4mtcTlWdIgNv-20" value="" style="rounded=0;whiteSpace=wrap;html=1;" parent="1" vertex="1">
          <mxGeometry x="205" y="436" width="8" height="107" as="geometry" />
        </mxCell>
        <mxCell id="ll3nkaPM4mtcTlWdIgNv-21" value="" style="endArrow=classic;html=1;" parent="1" edge="1">
          <mxGeometry width="50" height="50" relative="1" as="geometry">
            <mxPoint x="213" y="455" as="sourcePoint" />
            <mxPoint x="333" y="455" as="targetPoint" />
          </mxGeometry>
        </mxCell>
        <mxCell id="ll3nkaPM4mtcTlWdIgNv-22" value="" style="rounded=0;whiteSpace=wrap;html=1;" parent="1" vertex="1">
          <mxGeometry x="333" y="455" width="8" height="86" as="geometry" />
        </mxCell>
        <mxCell id="ll3nkaPM4mtcTlWdIgNv-24" value="" style="endArrow=classic;html=1;" parent="1" edge="1">
          <mxGeometry width="50" height="50" relative="1" as="geometry">
            <mxPoint x="341" y="455" as="sourcePoint" />
            <mxPoint x="461" y="455" as="targetPoint" />
          </mxGeometry>
        </mxCell>
        <mxCell id="ll3nkaPM4mtcTlWdIgNv-25" value="" style="rounded=0;whiteSpace=wrap;html=1;" parent="1" vertex="1">
          <mxGeometry x="461" y="455" width="8" height="86" as="geometry" />
        </mxCell>
        <mxCell id="ll3nkaPM4mtcTlWdIgNv-26" value="" style="endArrow=classic;html=1;entryX=1;entryY=0.872;entryDx=0;entryDy=0;entryPerimeter=0;exitX=-0.125;exitY=0.872;exitDx=0;exitDy=0;exitPerimeter=0;" parent="1" source="ll3nkaPM4mtcTlWdIgNv-25" target="ll3nkaPM4mtcTlWdIgNv-22" edge="1">
          <mxGeometry width="50" height="50" relative="1" as="geometry">
            <mxPoint x="459" y="530" as="sourcePoint" />
            <mxPoint x="347" y="530" as="targetPoint" />
          </mxGeometry>
        </mxCell>
        <mxCell id="ll3nkaPM4mtcTlWdIgNv-27" value="" style="endArrow=classic;dashed=1;html=1;entryX=1;entryY=0.944;entryDx=0;entryDy=0;entryPerimeter=0;" parent="1" target="ll3nkaPM4mtcTlWdIgNv-20" edge="1">
          <mxGeometry width="50" height="50" relative="1" as="geometry">
            <mxPoint x="332" y="537.002" as="sourcePoint" />
            <mxPoint x="233" y="537" as="targetPoint" />
          </mxGeometry>
        </mxCell>
        <mxCell id="ll3nkaPM4mtcTlWdIgNv-28" value="2. Check Input" style="text;html=1;strokeColor=none;fillColor=none;align=center;verticalAlign=middle;whiteSpace=wrap;rounded=0;" parent="1" vertex="1">
          <mxGeometry x="205" y="462" width="130" height="20" as="geometry" />
        </mxCell>
        <mxCell id="ll3nkaPM4mtcTlWdIgNv-29" value="5. Halaman Users" style="text;html=1;strokeColor=none;fillColor=none;align=center;verticalAlign=middle;whiteSpace=wrap;rounded=0;" parent="1" vertex="1">
          <mxGeometry x="209" y="510" width="130" height="20" as="geometry" />
        </mxCell>
        <mxCell id="ll3nkaPM4mtcTlWdIgNv-32" style="endArrow=none;dashed=1;html=1;" parent="1" source="ll3nkaPM4mtcTlWdIgNv-31" target="ll3nkaPM4mtcTlWdIgNv-22" edge="1">
          <mxGeometry relative="1" as="geometry" />
        </mxCell>
        <mxCell id="ll3nkaPM4mtcTlWdIgNv-31" value="Login" style="rounded=0;whiteSpace=wrap;html=1;" parent="1" vertex="1">
          <mxGeometry x="301.75" y="306.5" width="70.5" height="21" as="geometry" />
        </mxCell>
        <mxCell id="ll3nkaPM4mtcTlWdIgNv-33" style="endArrow=none;dashed=1;html=1;" parent="1" edge="1">
          <mxGeometry relative="1" as="geometry">
            <mxPoint x="464.5" y="327.5" as="sourcePoint" />
            <mxPoint x="464.5" y="455" as="targetPoint" />
          </mxGeometry>
        </mxCell>
        <mxCell id="ll3nkaPM4mtcTlWdIgNv-34" value="Database" style="rounded=0;whiteSpace=wrap;html=1;" parent="1" vertex="1">
          <mxGeometry x="428" y="306.5" width="70.5" height="21" as="geometry" />
        </mxCell>
        <mxCell id="ll3nkaPM4mtcTlWdIgNv-35" style="endArrow=none;dashed=1;html=1;" parent="1" edge="1">
          <mxGeometry relative="1" as="geometry">
            <mxPoint x="208" y="545" as="sourcePoint" />
            <mxPoint x="208" y="644" as="targetPoint" />
          </mxGeometry>
        </mxCell>
        <mxCell id="ll3nkaPM4mtcTlWdIgNv-36" style="endArrow=none;dashed=1;html=1;" parent="1" edge="1">
          <mxGeometry relative="1" as="geometry">
            <mxPoint x="336.5" y="543" as="sourcePoint" />
            <mxPoint x="336.5" y="642" as="targetPoint" />
          </mxGeometry>
        </mxCell>
        <mxCell id="ll3nkaPM4mtcTlWdIgNv-37" style="endArrow=none;dashed=1;html=1;" parent="1" edge="1">
          <mxGeometry relative="1" as="geometry">
            <mxPoint x="464.5" y="543" as="sourcePoint" />
            <mxPoint x="464.5" y="642" as="targetPoint" />
          </mxGeometry>
        </mxCell>
        <mxCell id="ll3nkaPM4mtcTlWdIgNv-38" value="3. data username &amp;amp; password" style="text;html=1;strokeColor=none;fillColor=none;align=center;verticalAlign=middle;whiteSpace=wrap;rounded=0;" parent="1" vertex="1">
          <mxGeometry x="331" y="460" width="130" height="20" as="geometry" />
        </mxCell>
        <mxCell id="ll3nkaPM4mtcTlWdIgNv-39" value="4.Users data" style="text;html=1;strokeColor=none;fillColor=none;align=center;verticalAlign=middle;whiteSpace=wrap;rounded=0;" parent="1" vertex="1">
          <mxGeometry x="339" y="532" width="130" height="20" as="geometry" />
        </mxCell>
      </root>
    </mxGraphModel>
  </diagram>
  <diagram id="PYDeW4z6PYv_JxavT6uJ" name="sequence-regis">
    <mxGraphModel dx="782" dy="514" grid="1" gridSize="10" guides="1" tooltips="1" connect="1" arrows="1" fold="1" page="1" pageScale="1" pageWidth="850" pageHeight="1100" math="0" shadow="0">
      <root>
        <mxCell id="ne-8PbuIzjeHR3Lqf4SY-0" />
        <mxCell id="ne-8PbuIzjeHR3Lqf4SY-1" parent="ne-8PbuIzjeHR3Lqf4SY-0" />
        <mxCell id="tFiILkl-x1XhGyBJ9ONs-0" value="Pelanggan" style="shape=umlActor;verticalLabelPosition=bottom;verticalAlign=top;html=1;outlineConnect=0;" parent="ne-8PbuIzjeHR3Lqf4SY-1" vertex="1">
          <mxGeometry x="40" y="40" width="30" height="60" as="geometry" />
        </mxCell>
        <mxCell id="tFiILkl-x1XhGyBJ9ONs-1" value="" style="endArrow=classic;html=1;" parent="ne-8PbuIzjeHR3Lqf4SY-1" edge="1">
          <mxGeometry width="50" height="50" relative="1" as="geometry">
            <mxPoint x="57" y="198" as="sourcePoint" />
            <mxPoint x="177" y="198" as="targetPoint" />
          </mxGeometry>
        </mxCell>
        <mxCell id="tFiILkl-x1XhGyBJ9ONs-2" value="1. Input Username,&lt;br&gt;Password, Email, No.Hp" style="text;html=1;strokeColor=none;fillColor=none;align=center;verticalAlign=middle;whiteSpace=wrap;rounded=0;" parent="ne-8PbuIzjeHR3Lqf4SY-1" vertex="1">
          <mxGeometry x="49" y="208" width="130" height="20" as="geometry" />
        </mxCell>
        <mxCell id="tFiILkl-x1XhGyBJ9ONs-3" style="endArrow=none;dashed=1;html=1;" parent="ne-8PbuIzjeHR3Lqf4SY-1" source="tFiILkl-x1XhGyBJ9ONs-4" target="tFiILkl-x1XhGyBJ9ONs-6" edge="1">
          <mxGeometry relative="1" as="geometry" />
        </mxCell>
        <mxCell id="tFiILkl-x1XhGyBJ9ONs-4" value="Form&amp;nbsp;&lt;br&gt;Pendaftaran" style="rounded=0;whiteSpace=wrap;html=1;" parent="ne-8PbuIzjeHR3Lqf4SY-1" vertex="1">
          <mxGeometry x="121.5" y="57" width="115" height="40" as="geometry" />
        </mxCell>
        <mxCell id="tFiILkl-x1XhGyBJ9ONs-5" value="" style="endArrow=none;dashed=1;html=1;" parent="ne-8PbuIzjeHR3Lqf4SY-1" edge="1">
          <mxGeometry width="50" height="50" relative="1" as="geometry">
            <mxPoint x="54.5" y="283" as="sourcePoint" />
            <mxPoint x="54.5" y="123" as="targetPoint" />
          </mxGeometry>
        </mxCell>
        <mxCell id="tFiILkl-x1XhGyBJ9ONs-6" value="" style="rounded=0;whiteSpace=wrap;html=1;" parent="ne-8PbuIzjeHR3Lqf4SY-1" vertex="1">
          <mxGeometry x="175" y="196" width="8" height="107" as="geometry" />
        </mxCell>
        <mxCell id="tFiILkl-x1XhGyBJ9ONs-7" value="" style="endArrow=classic;html=1;" parent="ne-8PbuIzjeHR3Lqf4SY-1" edge="1">
          <mxGeometry width="50" height="50" relative="1" as="geometry">
            <mxPoint x="183" y="215" as="sourcePoint" />
            <mxPoint x="303" y="215" as="targetPoint" />
          </mxGeometry>
        </mxCell>
        <mxCell id="tFiILkl-x1XhGyBJ9ONs-8" value="" style="rounded=0;whiteSpace=wrap;html=1;" parent="ne-8PbuIzjeHR3Lqf4SY-1" vertex="1">
          <mxGeometry x="303" y="215" width="8" height="86" as="geometry" />
        </mxCell>
        <mxCell id="tFiILkl-x1XhGyBJ9ONs-9" value="" style="endArrow=classic;html=1;" parent="ne-8PbuIzjeHR3Lqf4SY-1" edge="1">
          <mxGeometry width="50" height="50" relative="1" as="geometry">
            <mxPoint x="311" y="215" as="sourcePoint" />
            <mxPoint x="431" y="215" as="targetPoint" />
          </mxGeometry>
        </mxCell>
        <mxCell id="tFiILkl-x1XhGyBJ9ONs-10" value="" style="rounded=0;whiteSpace=wrap;html=1;" parent="ne-8PbuIzjeHR3Lqf4SY-1" vertex="1">
          <mxGeometry x="431" y="215" width="8" height="86" as="geometry" />
        </mxCell>
        <mxCell id="tFiILkl-x1XhGyBJ9ONs-11" value="" style="endArrow=classic;html=1;entryX=1;entryY=0.872;entryDx=0;entryDy=0;entryPerimeter=0;exitX=-0.125;exitY=0.872;exitDx=0;exitDy=0;exitPerimeter=0;" parent="ne-8PbuIzjeHR3Lqf4SY-1" source="tFiILkl-x1XhGyBJ9ONs-10" target="tFiILkl-x1XhGyBJ9ONs-8" edge="1">
          <mxGeometry width="50" height="50" relative="1" as="geometry">
            <mxPoint x="429" y="290" as="sourcePoint" />
            <mxPoint x="317" y="290" as="targetPoint" />
          </mxGeometry>
        </mxCell>
        <mxCell id="tFiILkl-x1XhGyBJ9ONs-12" value="" style="endArrow=classic;dashed=1;html=1;entryX=1;entryY=0.944;entryDx=0;entryDy=0;entryPerimeter=0;" parent="ne-8PbuIzjeHR3Lqf4SY-1" target="tFiILkl-x1XhGyBJ9ONs-6" edge="1">
          <mxGeometry width="50" height="50" relative="1" as="geometry">
            <mxPoint x="302" y="297.00199999999995" as="sourcePoint" />
            <mxPoint x="203" y="297" as="targetPoint" />
          </mxGeometry>
        </mxCell>
        <mxCell id="tFiILkl-x1XhGyBJ9ONs-13" value="5. Halaman Costumer" style="text;html=1;strokeColor=none;fillColor=none;align=center;verticalAlign=middle;whiteSpace=wrap;rounded=0;" parent="ne-8PbuIzjeHR3Lqf4SY-1" vertex="1">
          <mxGeometry x="179" y="270" width="130" height="20" as="geometry" />
        </mxCell>
        <mxCell id="tFiILkl-x1XhGyBJ9ONs-14" style="endArrow=none;dashed=1;html=1;" parent="ne-8PbuIzjeHR3Lqf4SY-1" source="tFiILkl-x1XhGyBJ9ONs-15" target="tFiILkl-x1XhGyBJ9ONs-8" edge="1">
          <mxGeometry relative="1" as="geometry" />
        </mxCell>
        <mxCell id="tFiILkl-x1XhGyBJ9ONs-15" value="Pendaftaran" style="rounded=0;whiteSpace=wrap;html=1;" parent="ne-8PbuIzjeHR3Lqf4SY-1" vertex="1">
          <mxGeometry x="271.75" y="66.5" width="70.5" height="21" as="geometry" />
        </mxCell>
        <mxCell id="tFiILkl-x1XhGyBJ9ONs-16" style="endArrow=none;dashed=1;html=1;" parent="ne-8PbuIzjeHR3Lqf4SY-1" edge="1">
          <mxGeometry relative="1" as="geometry">
            <mxPoint x="434.5" y="87.5" as="sourcePoint" />
            <mxPoint x="434.5" y="215" as="targetPoint" />
          </mxGeometry>
        </mxCell>
        <mxCell id="tFiILkl-x1XhGyBJ9ONs-17" value="Database" style="rounded=0;whiteSpace=wrap;html=1;" parent="ne-8PbuIzjeHR3Lqf4SY-1" vertex="1">
          <mxGeometry x="398" y="66.5" width="70.5" height="21" as="geometry" />
        </mxCell>
        <mxCell id="tFiILkl-x1XhGyBJ9ONs-18" style="endArrow=none;dashed=1;html=1;" parent="ne-8PbuIzjeHR3Lqf4SY-1" edge="1">
          <mxGeometry relative="1" as="geometry">
            <mxPoint x="178" y="305" as="sourcePoint" />
            <mxPoint x="178" y="404" as="targetPoint" />
          </mxGeometry>
        </mxCell>
        <mxCell id="tFiILkl-x1XhGyBJ9ONs-19" style="endArrow=none;dashed=1;html=1;" parent="ne-8PbuIzjeHR3Lqf4SY-1" edge="1">
          <mxGeometry relative="1" as="geometry">
            <mxPoint x="306.5" y="303" as="sourcePoint" />
            <mxPoint x="306.5" y="402" as="targetPoint" />
          </mxGeometry>
        </mxCell>
        <mxCell id="tFiILkl-x1XhGyBJ9ONs-20" style="endArrow=none;dashed=1;html=1;" parent="ne-8PbuIzjeHR3Lqf4SY-1" edge="1">
          <mxGeometry relative="1" as="geometry">
            <mxPoint x="434.5" y="303" as="sourcePoint" />
            <mxPoint x="434.5" y="402" as="targetPoint" />
          </mxGeometry>
        </mxCell>
        <mxCell id="tFiILkl-x1XhGyBJ9ONs-21" value="3. data username &amp;amp; password,Email,No.Hp" style="text;html=1;strokeColor=none;fillColor=none;align=center;verticalAlign=middle;whiteSpace=wrap;rounded=0;" parent="ne-8PbuIzjeHR3Lqf4SY-1" vertex="1">
          <mxGeometry x="301" y="220" width="130" height="20" as="geometry" />
        </mxCell>
        <mxCell id="tFiILkl-x1XhGyBJ9ONs-22" value="4.Customer data" style="text;html=1;strokeColor=none;fillColor=none;align=center;verticalAlign=middle;whiteSpace=wrap;rounded=0;" parent="ne-8PbuIzjeHR3Lqf4SY-1" vertex="1">
          <mxGeometry x="309" y="292" width="130" height="20" as="geometry" />
        </mxCell>
        <mxCell id="tFiILkl-x1XhGyBJ9ONs-23" value="2. Check Input" style="text;html=1;strokeColor=none;fillColor=none;align=center;verticalAlign=middle;whiteSpace=wrap;rounded=0;" parent="ne-8PbuIzjeHR3Lqf4SY-1" vertex="1">
          <mxGeometry x="183" y="220" width="130" height="20" as="geometry" />
        </mxCell>
      </root>
    </mxGraphModel>
  </diagram>
  <diagram id="yPehkpYTqbe5U3oqPH6Z" name="ERD">
    <mxGraphModel dx="782" dy="514" grid="1" gridSize="10" guides="1" tooltips="1" connect="1" arrows="1" fold="1" page="1" pageScale="1" pageWidth="850" pageHeight="1100" math="0" shadow="0">
      <root>
        <mxCell id="JhLF3WWh2-RVSbp94sCA-0" />
        <mxCell id="JhLF3WWh2-RVSbp94sCA-1" parent="JhLF3WWh2-RVSbp94sCA-0" />
        <mxCell id="JhLF3WWh2-RVSbp94sCA-2" value="Customer" style="whiteSpace=wrap;html=1;align=center;" parent="JhLF3WWh2-RVSbp94sCA-1" vertex="1">
          <mxGeometry x="310" y="629" width="100" height="40" as="geometry" />
        </mxCell>
        <mxCell id="JhLF3WWh2-RVSbp94sCA-3" value="Mengakses" style="shape=rhombus;perimeter=rhombusPerimeter;whiteSpace=wrap;html=1;align=center;" parent="JhLF3WWh2-RVSbp94sCA-1" vertex="1">
          <mxGeometry x="480" y="620" width="90" height="60" as="geometry" />
        </mxCell>
        <mxCell id="JhLF3WWh2-RVSbp94sCA-4" value="Penjual" style="whiteSpace=wrap;html=1;align=center;" parent="JhLF3WWh2-RVSbp94sCA-1" vertex="1">
          <mxGeometry x="650" y="430" width="100" height="40" as="geometry" />
        </mxCell>
        <mxCell id="JhLF3WWh2-RVSbp94sCA-5" value="Produk" style="whiteSpace=wrap;html=1;align=center;" parent="JhLF3WWh2-RVSbp94sCA-1" vertex="1">
          <mxGeometry x="650" y="630" width="100" height="40" as="geometry" />
        </mxCell>
        <mxCell id="JhLF3WWh2-RVSbp94sCA-6" value="Dikelola" style="shape=rhombus;perimeter=rhombusPerimeter;whiteSpace=wrap;html=1;align=center;" parent="JhLF3WWh2-RVSbp94sCA-1" vertex="1">
          <mxGeometry x="820" y="620" width="120" height="60" as="geometry" />
        </mxCell>
        <mxCell id="JhLF3WWh2-RVSbp94sCA-7" value="" style="endArrow=none;html=1;rounded=0;exitX=1;exitY=0.5;exitDx=0;exitDy=0;" parent="JhLF3WWh2-RVSbp94sCA-1" source="JhLF3WWh2-RVSbp94sCA-2" target="JhLF3WWh2-RVSbp94sCA-3" edge="1">
          <mxGeometry relative="1" as="geometry">
            <mxPoint x="640" y="690" as="sourcePoint" />
            <mxPoint x="800" y="690" as="targetPoint" />
          </mxGeometry>
        </mxCell>
        <mxCell id="JhLF3WWh2-RVSbp94sCA-8" value="" style="endArrow=none;html=1;rounded=0;" parent="JhLF3WWh2-RVSbp94sCA-1" edge="1">
          <mxGeometry relative="1" as="geometry">
            <mxPoint x="570" y="650" as="sourcePoint" />
            <mxPoint x="650" y="650" as="targetPoint" />
          </mxGeometry>
        </mxCell>
        <mxCell id="JhLF3WWh2-RVSbp94sCA-9" value="Admin" style="whiteSpace=wrap;html=1;align=center;" parent="JhLF3WWh2-RVSbp94sCA-1" vertex="1">
          <mxGeometry x="1040" y="630" width="100" height="40" as="geometry" />
        </mxCell>
        <mxCell id="JhLF3WWh2-RVSbp94sCA-10" value="" style="endArrow=none;html=1;rounded=0;" parent="JhLF3WWh2-RVSbp94sCA-1" edge="1">
          <mxGeometry relative="1" as="geometry">
            <mxPoint x="750" y="649.5" as="sourcePoint" />
            <mxPoint x="820" y="650" as="targetPoint" />
          </mxGeometry>
        </mxCell>
        <mxCell id="JhLF3WWh2-RVSbp94sCA-11" value="" style="endArrow=none;html=1;rounded=0;entryX=0;entryY=0.5;entryDx=0;entryDy=0;" parent="JhLF3WWh2-RVSbp94sCA-1" target="JhLF3WWh2-RVSbp94sCA-9" edge="1">
          <mxGeometry relative="1" as="geometry">
            <mxPoint x="940" y="649.5" as="sourcePoint" />
            <mxPoint x="1100" y="649.5" as="targetPoint" />
          </mxGeometry>
        </mxCell>
        <mxCell id="JhLF3WWh2-RVSbp94sCA-12" value="Laporan&amp;nbsp;" style="whiteSpace=wrap;html=1;align=center;" parent="JhLF3WWh2-RVSbp94sCA-1" vertex="1">
          <mxGeometry x="1040" y="430" width="100" height="40" as="geometry" />
        </mxCell>
        <mxCell id="JhLF3WWh2-RVSbp94sCA-13" value="Mengelola" style="shape=rhombus;perimeter=rhombusPerimeter;whiteSpace=wrap;html=1;align=center;" parent="JhLF3WWh2-RVSbp94sCA-1" vertex="1">
          <mxGeometry x="1030" y="520" width="120" height="60" as="geometry" />
        </mxCell>
        <mxCell id="JhLF3WWh2-RVSbp94sCA-14" value="Mengakses" style="shape=rhombus;perimeter=rhombusPerimeter;whiteSpace=wrap;html=1;align=center;" parent="JhLF3WWh2-RVSbp94sCA-1" vertex="1">
          <mxGeometry x="840" y="420" width="120" height="60" as="geometry" />
        </mxCell>
        <mxCell id="JhLF3WWh2-RVSbp94sCA-15" value="" style="endArrow=none;html=1;rounded=0;exitX=1;exitY=0.5;exitDx=0;exitDy=0;entryX=0;entryY=0.5;entryDx=0;entryDy=0;" parent="JhLF3WWh2-RVSbp94sCA-1" source="JhLF3WWh2-RVSbp94sCA-4" target="JhLF3WWh2-RVSbp94sCA-14" edge="1">
          <mxGeometry relative="1" as="geometry">
            <mxPoint x="750" y="530" as="sourcePoint" />
            <mxPoint x="910" y="530" as="targetPoint" />
          </mxGeometry>
        </mxCell>
        <mxCell id="JhLF3WWh2-RVSbp94sCA-16" value="" style="endArrow=none;html=1;rounded=0;exitX=0;exitY=0.5;exitDx=0;exitDy=0;entryX=1;entryY=0.5;entryDx=0;entryDy=0;" parent="JhLF3WWh2-RVSbp94sCA-1" source="JhLF3WWh2-RVSbp94sCA-12" target="JhLF3WWh2-RVSbp94sCA-14" edge="1">
          <mxGeometry relative="1" as="geometry">
            <mxPoint x="750" y="530" as="sourcePoint" />
            <mxPoint x="910" y="530" as="targetPoint" />
          </mxGeometry>
        </mxCell>
        <mxCell id="JhLF3WWh2-RVSbp94sCA-17" value="" style="endArrow=none;html=1;rounded=0;entryX=0.5;entryY=1;entryDx=0;entryDy=0;exitX=0.5;exitY=0;exitDx=0;exitDy=0;" parent="JhLF3WWh2-RVSbp94sCA-1" source="JhLF3WWh2-RVSbp94sCA-13" target="JhLF3WWh2-RVSbp94sCA-12" edge="1">
          <mxGeometry relative="1" as="geometry">
            <mxPoint x="750" y="530" as="sourcePoint" />
            <mxPoint x="910" y="530" as="targetPoint" />
          </mxGeometry>
        </mxCell>
        <mxCell id="JhLF3WWh2-RVSbp94sCA-18" value="" style="endArrow=none;html=1;rounded=0;exitX=0.5;exitY=1;exitDx=0;exitDy=0;" parent="JhLF3WWh2-RVSbp94sCA-1" source="JhLF3WWh2-RVSbp94sCA-13" target="JhLF3WWh2-RVSbp94sCA-9" edge="1">
          <mxGeometry relative="1" as="geometry">
            <mxPoint x="750" y="530" as="sourcePoint" />
            <mxPoint x="910" y="530" as="targetPoint" />
          </mxGeometry>
        </mxCell>
        <mxCell id="JhLF3WWh2-RVSbp94sCA-19" value="Nama" style="ellipse;whiteSpace=wrap;html=1;align=center;" parent="JhLF3WWh2-RVSbp94sCA-1" vertex="1">
          <mxGeometry x="250" y="730" width="100" height="40" as="geometry" />
        </mxCell>
        <mxCell id="JhLF3WWh2-RVSbp94sCA-20" value="&lt;span style=&quot;border-bottom: 1px dotted&quot;&gt;Alamat&lt;/span&gt;" style="ellipse;whiteSpace=wrap;html=1;align=center;" parent="JhLF3WWh2-RVSbp94sCA-1" vertex="1">
          <mxGeometry x="370" y="520" width="100" height="40" as="geometry" />
        </mxCell>
        <mxCell id="JhLF3WWh2-RVSbp94sCA-21" value="&lt;span style=&quot;border-bottom: 1px dotted&quot;&gt;No_Handphone&lt;/span&gt;" style="ellipse;whiteSpace=wrap;html=1;align=center;" parent="JhLF3WWh2-RVSbp94sCA-1" vertex="1">
          <mxGeometry x="260" y="520" width="100" height="40" as="geometry" />
        </mxCell>
        <mxCell id="JhLF3WWh2-RVSbp94sCA-22" value="Email" style="ellipse;whiteSpace=wrap;html=1;align=center;" parent="JhLF3WWh2-RVSbp94sCA-1" vertex="1">
          <mxGeometry x="364" y="730" width="100" height="40" as="geometry" />
        </mxCell>
        <mxCell id="JhLF3WWh2-RVSbp94sCA-23" value="" style="endArrow=none;html=1;rounded=0;exitX=0.62;exitY=-0.017;exitDx=0;exitDy=0;exitPerimeter=0;" parent="JhLF3WWh2-RVSbp94sCA-1" source="JhLF3WWh2-RVSbp94sCA-19" edge="1">
          <mxGeometry relative="1" as="geometry">
            <mxPoint x="500" y="640" as="sourcePoint" />
            <mxPoint x="360" y="670" as="targetPoint" />
          </mxGeometry>
        </mxCell>
        <mxCell id="JhLF3WWh2-RVSbp94sCA-24" value="" style="endArrow=none;html=1;rounded=0;entryX=0.422;entryY=0.046;entryDx=0;entryDy=0;entryPerimeter=0;" parent="JhLF3WWh2-RVSbp94sCA-1" target="JhLF3WWh2-RVSbp94sCA-22" edge="1">
          <mxGeometry relative="1" as="geometry">
            <mxPoint x="360" y="669" as="sourcePoint" />
            <mxPoint x="420" y="730" as="targetPoint" />
          </mxGeometry>
        </mxCell>
        <mxCell id="JhLF3WWh2-RVSbp94sCA-25" value="" style="endArrow=none;html=1;rounded=0;exitX=0.5;exitY=1;exitDx=0;exitDy=0;entryX=0.403;entryY=0.008;entryDx=0;entryDy=0;entryPerimeter=0;" parent="JhLF3WWh2-RVSbp94sCA-1" source="JhLF3WWh2-RVSbp94sCA-21" target="JhLF3WWh2-RVSbp94sCA-2" edge="1">
          <mxGeometry relative="1" as="geometry">
            <mxPoint x="500" y="640" as="sourcePoint" />
            <mxPoint x="660" y="640" as="targetPoint" />
            <Array as="points">
              <mxPoint x="360" y="629" />
            </Array>
          </mxGeometry>
        </mxCell>
        <mxCell id="JhLF3WWh2-RVSbp94sCA-26" value="" style="endArrow=none;html=1;rounded=0;entryX=0.5;entryY=1;entryDx=0;entryDy=0;" parent="JhLF3WWh2-RVSbp94sCA-1" target="JhLF3WWh2-RVSbp94sCA-20" edge="1">
          <mxGeometry relative="1" as="geometry">
            <mxPoint x="360" y="629" as="sourcePoint" />
            <mxPoint x="660" y="640" as="targetPoint" />
          </mxGeometry>
        </mxCell>
        <mxCell id="JhLF3WWh2-RVSbp94sCA-27" value="Kode_Produk*" style="ellipse;whiteSpace=wrap;html=1;align=center;" parent="JhLF3WWh2-RVSbp94sCA-1" vertex="1">
          <mxGeometry x="560" y="710" width="100" height="40" as="geometry" />
        </mxCell>
        <mxCell id="JhLF3WWh2-RVSbp94sCA-28" value="&lt;span style=&quot;border-bottom: 1px dotted&quot;&gt;Harga&lt;/span&gt;" style="ellipse;whiteSpace=wrap;html=1;align=center;" parent="JhLF3WWh2-RVSbp94sCA-1" vertex="1">
          <mxGeometry x="740" y="790" width="100" height="40" as="geometry" />
        </mxCell>
        <mxCell id="JhLF3WWh2-RVSbp94sCA-29" value="&lt;span style=&quot;border-bottom: 1px dotted&quot;&gt;Jenis_Kain&lt;/span&gt;" style="ellipse;whiteSpace=wrap;html=1;align=center;" parent="JhLF3WWh2-RVSbp94sCA-1" vertex="1">
          <mxGeometry x="580" y="790" width="100" height="40" as="geometry" />
        </mxCell>
        <mxCell id="JhLF3WWh2-RVSbp94sCA-30" value="" style="endArrow=none;html=1;rounded=0;" parent="JhLF3WWh2-RVSbp94sCA-1" source="JhLF3WWh2-RVSbp94sCA-27" edge="1">
          <mxGeometry relative="1" as="geometry">
            <mxPoint x="670" y="670" as="sourcePoint" />
            <mxPoint x="700" y="670" as="targetPoint" />
          </mxGeometry>
        </mxCell>
        <mxCell id="JhLF3WWh2-RVSbp94sCA-31" value="" style="endArrow=none;html=1;rounded=0;entryX=0.5;entryY=0;entryDx=0;entryDy=0;" parent="JhLF3WWh2-RVSbp94sCA-1" target="JhLF3WWh2-RVSbp94sCA-29" edge="1">
          <mxGeometry relative="1" as="geometry">
            <mxPoint x="700" y="670" as="sourcePoint" />
            <mxPoint x="830" y="670" as="targetPoint" />
          </mxGeometry>
        </mxCell>
        <mxCell id="JhLF3WWh2-RVSbp94sCA-32" value="" style="endArrow=none;html=1;rounded=0;" parent="JhLF3WWh2-RVSbp94sCA-1" target="JhLF3WWh2-RVSbp94sCA-28" edge="1">
          <mxGeometry relative="1" as="geometry">
            <mxPoint x="700" y="670" as="sourcePoint" />
            <mxPoint x="780" y="740" as="targetPoint" />
          </mxGeometry>
        </mxCell>
        <mxCell id="JhLF3WWh2-RVSbp94sCA-33" value="&lt;span style=&quot;border-bottom: 1px dotted&quot;&gt;Jenis_Ukuran&amp;nbsp;&lt;/span&gt;" style="ellipse;whiteSpace=wrap;html=1;align=center;" parent="JhLF3WWh2-RVSbp94sCA-1" vertex="1">
          <mxGeometry x="750" y="700" width="100" height="40" as="geometry" />
        </mxCell>
        <mxCell id="JhLF3WWh2-RVSbp94sCA-34" value="" style="endArrow=none;html=1;rounded=0;exitX=0.5;exitY=1;exitDx=0;exitDy=0;" parent="JhLF3WWh2-RVSbp94sCA-1" source="JhLF3WWh2-RVSbp94sCA-5" target="JhLF3WWh2-RVSbp94sCA-33" edge="1">
          <mxGeometry relative="1" as="geometry">
            <mxPoint x="670" y="790" as="sourcePoint" />
            <mxPoint x="785" y="709" as="targetPoint" />
          </mxGeometry>
        </mxCell>
        <mxCell id="JhLF3WWh2-RVSbp94sCA-35" value="&lt;span style=&quot;border-bottom: 1px dotted&quot;&gt;Nama&amp;nbsp;&lt;/span&gt;" style="ellipse;whiteSpace=wrap;html=1;align=center;" parent="JhLF3WWh2-RVSbp94sCA-1" vertex="1">
          <mxGeometry x="990" y="730" width="100" height="40" as="geometry" />
        </mxCell>
        <mxCell id="JhLF3WWh2-RVSbp94sCA-36" value="Username&amp;nbsp;" style="ellipse;whiteSpace=wrap;html=1;align=center;" parent="JhLF3WWh2-RVSbp94sCA-1" vertex="1">
          <mxGeometry x="1100" y="731" width="100" height="40" as="geometry" />
        </mxCell>
        <mxCell id="JhLF3WWh2-RVSbp94sCA-37" value="" style="endArrow=none;html=1;rounded=0;entryX=0.5;entryY=1;entryDx=0;entryDy=0;" parent="JhLF3WWh2-RVSbp94sCA-1" edge="1">
          <mxGeometry relative="1" as="geometry">
            <mxPoint x="1153" y="730" as="sourcePoint" />
            <mxPoint x="1093" y="669.0000000000002" as="targetPoint" />
            <Array as="points">
              <mxPoint x="1153" y="730" />
            </Array>
          </mxGeometry>
        </mxCell>
        <mxCell id="JhLF3WWh2-RVSbp94sCA-38" value="" style="endArrow=none;html=1;rounded=0;exitX=0.5;exitY=0;exitDx=0;exitDy=0;" parent="JhLF3WWh2-RVSbp94sCA-1" edge="1">
          <mxGeometry relative="1" as="geometry">
            <mxPoint x="1044" y="729.9999999999998" as="sourcePoint" />
            <mxPoint x="1094" y="670" as="targetPoint" />
          </mxGeometry>
        </mxCell>
        <mxCell id="JhLF3WWh2-RVSbp94sCA-39" value="&lt;span style=&quot;border-bottom: 1px dotted&quot;&gt;Jenis_Kelamin&lt;/span&gt;" style="ellipse;whiteSpace=wrap;html=1;align=center;" parent="JhLF3WWh2-RVSbp94sCA-1" vertex="1">
          <mxGeometry x="160" y="629" width="100" height="40" as="geometry" />
        </mxCell>
        <mxCell id="JhLF3WWh2-RVSbp94sCA-40" value="" style="endArrow=none;html=1;rounded=0;exitX=1;exitY=0.5;exitDx=0;exitDy=0;" parent="JhLF3WWh2-RVSbp94sCA-1" source="JhLF3WWh2-RVSbp94sCA-39" edge="1">
          <mxGeometry relative="1" as="geometry">
            <mxPoint x="450" y="670" as="sourcePoint" />
            <mxPoint x="310" y="649" as="targetPoint" />
          </mxGeometry>
        </mxCell>
        <mxCell id="JhLF3WWh2-RVSbp94sCA-41" value="&lt;span style=&quot;border-bottom: 1px dotted&quot;&gt;Detail_Produk&lt;/span&gt;" style="ellipse;whiteSpace=wrap;html=1;align=center;" parent="JhLF3WWh2-RVSbp94sCA-1" vertex="1">
          <mxGeometry x="720" y="860" width="100" height="40" as="geometry" />
        </mxCell>
        <mxCell id="JhLF3WWh2-RVSbp94sCA-42" value="Stok_Produk" style="ellipse;whiteSpace=wrap;html=1;align=center;" parent="JhLF3WWh2-RVSbp94sCA-1" vertex="1">
          <mxGeometry x="610" y="860" width="100" height="40" as="geometry" />
        </mxCell>
        <mxCell id="JhLF3WWh2-RVSbp94sCA-43" value="Transaksi" style="ellipse;whiteSpace=wrap;html=1;align=center;" parent="JhLF3WWh2-RVSbp94sCA-1" vertex="1">
          <mxGeometry x="1120" y="340" width="100" height="40" as="geometry" />
        </mxCell>
        <mxCell id="JhLF3WWh2-RVSbp94sCA-44" value="Data Pesanan&amp;nbsp;" style="ellipse;whiteSpace=wrap;html=1;align=center;" parent="JhLF3WWh2-RVSbp94sCA-1" vertex="1">
          <mxGeometry x="1040" y="310" width="100" height="40" as="geometry" />
        </mxCell>
        <mxCell id="JhLF3WWh2-RVSbp94sCA-45" value="&lt;span style=&quot;border-bottom: 1px dotted&quot;&gt;Data Customer&lt;/span&gt;" style="ellipse;whiteSpace=wrap;html=1;align=center;" parent="JhLF3WWh2-RVSbp94sCA-1" vertex="1">
          <mxGeometry x="960" y="340" width="100" height="40" as="geometry" />
        </mxCell>
        <mxCell id="JhLF3WWh2-RVSbp94sCA-46" value="" style="endArrow=none;html=1;rounded=0;exitX=0.5;exitY=1;exitDx=0;exitDy=0;" parent="JhLF3WWh2-RVSbp94sCA-1" source="JhLF3WWh2-RVSbp94sCA-44" target="JhLF3WWh2-RVSbp94sCA-12" edge="1">
          <mxGeometry relative="1" as="geometry">
            <mxPoint x="920" y="360" as="sourcePoint" />
            <mxPoint x="1080" y="360" as="targetPoint" />
          </mxGeometry>
        </mxCell>
        <mxCell id="JhLF3WWh2-RVSbp94sCA-47" value="" style="endArrow=none;html=1;rounded=0;exitX=0.5;exitY=1;exitDx=0;exitDy=0;entryX=0.5;entryY=0;entryDx=0;entryDy=0;" parent="JhLF3WWh2-RVSbp94sCA-1" source="JhLF3WWh2-RVSbp94sCA-45" target="JhLF3WWh2-RVSbp94sCA-12" edge="1">
          <mxGeometry relative="1" as="geometry">
            <mxPoint x="920" y="360" as="sourcePoint" />
            <mxPoint x="1080" y="360" as="targetPoint" />
          </mxGeometry>
        </mxCell>
        <mxCell id="JhLF3WWh2-RVSbp94sCA-48" value="" style="endArrow=none;html=1;rounded=0;exitX=0.5;exitY=1;exitDx=0;exitDy=0;entryX=0.5;entryY=0;entryDx=0;entryDy=0;" parent="JhLF3WWh2-RVSbp94sCA-1" source="JhLF3WWh2-RVSbp94sCA-43" target="JhLF3WWh2-RVSbp94sCA-12" edge="1">
          <mxGeometry relative="1" as="geometry">
            <mxPoint x="920" y="360" as="sourcePoint" />
            <mxPoint x="1080" y="360" as="targetPoint" />
          </mxGeometry>
        </mxCell>
        <mxCell id="JhLF3WWh2-RVSbp94sCA-49" value="&lt;span style=&quot;border-bottom: 1px dotted&quot;&gt;Password&lt;/span&gt;" style="ellipse;whiteSpace=wrap;html=1;align=center;" parent="JhLF3WWh2-RVSbp94sCA-1" vertex="1">
          <mxGeometry x="1050" y="790" width="100" height="40" as="geometry" />
        </mxCell>
        <mxCell id="JhLF3WWh2-RVSbp94sCA-50" value="&lt;span style=&quot;border-bottom: 1px dotted&quot;&gt;Nama&lt;/span&gt;" style="ellipse;whiteSpace=wrap;html=1;align=center;" parent="JhLF3WWh2-RVSbp94sCA-1" vertex="1">
          <mxGeometry x="650" y="280" width="100" height="40" as="geometry" />
        </mxCell>
        <mxCell id="JhLF3WWh2-RVSbp94sCA-51" value="&lt;span style=&quot;border-bottom: 1px dotted&quot;&gt;Password&lt;/span&gt;" style="ellipse;whiteSpace=wrap;html=1;align=center;" parent="JhLF3WWh2-RVSbp94sCA-1" vertex="1">
          <mxGeometry x="730" y="331" width="100" height="40" as="geometry" />
        </mxCell>
        <mxCell id="JhLF3WWh2-RVSbp94sCA-52" value="Username" style="ellipse;whiteSpace=wrap;html=1;align=center;" parent="JhLF3WWh2-RVSbp94sCA-1" vertex="1">
          <mxGeometry x="570" y="330" width="100" height="40" as="geometry" />
        </mxCell>
        <mxCell id="JhLF3WWh2-RVSbp94sCA-53" value="" style="endArrow=none;html=1;rounded=0;entryX=0.5;entryY=1;entryDx=0;entryDy=0;" parent="JhLF3WWh2-RVSbp94sCA-1" edge="1">
          <mxGeometry relative="1" as="geometry">
            <mxPoint x="1094" y="789.9999999999998" as="sourcePoint" />
            <mxPoint x="1094" y="670.0000000000002" as="targetPoint" />
          </mxGeometry>
        </mxCell>
        <mxCell id="JhLF3WWh2-RVSbp94sCA-54" value="" style="endArrow=none;html=1;rounded=0;entryX=0.678;entryY=0.067;entryDx=0;entryDy=0;entryPerimeter=0;" parent="JhLF3WWh2-RVSbp94sCA-1" target="JhLF3WWh2-RVSbp94sCA-42" edge="1">
          <mxGeometry relative="1" as="geometry">
            <mxPoint x="700" y="670" as="sourcePoint" />
            <mxPoint x="1000" y="730" as="targetPoint" />
          </mxGeometry>
        </mxCell>
        <mxCell id="JhLF3WWh2-RVSbp94sCA-55" value="" style="endArrow=none;html=1;rounded=0;exitX=0.5;exitY=1;exitDx=0;exitDy=0;" parent="JhLF3WWh2-RVSbp94sCA-1" source="JhLF3WWh2-RVSbp94sCA-5" edge="1">
          <mxGeometry relative="1" as="geometry">
            <mxPoint x="700" y="680" as="sourcePoint" />
            <mxPoint x="750" y="860" as="targetPoint" />
            <Array as="points" />
          </mxGeometry>
        </mxCell>
        <mxCell id="JhLF3WWh2-RVSbp94sCA-56" value="" style="endArrow=none;html=1;rounded=0;exitX=0.5;exitY=1;exitDx=0;exitDy=0;" parent="JhLF3WWh2-RVSbp94sCA-1" source="JhLF3WWh2-RVSbp94sCA-50" target="JhLF3WWh2-RVSbp94sCA-4" edge="1">
          <mxGeometry relative="1" as="geometry">
            <mxPoint x="740" y="330" as="sourcePoint" />
            <mxPoint x="900" y="330" as="targetPoint" />
          </mxGeometry>
        </mxCell>
        <mxCell id="JhLF3WWh2-RVSbp94sCA-57" value="" style="endArrow=none;html=1;rounded=0;exitX=0.5;exitY=0;exitDx=0;exitDy=0;entryX=0.5;entryY=1;entryDx=0;entryDy=0;" parent="JhLF3WWh2-RVSbp94sCA-1" source="JhLF3WWh2-RVSbp94sCA-4" target="JhLF3WWh2-RVSbp94sCA-51" edge="1">
          <mxGeometry relative="1" as="geometry">
            <mxPoint x="740" y="330" as="sourcePoint" />
            <mxPoint x="900" y="330" as="targetPoint" />
          </mxGeometry>
        </mxCell>
        <mxCell id="JhLF3WWh2-RVSbp94sCA-58" value="" style="endArrow=none;html=1;rounded=0;exitX=0.5;exitY=1;exitDx=0;exitDy=0;entryX=0.5;entryY=0;entryDx=0;entryDy=0;" parent="JhLF3WWh2-RVSbp94sCA-1" source="JhLF3WWh2-RVSbp94sCA-52" target="JhLF3WWh2-RVSbp94sCA-4" edge="1">
          <mxGeometry relative="1" as="geometry">
            <mxPoint x="740" y="330" as="sourcePoint" />
            <mxPoint x="900" y="330" as="targetPoint" />
          </mxGeometry>
        </mxCell>
      </root>
    </mxGraphModel>
  </diagram>
  <diagram id="2c14YWLq9aVFehPiXfh7" name="Use Case">
    <mxGraphModel dx="920" dy="605" grid="1" gridSize="10" guides="1" tooltips="1" connect="1" arrows="1" fold="1" page="1" pageScale="1" pageWidth="850" pageHeight="1100" math="0" shadow="0">
      <root>
        <mxCell id="9KefTmMlMwABWuw1ejPZ-0" />
        <mxCell id="9KefTmMlMwABWuw1ejPZ-1" parent="9KefTmMlMwABWuw1ejPZ-0" />
        <mxCell id="9KefTmMlMwABWuw1ejPZ-2" value="&lt;font style=&quot;font-size: 14px&quot;&gt;USE CASE&lt;br&gt;SISTEM INFORMASI KONVEKSI PADA KAFKA&amp;nbsp;&lt;/font&gt;" style="text;html=1;align=center;verticalAlign=middle;resizable=0;points=[];autosize=1;strokeColor=#82b366;fillColor=#d5e8d4;gradientColor=#97d077;" vertex="1" parent="9KefTmMlMwABWuw1ejPZ-1">
          <mxGeometry x="449" y="780" width="320" height="40" as="geometry" />
        </mxCell>
        <mxCell id="9KefTmMlMwABWuw1ejPZ-3" value="Costumer" style="shape=umlActor;verticalLabelPosition=bottom;verticalAlign=top;html=1;outlineConnect=0;" vertex="1" parent="9KefTmMlMwABWuw1ejPZ-1">
          <mxGeometry x="170" y="1125" width="40" height="70" as="geometry" />
        </mxCell>
        <mxCell id="9KefTmMlMwABWuw1ejPZ-4" value="Register" style="ellipse;whiteSpace=wrap;html=1;" vertex="1" parent="9KefTmMlMwABWuw1ejPZ-1">
          <mxGeometry x="345" y="935" width="90" height="50" as="geometry" />
        </mxCell>
        <mxCell id="9KefTmMlMwABWuw1ejPZ-5" value="Login" style="ellipse;whiteSpace=wrap;html=1;" vertex="1" parent="9KefTmMlMwABWuw1ejPZ-1">
          <mxGeometry x="516" y="1145" width="95" height="50" as="geometry" />
        </mxCell>
        <mxCell id="9KefTmMlMwABWuw1ejPZ-6" value="Konfirmasi Pembayaran" style="ellipse;whiteSpace=wrap;html=1;" vertex="1" parent="9KefTmMlMwABWuw1ejPZ-1">
          <mxGeometry x="350" y="1155" width="90" height="50" as="geometry" />
        </mxCell>
        <mxCell id="9KefTmMlMwABWuw1ejPZ-7" value="Melakukan Pesanan" style="ellipse;whiteSpace=wrap;html=1;" vertex="1" parent="9KefTmMlMwABWuw1ejPZ-1">
          <mxGeometry x="350" y="1005" width="90" height="50" as="geometry" />
        </mxCell>
        <mxCell id="9KefTmMlMwABWuw1ejPZ-8" value="Melihat Data Pembayaran" style="ellipse;whiteSpace=wrap;html=1;" vertex="1" parent="9KefTmMlMwABWuw1ejPZ-1">
          <mxGeometry x="350" y="1225" width="90" height="50" as="geometry" />
        </mxCell>
        <mxCell id="9KefTmMlMwABWuw1ejPZ-9" value="Melihat Invoice Pemesanan" style="ellipse;whiteSpace=wrap;html=1;" vertex="1" parent="9KefTmMlMwABWuw1ejPZ-1">
          <mxGeometry x="350" y="1075" width="90" height="60" as="geometry" />
        </mxCell>
        <mxCell id="9KefTmMlMwABWuw1ejPZ-10" value="Pemilik &lt;br&gt;(Owner)" style="shape=umlActor;verticalLabelPosition=bottom;verticalAlign=top;html=1;outlineConnect=0;" vertex="1" parent="9KefTmMlMwABWuw1ejPZ-1">
          <mxGeometry x="200" y="1415" width="40" height="80" as="geometry" />
        </mxCell>
        <mxCell id="9KefTmMlMwABWuw1ejPZ-11" value="Mengelola &lt;br&gt;Dashboard" style="ellipse;whiteSpace=wrap;html=1;" vertex="1" parent="9KefTmMlMwABWuw1ejPZ-1">
          <mxGeometry x="340" y="1405" width="100" height="60" as="geometry" />
        </mxCell>
        <mxCell id="9KefTmMlMwABWuw1ejPZ-12" value="Mengeola data penjualan" style="ellipse;whiteSpace=wrap;html=1;" vertex="1" parent="9KefTmMlMwABWuw1ejPZ-1">
          <mxGeometry x="340" y="1485" width="100" height="60" as="geometry" />
        </mxCell>
        <mxCell id="9KefTmMlMwABWuw1ejPZ-13" value="Admin&lt;br&gt;(Pegawai)" style="shape=umlActor;verticalLabelPosition=bottom;verticalAlign=top;html=1;outlineConnect=0;" vertex="1" parent="9KefTmMlMwABWuw1ejPZ-1">
          <mxGeometry x="930" y="1215" width="40" height="80" as="geometry" />
        </mxCell>
        <mxCell id="9KefTmMlMwABWuw1ejPZ-14" value="Mengelola data pesan omset" style="ellipse;whiteSpace=wrap;html=1;" vertex="1" parent="9KefTmMlMwABWuw1ejPZ-1">
          <mxGeometry x="672" y="1245" width="100" height="60" as="geometry" />
        </mxCell>
        <mxCell id="9KefTmMlMwABWuw1ejPZ-15" value="Mengelola validasi pembayaran" style="ellipse;whiteSpace=wrap;html=1;" vertex="1" parent="9KefTmMlMwABWuw1ejPZ-1">
          <mxGeometry x="672" y="1381" width="112" height="60" as="geometry" />
        </mxCell>
        <mxCell id="9KefTmMlMwABWuw1ejPZ-16" value="Mengelola &lt;br&gt;data kain" style="ellipse;whiteSpace=wrap;html=1;" vertex="1" parent="9KefTmMlMwABWuw1ejPZ-1">
          <mxGeometry x="672" y="1035" width="98" height="60" as="geometry" />
        </mxCell>
        <mxCell id="9KefTmMlMwABWuw1ejPZ-17" value="Mengelola data pembayaran" style="ellipse;whiteSpace=wrap;html=1;" vertex="1" parent="9KefTmMlMwABWuw1ejPZ-1">
          <mxGeometry x="676" y="1446" width="108" height="60" as="geometry" />
        </mxCell>
        <mxCell id="9KefTmMlMwABWuw1ejPZ-18" value="Mengelola invoice pemesanan" style="ellipse;whiteSpace=wrap;html=1;" vertex="1" parent="9KefTmMlMwABWuw1ejPZ-1">
          <mxGeometry x="670" y="1315" width="110" height="60" as="geometry" />
        </mxCell>
        <mxCell id="9KefTmMlMwABWuw1ejPZ-19" value="Mengeola data dashboard" style="ellipse;whiteSpace=wrap;html=1;" vertex="1" parent="9KefTmMlMwABWuw1ejPZ-1">
          <mxGeometry x="672" y="1175" width="100" height="60" as="geometry" />
        </mxCell>
        <mxCell id="9KefTmMlMwABWuw1ejPZ-20" value="Mengeola data produk" style="ellipse;whiteSpace=wrap;html=1;" vertex="1" parent="9KefTmMlMwABWuw1ejPZ-1">
          <mxGeometry x="670" y="965" width="100" height="60" as="geometry" />
        </mxCell>
        <mxCell id="9KefTmMlMwABWuw1ejPZ-21" value="Mengelola data ukuran" style="ellipse;whiteSpace=wrap;html=1;" vertex="1" parent="9KefTmMlMwABWuw1ejPZ-1">
          <mxGeometry x="672" y="1105" width="100" height="60" as="geometry" />
        </mxCell>
        <mxCell id="9KefTmMlMwABWuw1ejPZ-22" style="edgeStyle=orthogonalEdgeStyle;rounded=0;orthogonalLoop=1;jettySize=auto;html=1;exitX=0.5;exitY=1;exitDx=0;exitDy=0;" edge="1" parent="9KefTmMlMwABWuw1ejPZ-1" source="9KefTmMlMwABWuw1ejPZ-21" target="9KefTmMlMwABWuw1ejPZ-21">
          <mxGeometry relative="1" as="geometry" />
        </mxCell>
        <mxCell id="9KefTmMlMwABWuw1ejPZ-23" value="Merekap laporan penjualan" style="ellipse;whiteSpace=wrap;html=1;" vertex="1" parent="9KefTmMlMwABWuw1ejPZ-1">
          <mxGeometry x="683" y="1515" width="108" height="60" as="geometry" />
        </mxCell>
        <mxCell id="9KefTmMlMwABWuw1ejPZ-24" value="" style="endArrow=none;html=1;rounded=0;entryX=0;entryY=0.5;entryDx=0;entryDy=0;exitX=0.5;exitY=0.5;exitDx=0;exitDy=0;exitPerimeter=0;" edge="1" parent="9KefTmMlMwABWuw1ejPZ-1" source="9KefTmMlMwABWuw1ejPZ-3" target="9KefTmMlMwABWuw1ejPZ-7">
          <mxGeometry width="50" height="50" relative="1" as="geometry">
            <mxPoint x="270" y="1055" as="sourcePoint" />
            <mxPoint x="650" y="1135" as="targetPoint" />
          </mxGeometry>
        </mxCell>
        <mxCell id="9KefTmMlMwABWuw1ejPZ-25" value="" style="endArrow=none;html=1;rounded=0;exitX=0.5;exitY=0.5;exitDx=0;exitDy=0;exitPerimeter=0;" edge="1" parent="9KefTmMlMwABWuw1ejPZ-1" source="9KefTmMlMwABWuw1ejPZ-3" target="9KefTmMlMwABWuw1ejPZ-9">
          <mxGeometry width="50" height="50" relative="1" as="geometry">
            <mxPoint x="270" y="1055" as="sourcePoint" />
            <mxPoint x="350" y="970" as="targetPoint" />
          </mxGeometry>
        </mxCell>
        <mxCell id="9KefTmMlMwABWuw1ejPZ-26" value="" style="endArrow=none;html=1;rounded=0;entryX=0.022;entryY=0.36;entryDx=0;entryDy=0;entryPerimeter=0;exitX=0.5;exitY=0.5;exitDx=0;exitDy=0;exitPerimeter=0;" edge="1" parent="9KefTmMlMwABWuw1ejPZ-1" source="9KefTmMlMwABWuw1ejPZ-3" target="9KefTmMlMwABWuw1ejPZ-6">
          <mxGeometry width="50" height="50" relative="1" as="geometry">
            <mxPoint x="270" y="1055" as="sourcePoint" />
            <mxPoint x="351.45722274214654" y="1052.5726569144092" as="targetPoint" />
          </mxGeometry>
        </mxCell>
        <mxCell id="9KefTmMlMwABWuw1ejPZ-27" value="" style="endArrow=none;html=1;rounded=0;exitX=1;exitY=0.5;exitDx=0;exitDy=0;entryX=0.5;entryY=0.5;entryDx=0;entryDy=0;entryPerimeter=0;" edge="1" parent="9KefTmMlMwABWuw1ejPZ-1" source="9KefTmMlMwABWuw1ejPZ-14" target="9KefTmMlMwABWuw1ejPZ-13">
          <mxGeometry width="50" height="50" relative="1" as="geometry">
            <mxPoint x="600" y="1185" as="sourcePoint" />
            <mxPoint x="930" y="1255" as="targetPoint" />
          </mxGeometry>
        </mxCell>
        <mxCell id="9KefTmMlMwABWuw1ejPZ-28" value="" style="endArrow=none;html=1;rounded=0;exitX=1;exitY=0.5;exitDx=0;exitDy=0;entryX=0.5;entryY=0.5;entryDx=0;entryDy=0;entryPerimeter=0;" edge="1" parent="9KefTmMlMwABWuw1ejPZ-1" source="9KefTmMlMwABWuw1ejPZ-20" target="9KefTmMlMwABWuw1ejPZ-13">
          <mxGeometry width="50" height="50" relative="1" as="geometry">
            <mxPoint x="782" y="1285" as="sourcePoint" />
            <mxPoint x="900" y="1275" as="targetPoint" />
          </mxGeometry>
        </mxCell>
        <mxCell id="9KefTmMlMwABWuw1ejPZ-29" value="" style="endArrow=none;html=1;rounded=0;exitX=1;exitY=0.5;exitDx=0;exitDy=0;entryX=0.5;entryY=0.5;entryDx=0;entryDy=0;entryPerimeter=0;" edge="1" parent="9KefTmMlMwABWuw1ejPZ-1" source="9KefTmMlMwABWuw1ejPZ-16" target="9KefTmMlMwABWuw1ejPZ-13">
          <mxGeometry width="50" height="50" relative="1" as="geometry">
            <mxPoint x="792" y="1295" as="sourcePoint" />
            <mxPoint x="900" y="1275" as="targetPoint" />
          </mxGeometry>
        </mxCell>
        <mxCell id="9KefTmMlMwABWuw1ejPZ-30" value="" style="endArrow=none;html=1;rounded=0;entryX=0.5;entryY=0.5;entryDx=0;entryDy=0;entryPerimeter=0;" edge="1" parent="9KefTmMlMwABWuw1ejPZ-1" target="9KefTmMlMwABWuw1ejPZ-13">
          <mxGeometry width="50" height="50" relative="1" as="geometry">
            <mxPoint x="764.3261099261483" y="1150.8519965711278" as="sourcePoint" />
            <mxPoint x="900" y="1275" as="targetPoint" />
          </mxGeometry>
        </mxCell>
        <mxCell id="9KefTmMlMwABWuw1ejPZ-31" value="" style="endArrow=none;html=1;rounded=0;exitX=1;exitY=0.5;exitDx=0;exitDy=0;entryX=0.5;entryY=0.5;entryDx=0;entryDy=0;entryPerimeter=0;" edge="1" parent="9KefTmMlMwABWuw1ejPZ-1" source="9KefTmMlMwABWuw1ejPZ-19" target="9KefTmMlMwABWuw1ejPZ-13">
          <mxGeometry width="50" height="50" relative="1" as="geometry">
            <mxPoint x="812" y="1315" as="sourcePoint" />
            <mxPoint x="900" y="1275" as="targetPoint" />
          </mxGeometry>
        </mxCell>
        <mxCell id="9KefTmMlMwABWuw1ejPZ-32" value="" style="endArrow=none;html=1;rounded=0;exitX=1;exitY=0.5;exitDx=0;exitDy=0;entryX=0.5;entryY=0.5;entryDx=0;entryDy=0;entryPerimeter=0;" edge="1" parent="9KefTmMlMwABWuw1ejPZ-1" source="9KefTmMlMwABWuw1ejPZ-18" target="9KefTmMlMwABWuw1ejPZ-13">
          <mxGeometry width="50" height="50" relative="1" as="geometry">
            <mxPoint x="782" y="1285" as="sourcePoint" />
            <mxPoint x="900" y="1275" as="targetPoint" />
          </mxGeometry>
        </mxCell>
        <mxCell id="9KefTmMlMwABWuw1ejPZ-33" value="" style="endArrow=none;html=1;rounded=0;exitX=1;exitY=0.5;exitDx=0;exitDy=0;entryX=0.5;entryY=0.5;entryDx=0;entryDy=0;entryPerimeter=0;" edge="1" parent="9KefTmMlMwABWuw1ejPZ-1" source="9KefTmMlMwABWuw1ejPZ-15" target="9KefTmMlMwABWuw1ejPZ-13">
          <mxGeometry width="50" height="50" relative="1" as="geometry">
            <mxPoint x="792" y="1295" as="sourcePoint" />
            <mxPoint x="900" y="1275" as="targetPoint" />
          </mxGeometry>
        </mxCell>
        <mxCell id="9KefTmMlMwABWuw1ejPZ-34" value="" style="endArrow=none;html=1;rounded=0;exitX=1;exitY=0.5;exitDx=0;exitDy=0;entryX=0.5;entryY=0.5;entryDx=0;entryDy=0;entryPerimeter=0;" edge="1" parent="9KefTmMlMwABWuw1ejPZ-1" source="9KefTmMlMwABWuw1ejPZ-17" target="9KefTmMlMwABWuw1ejPZ-13">
          <mxGeometry width="50" height="50" relative="1" as="geometry">
            <mxPoint x="802" y="1305" as="sourcePoint" />
            <mxPoint x="900" y="1275" as="targetPoint" />
          </mxGeometry>
        </mxCell>
        <mxCell id="9KefTmMlMwABWuw1ejPZ-35" value="" style="endArrow=none;html=1;rounded=0;exitX=0.5;exitY=0.5;exitDx=0;exitDy=0;exitPerimeter=0;" edge="1" parent="9KefTmMlMwABWuw1ejPZ-1" source="9KefTmMlMwABWuw1ejPZ-10" target="9KefTmMlMwABWuw1ejPZ-11">
          <mxGeometry width="50" height="50" relative="1" as="geometry">
            <mxPoint x="260" y="1475" as="sourcePoint" />
            <mxPoint x="650" y="1435" as="targetPoint" />
          </mxGeometry>
        </mxCell>
        <mxCell id="9KefTmMlMwABWuw1ejPZ-36" value="" style="endArrow=none;html=1;rounded=0;entryX=0.5;entryY=0.5;entryDx=0;entryDy=0;entryPerimeter=0;" edge="1" parent="9KefTmMlMwABWuw1ejPZ-1" source="9KefTmMlMwABWuw1ejPZ-12" target="9KefTmMlMwABWuw1ejPZ-10">
          <mxGeometry width="50" height="50" relative="1" as="geometry">
            <mxPoint x="264.28932188134524" y="1555" as="sourcePoint" />
            <mxPoint x="260" y="1475" as="targetPoint" />
          </mxGeometry>
        </mxCell>
        <mxCell id="9KefTmMlMwABWuw1ejPZ-37" value="" style="endArrow=none;html=1;rounded=0;" edge="1" parent="9KefTmMlMwABWuw1ejPZ-1" source="9KefTmMlMwABWuw1ejPZ-5" target="9KefTmMlMwABWuw1ejPZ-13">
          <mxGeometry width="50" height="50" relative="1" as="geometry">
            <mxPoint x="660" y="905" as="sourcePoint" />
            <mxPoint x="900" y="1275" as="targetPoint" />
            <Array as="points">
              <mxPoint x="564" y="910" />
              <mxPoint x="950" y="910" />
            </Array>
          </mxGeometry>
        </mxCell>
        <mxCell id="9KefTmMlMwABWuw1ejPZ-38" value="" style="endArrow=none;html=1;rounded=0;entryX=0;entryY=0.5;entryDx=0;entryDy=0;exitX=0.5;exitY=0.5;exitDx=0;exitDy=0;exitPerimeter=0;" edge="1" parent="9KefTmMlMwABWuw1ejPZ-1" source="9KefTmMlMwABWuw1ejPZ-3" target="9KefTmMlMwABWuw1ejPZ-8">
          <mxGeometry width="50" height="50" relative="1" as="geometry">
            <mxPoint x="280" y="1065" as="sourcePoint" />
            <mxPoint x="371.98" y="1163" as="targetPoint" />
          </mxGeometry>
        </mxCell>
        <mxCell id="9KefTmMlMwABWuw1ejPZ-39" value="" style="endArrow=none;html=1;rounded=0;exitX=0.5;exitY=0.5;exitDx=0;exitDy=0;exitPerimeter=0;entryX=0.033;entryY=0.68;entryDx=0;entryDy=0;entryPerimeter=0;" edge="1" parent="9KefTmMlMwABWuw1ejPZ-1" source="9KefTmMlMwABWuw1ejPZ-3" target="9KefTmMlMwABWuw1ejPZ-4">
          <mxGeometry width="50" height="50" relative="1" as="geometry">
            <mxPoint x="600" y="1095" as="sourcePoint" />
            <mxPoint x="650" y="1045" as="targetPoint" />
          </mxGeometry>
        </mxCell>
        <mxCell id="9KefTmMlMwABWuw1ejPZ-40" value="" style="endArrow=none;html=1;rounded=0;exitX=1;exitY=0.5;exitDx=0;exitDy=0;entryX=0.5;entryY=0.5;entryDx=0;entryDy=0;entryPerimeter=0;" edge="1" parent="9KefTmMlMwABWuw1ejPZ-1" source="9KefTmMlMwABWuw1ejPZ-23" target="9KefTmMlMwABWuw1ejPZ-13">
          <mxGeometry width="50" height="50" relative="1" as="geometry">
            <mxPoint x="600" y="1395" as="sourcePoint" />
            <mxPoint x="650" y="1345" as="targetPoint" />
          </mxGeometry>
        </mxCell>
        <mxCell id="9KefTmMlMwABWuw1ejPZ-41" value="" style="endArrow=none;html=1;rounded=0;exitX=0.5;exitY=0.5;exitDx=0;exitDy=0;exitPerimeter=0;entryX=0.5;entryY=1;entryDx=0;entryDy=0;" edge="1" parent="9KefTmMlMwABWuw1ejPZ-1" source="9KefTmMlMwABWuw1ejPZ-10" target="9KefTmMlMwABWuw1ejPZ-5">
          <mxGeometry width="50" height="50" relative="1" as="geometry">
            <mxPoint x="600" y="1265" as="sourcePoint" />
            <mxPoint x="580" y="1095" as="targetPoint" />
            <Array as="points">
              <mxPoint x="460" y="1275" />
            </Array>
          </mxGeometry>
        </mxCell>
        <mxCell id="9KefTmMlMwABWuw1ejPZ-42" value="Extends" style="endArrow=none;dashed=1;html=1;dashPattern=1 3;strokeWidth=2;rounded=0;exitX=0.253;exitY=0.1;exitDx=0;exitDy=0;exitPerimeter=0;entryX=1;entryY=0.5;entryDx=0;entryDy=0;" edge="1" parent="9KefTmMlMwABWuw1ejPZ-1" target="9KefTmMlMwABWuw1ejPZ-4">
          <mxGeometry width="50" height="50" relative="1" as="geometry">
            <mxPoint x="563.9650000000001" y="1145" as="sourcePoint" />
            <mxPoint x="432.00476727882796" y="977.8947052198487" as="targetPoint" />
          </mxGeometry>
        </mxCell>
        <mxCell id="9KefTmMlMwABWuw1ejPZ-43" value="" style="endArrow=none;html=1;rounded=0;strokeColor=#33FF33;" edge="1" parent="9KefTmMlMwABWuw1ejPZ-1">
          <mxGeometry width="50" height="50" relative="1" as="geometry">
            <mxPoint x="270" y="1585" as="sourcePoint" />
            <mxPoint x="270" y="845" as="targetPoint" />
          </mxGeometry>
        </mxCell>
        <mxCell id="9KefTmMlMwABWuw1ejPZ-44" value="" style="endArrow=none;html=1;rounded=0;strokeColor=#33FF33;" edge="1" parent="9KefTmMlMwABWuw1ejPZ-1">
          <mxGeometry width="50" height="50" relative="1" as="geometry">
            <mxPoint x="270" y="1585" as="sourcePoint" />
            <mxPoint x="910" y="1585" as="targetPoint" />
          </mxGeometry>
        </mxCell>
        <mxCell id="9KefTmMlMwABWuw1ejPZ-45" value="" style="endArrow=none;html=1;rounded=0;strokeColor=#33FF33;" edge="1" parent="9KefTmMlMwABWuw1ejPZ-1">
          <mxGeometry width="50" height="50" relative="1" as="geometry">
            <mxPoint x="910" y="1585" as="sourcePoint" />
            <mxPoint x="910" y="845" as="targetPoint" />
          </mxGeometry>
        </mxCell>
        <mxCell id="9KefTmMlMwABWuw1ejPZ-46" value="" style="endArrow=none;html=1;rounded=0;strokeColor=#33FF33;" edge="1" parent="9KefTmMlMwABWuw1ejPZ-1">
          <mxGeometry width="50" height="50" relative="1" as="geometry">
            <mxPoint x="270" y="845" as="sourcePoint" />
            <mxPoint x="910" y="845" as="targetPoint" />
          </mxGeometry>
        </mxCell>
      </root>
    </mxGraphModel>
  </diagram>
</mxfile>
